<?xml version="1.0" encoding="utf-16"?>
<svg width="450" height="260" viewBox="0 0 450 260" fill="none" xmlns="http://www.w3.org/2000/svg">
  <path d="M413.557 185.308C404.841 192.498 398.086 201.799 394.389 212.476C384.837 240.025 358.657 259.81 327.856 259.81H70.4076C31.5229 259.805 0 228.282 0 189.397C0 161.085 16.7104 136.678 40.8088 125.499C47.517 122.388 51.7417 115.591 51.7417 108.198V108.062C51.7417 101.139 52.4423 94.384 53.7808 87.8536C55.9402 77.318 52.8083 66.3799 45.3053 58.6678C40.0768 53.2876 36.856 45.9468 36.856 37.853C36.856 21.3517 50.2306 7.97705 66.7319 7.97705H349.915C405.191 7.97705 450 52.7857 450 108.062C450 139.161 435.81 166.951 413.557 185.308Z" fill="white" />
  <path d="M13.7145 226.316L385.741 226.316V225.124L13.7145 225.124V226.316Z" fill="#FFF1EA" />
  <path d="M50.0842 249.85L62.2301 233.38C62.434 233.103 62.7582 232.94 63.1033 232.94H177.713C178.058 232.94 178.382 233.103 178.586 233.38L184.39 241.249H219.097L225.246 244.605L220.577 245.599C216.185 246.535 211.709 247.005 207.218 247.005H188.63L190.727 249.85C191.255 250.566 190.743 251.58 189.854 251.58H50.9574C50.0685 251.58 49.5561 250.566 50.0842 249.855V249.85Z" fill="#FFF1EA" />
  <path d="M400.125 80.3348C393.051 51.0864 356.665 41.1521 335.788 62.8192C335.516 63.1016 335.239 63.3891 334.967 63.6819C307.669 92.9461 243.206 115.523 216.185 142.602C189.164 169.68 173.054 241.165 251.43 251.653C329.806 262.142 389.061 250.561 397.448 223.053C404.773 199.039 416.234 146.962 400.125 80.3348Z" fill="#F6D5C6" />
  <path d="M269.636 84.5386L266.807 90.5253C266.807 90.5253 284.951 111.471 285.782 110.755C286.613 110.038 284.956 84.0105 284.956 84.0105L269.641 84.5334L269.636 84.5386Z" fill="#F4BC9B" />
  <path d="M279.895 103.827L235.572 58.7776L224.399 67.0073L257.574 111.23C261.778 116.354 269.296 117.201 274.535 113.144L279.889 103.832L279.895 103.827Z" fill="#F4BC9B" />
  <path d="M277.39 92.8939L269.092 87.9529L270.347 89.4953C272.491 92.1305 273.411 95.55 272.878 98.9015L271.607 106.87L257.584 111.23C261.788 116.354 269.307 117.201 274.546 113.144C280.104 107.586 283.246 98.1433 277.395 92.8991L277.39 92.8939Z" fill="#EAA484" />
  <path d="M290.305 123.998L245.323 129.687C242.411 130.053 239.609 131.182 237.402 133.117C234.809 135.391 232.383 139.104 233.062 144.866C234.422 156.389 239.996 185.502 239.996 185.502L310.246 130.011L290.305 124.004V123.998Z" fill="#051626" />
  <path d="M233.476 222.081L215.881 216.92L206.266 228.235C204.53 230.279 202.12 231.618 199.48 232.078C194.507 232.946 190.884 234.169 188.578 235.121C186.706 235.895 185.383 237.589 185.049 239.586L184.813 240.987C184.693 241.703 185.247 242.357 185.974 242.357H219.097C221.957 242.357 224.279 240.041 224.279 237.176V235.053C224.279 233.014 225.058 231.053 226.454 229.563L233.476 222.081Z" fill="#F4BC9B" />
  <path d="M230.244 225.458L227.107 228.862L207.605 226.656L210.972 222.577L230.244 225.458Z" fill="#EAA484" />
  <path d="M220.524 236.339C220.524 236.339 204.661 235.816 200.076 235.105C197.263 234.671 195.982 233.657 195.406 232.94C192.479 233.657 190.199 234.457 188.578 235.131C186.706 235.905 185.383 237.599 185.049 239.596L184.813 240.998C184.693 241.714 185.247 242.367 185.974 242.367H219.097C221.957 242.367 224.279 240.051 224.279 237.186V235.063C223.311 236.794 220.524 236.349 220.524 236.349V236.339Z" fill="#081D46" />
  <path d="M339.474 117.641C339.474 117.641 343.688 122.644 346.888 129.635C353.486 144.055 342.543 160.384 326.69 159.845L273.955 163.176L231.74 227.121L207.26 225.62L243.154 146.356C248.905 138.361 257.516 132.897 267.194 131.094L339.469 117.641H339.474Z" fill="#081D46" />
  <path d="M290.399 127.115C290.399 127.115 297.551 127.115 305.232 136.918C312.913 146.722 345.497 148.839 345.497 148.839C345.497 148.839 352.943 140.625 345.643 127.115H290.393H290.399Z" fill="#030E15" />
  <path d="M268.052 8.85015C265.38 8.4371 262.614 9.06975 260.491 10.7481C259.027 11.9036 257.71 13.6395 257.255 16.2329C256.272 21.8013 257.401 36.8752 257.877 42.522C257.992 43.9128 258.646 45.2042 259.702 46.1245C260.742 47.0342 262.097 47.51 263.477 47.4525L271.084 47.1336L273.118 56.8953L286.943 39.411V11.7572L268.057 8.85015H268.052Z" fill="#F4BC9B" />
  <path d="M276.621 25.8848C276.606 25.8011 276.6 25.7122 276.621 25.6181C276.695 25.1371 277.129 24.7711 277.615 24.7972C278.106 24.8286 278.498 25.2364 278.498 25.7384C278.498 26.0312 278.362 26.2874 278.148 26.4547C277.96 26.6011 277.84 26.805 277.814 27.0403C277.808 27.103 277.793 27.171 277.761 27.2389C277.646 27.5213 277.38 27.7304 277.076 27.7409C276.648 27.7513 276.292 27.4063 276.292 26.9775C276.292 26.805 276.349 26.6481 276.449 26.5226C276.59 26.3396 276.674 26.1148 276.632 25.8848H276.621Z" fill="#EAA484" />
  <path d="M260.072 32.6732L259.652 32.957L260.456 34.1486L260.877 33.8648L260.072 32.6732Z" fill="#EAA484" />
  <path d="M261.42 32.6765L261 32.9603L261.804 34.1519L262.225 33.8681L261.42 32.6765Z" fill="#EAA484" />
  <path d="M262.769 32.6774L262.349 32.9612L263.153 34.1528L263.574 33.869L262.769 32.6774Z" fill="#EAA484" />
  <path d="M278.221 35.3433L277.484 41.7953C277.327 43.1861 276.621 44.4618 275.523 45.335L271.388 48.6342L272.554 54.2288L279.889 44.3625L278.216 35.3433H278.221Z" fill="#EAA484" />
  <path d="M264.789 16.8237L264.643 16.9701C263.728 17.8851 263.419 19.2707 263.921 20.4628C264.617 22.115 266.154 24.1698 269.511 24.6613C270.98 24.8757 272.041 26.209 271.958 27.6886C271.942 27.9187 271.921 28.1644 271.89 28.4311H274.331C274.331 28.4311 275.644 26.1305 275.618 23.5947C275.612 22.9882 275.994 22.4235 276.58 22.2666C277.521 22.0157 278.87 22.1255 279.617 24.3633C280.302 26.4129 279.581 27.6991 278.817 28.4311C278.221 29.001 278.127 29.916 278.64 30.5643L281.04 33.5655C281.975 34.7315 283.194 35.636 284.585 36.185L286.937 37.1209L289.573 37.7902L289.515 37.1837C289.431 36.3053 289.661 35.4321 290.158 34.7054C291.596 32.5826 294.466 27.3697 293.855 20.3007C293.253 13.3572 291.078 8.88157 288.501 6.36664C287.162 5.06473 285.259 4.53142 283.424 4.89742C282.347 5.11179 281.243 4.67782 280.6 3.78374L280.559 3.72622C279.889 2.79031 278.964 2.08446 277.887 1.68186C274.896 0.568179 268.496 -1.19907 262.536 1.18515L257.119 4.4373C256.847 4.59939 256.884 5.00199 257.176 5.11179C257.579 5.26341 258.071 5.4621 258.468 5.66078C258.468 5.66078 254.4 6.87903 253.59 11.3547C252.774 15.8303 257.098 17.3257 257.098 17.3257C257.098 17.3257 258.85 14.1729 264.172 14.9676C265.061 15.0983 265.422 16.1963 264.789 16.829V16.8237Z" fill="#081D33" />
  <path d="M265.798 14.7376C265.798 14.7376 276.925 8.88158 282.875 7.78882C282.875 7.78882 276.444 7.85679 265.798 14.7376Z" fill="#0E2B45" />
  <path d="M256.031 33.5132C256.031 34.5223 256.852 35.3432 257.861 35.3432C258.871 35.3432 259.691 34.5223 259.691 33.5132C259.691 32.5041 258.871 31.6832 257.861 31.6832C256.852 31.6832 256.031 32.5041 256.031 33.5132Z" fill="#F4BC9B" />
  <path d="M257.291 36.2008C257.323 35.3224 258.138 34.6792 259.001 34.857C260.46 35.1603 262.447 35.657 262.949 36.1537C263.032 36.2374 263.111 36.321 263.194 36.4099C264.099 37.3929 265.584 37.5863 266.729 36.8961L267.362 36.5145C269.474 35.2492 270.954 33.1473 271.435 30.7317L271.895 28.4259H274.337C274.337 28.4259 273.076 36.4883 272.344 40.713C272.067 42.3182 272.125 43.9651 272.517 45.5442C272.642 46.0409 272.569 46.5637 272.318 47.0082C271.727 48.0486 270.671 48.7388 269.479 48.8381C266.865 49.063 262.248 49.2407 259.911 47.9545C259.451 47.7036 259.101 47.3166 258.855 46.8513C258.201 45.6226 257.072 42.543 257.297 36.1903L257.291 36.2008Z" fill="#081D33" />
  <path d="M259.467 29.4507C259.767 29.4507 260.01 29.013 260.01 28.473C260.01 27.933 259.767 27.4952 259.467 27.4952C259.166 27.4952 258.923 27.933 258.923 28.473C258.923 29.013 259.166 29.4507 259.467 29.4507Z" fill="#081D33" />
  <path d="M258.452 25.132L258.504 25.362C258.552 25.5764 258.729 25.7437 258.954 25.7751L260.172 25.9528C260.465 25.9947 260.737 26.1045 260.978 26.277L261.574 26.7058L261.213 26.1568C260.925 25.7176 260.465 25.4248 259.948 25.3516L258.452 25.1372V25.132Z" fill="#081D33" />
  <path d="M293.918 38.2556L286.901 36.4674C285.714 36.1642 284.464 36.5981 283.722 37.5707L271.513 53.4864L271.931 60.9109L272.402 69.2609L267.832 87.2052L288.543 99.5289L290.132 127.674C290.132 127.674 300.73 125.834 307.208 133.379C313.687 140.923 343.631 135.507 349.941 131.894L352.671 130.806C352.671 130.806 344.42 100.088 340.697 91.9266C336.98 83.7596 322.507 54.5321 313.713 47.1128C304.918 39.6987 293.918 38.2556 293.918 38.2556Z" fill="#EC6625" />
  <path d="M299.219 94.2637H300.396L301.232 79.425V113.499C301.232 119.899 296.631 125.447 290.31 126.43C290.231 126.44 290.148 126.456 290.064 126.466L290.404 105.772L299.219 94.2637Z" fill="#D54D14" />
  <path d="M275.523 91.158L272.47 112.47C271.471 119.444 276.527 125.828 283.549 126.451C290.2 127.041 296.103 122.21 296.845 115.575L299.224 94.2637L275.529 91.158H275.523Z" fill="#F4BC9B" />
  <path d="M285.808 104.642L239.42 118.456L239.745 130.639L287.852 125.949L285.808 104.642Z" fill="#F4BC9B" />
  <path d="M228.718 121.771C228.718 121.771 228.655 119.267 231.719 119.486C234.777 119.706 232.602 125.614 228.221 126.017L227.865 129.008C227.865 129.008 229.115 129.149 230.025 128.459C230.929 127.763 234.976 124.579 234.506 120.537C234.03 116.501 228.529 117.735 228.529 117.735L228.728 121.771H228.718Z" fill="#081D46" />
  <path d="M214.266 115.743L214.553 124.809C214.585 125.792 214.684 126.775 214.888 127.737C215.808 132.129 218.03 133.75 218.804 134.199C218.966 134.294 219.149 134.341 219.338 134.341L224.315 134.356C224.503 134.356 224.686 134.309 224.848 134.22C225.628 133.781 227.86 132.166 228.806 127.784C229.016 126.822 229.12 125.839 229.157 124.856L229.502 115.795L214.261 115.748L214.266 115.743Z" fill="#081D46" />
  <path d="M227.86 115.743C227.86 115.743 229.11 111.675 225.69 110.305C222.271 108.935 229.643 108.412 227.86 104.219C226.077 100.026 222.428 98.5826 225.69 95.9578C228.958 93.3383 223.379 91.3672 223.086 94.6455C222.794 97.9238 225.659 100.935 225.079 102.771C224.498 104.606 216.634 104.083 219.254 108.668C221.873 113.259 218.632 112.998 217.894 115.748L227.855 115.737L227.86 115.743Z" fill="#FFF1EA" />
  <path d="M224.739 121.013L226.334 121.018C226.637 121.019 226.882 121.265 226.881 121.568L226.872 124.449L224.179 124.441L224.188 121.56C224.189 121.257 224.436 121.012 224.739 121.013Z" fill="#EC6625" />
  <path d="M225.675 121.505H225.403L225.418 115.92C225.418 115.732 225.267 115.581 225.084 115.581C224.901 115.581 224.739 115.732 224.739 115.915H224.467C224.467 115.581 224.739 115.309 225.073 115.309C225.413 115.309 225.685 115.581 225.685 115.915L225.669 121.499L225.675 121.505Z" fill="#EC6625" />
  <path d="M273.066 109.939C273.066 109.939 280.815 105.223 285.337 111.288C285.337 111.288 281.787 108.135 273.066 109.939Z" fill="#EAA484" />
  <path d="M251.226 114.911C250.688 115.089 237.46 117.479 237.46 117.479L235.515 115.727C235.274 115.507 235.007 115.319 234.725 115.162L232.221 113.777C231.473 113.364 230.542 113.85 230.464 114.702C230.391 115.507 231.348 117.792 232.822 118.754L229.873 122.027L231.196 129.232C231.196 129.232 232.696 129.875 237.815 130.445C239.049 130.581 240.294 130.586 241.527 130.466L248.23 129.813L251.226 114.911Z" fill="#F4BC9B" />
  <path d="M229.069 124.649L233.58 124.148C234.028 124.099 234.35 123.696 234.301 123.248L234.132 121.725C234.082 121.277 233.679 120.955 233.231 121.004L228.72 121.505C228.273 121.554 227.95 121.958 228 122.405L228.169 123.928C228.218 124.376 228.621 124.698 229.069 124.649Z" fill="#F4BC9B" />
  <path d="M229.529 127.1L233.671 126.64C234.101 126.592 234.412 126.205 234.364 125.774L234.188 124.189C234.14 123.759 233.753 123.448 233.322 123.496L229.18 123.956C228.75 124.003 228.439 124.391 228.487 124.822L228.663 126.407C228.711 126.837 229.099 127.147 229.529 127.1Z" fill="#F4BC9B" />
  <path d="M230.178 129.334L233.805 128.932C234.181 128.89 234.452 128.552 234.41 128.176L234.256 126.783C234.214 126.407 233.875 126.136 233.499 126.178L229.872 126.58C229.496 126.622 229.225 126.961 229.267 127.337L229.421 128.729C229.463 129.105 229.802 129.376 230.178 129.334Z" fill="#F4BC9B" />
  <path d="M229.169 122.2L232.942 121.782C233.355 121.736 233.653 121.364 233.607 120.951L233.424 119.303C233.378 118.89 233.006 118.592 232.593 118.638L228.82 119.056C228.407 119.102 228.109 119.474 228.155 119.888L228.338 121.535C228.383 121.948 228.756 122.246 229.169 122.2Z" fill="#F4BC9B" />
  <path d="M284.951 42.8096L273.443 59.5618C273.443 59.5618 280.031 57.0469 284.951 42.8096Z" fill="#D54D14" />
  <path d="M243.52 66.8557L236.21 57.6273C234.485 55.2797 231.954 53.6536 229.099 53.0576L223.384 51.8655C222.537 51.6877 221.795 52.4772 222.046 53.3086C222.109 53.5177 222.213 53.7425 222.375 53.983L225.612 55.583C226.893 56.2156 227.891 57.3032 228.414 58.626H221.392L216.18 56.8901L228.44 71.9797C228.44 71.9797 244.795 82.0499 243.514 66.8505L243.52 66.8557Z" fill="#F4BC9B" />
  <path d="M228.237 58.7776C228.237 58.7776 228.42 64.3512 233.068 65.7472C233.068 65.7472 226.098 66.2126 228.237 58.7776Z" fill="#EAA484" />
  <path d="M232.379 70.5474L233.599 69.5043C233.957 69.1984 233.999 68.6604 233.693 68.3027L216.303 47.9635C215.998 47.6058 215.46 47.5637 215.102 47.8696L213.882 48.9127C213.524 49.2186 213.482 49.7566 213.788 50.1143L231.178 70.4534C231.483 70.8112 232.021 70.8533 232.379 70.5474Z" fill="#EC6625" />
  <path d="M214.491 48.3781C214.721 48.1794 215.008 48.0853 215.317 48.0696C214.674 48.6813 214.757 49.863 215.521 50.7571L231.18 69.0726C231.703 69.6844 232.409 69.9981 233.031 69.9667C233.015 69.9824 233.005 69.9981 232.989 70.0138C232.294 70.6098 231.097 70.3484 230.312 69.4282L214.653 51.1126C213.869 50.1976 213.795 48.9689 214.491 48.3781Z" fill="#081D33" />
  <path d="M220.389 54.7278L220.575 54.5681C220.628 54.5231 220.634 54.4439 220.589 54.3912L218.792 52.2889C218.747 52.2363 218.668 52.2301 218.615 52.2751L218.428 52.4348C218.375 52.4798 218.369 52.559 218.414 52.6117L220.212 54.714C220.257 54.7667 220.336 54.7728 220.389 54.7278Z" fill="#FCF1EB" />
  <path d="M222.731 57.4668L222.918 57.3071C222.97 57.2621 222.976 57.1829 222.931 57.1302L221.134 55.0279C221.089 54.9753 221.01 54.9691 220.957 55.0141L220.77 55.1738C220.718 55.2188 220.711 55.298 220.757 55.3507L222.554 57.453C222.599 57.5057 222.678 57.5119 222.731 57.4668Z" fill="#FCF1EB" />
  <path d="M219.664 56.9777L219.465 57.1475C219.418 57.1883 219.344 57.1826 219.303 57.1349L215.63 52.8389C215.59 52.7912 215.595 52.7175 215.643 52.6768L215.842 52.5069L219.664 56.9777Z" fill="#081D33" />
  <path d="M216.566 57.52L218.498 57.6142C219.063 57.6417 219.544 57.2058 219.572 56.6405L219.731 53.3713C219.758 52.806 219.322 52.3254 218.757 52.2978L216.825 52.2037C216.26 52.1761 215.779 52.6121 215.751 53.1774L215.592 56.4466C215.565 57.0119 216.001 57.4925 216.566 57.52Z" fill="#F4BC9B" />
  <path d="M218.499 59.8298L220.408 60.1434C220.966 60.2352 221.493 59.8568 221.585 59.2983L222.116 56.0686C222.208 55.5101 221.829 54.9829 221.271 54.8912L219.362 54.5776C218.803 54.4858 218.276 54.8642 218.184 55.4226L217.654 58.6524C217.562 59.2109 217.94 59.738 218.499 59.8298Z" fill="#F4BC9B" />
  <path d="M221.412 62.632L223.321 62.9457C223.88 63.0374 224.407 62.6591 224.499 62.1006L225.029 58.8708C225.121 58.3123 224.743 57.7852 224.184 57.6934L222.275 57.3798C221.717 57.288 221.19 57.6664 221.098 58.2249L220.567 61.4547C220.476 62.0132 220.854 62.5403 221.412 62.632Z" fill="#F4BC9B" />
  <path d="M223.83 65.2011L225.584 65.4893C226.097 65.5735 226.581 65.2261 226.665 64.7132L227.153 61.7465C227.237 61.2336 226.89 60.7495 226.377 60.6653L224.623 60.377C224.11 60.2928 223.626 60.6403 223.541 61.1532L223.054 64.1198C222.97 64.6327 223.317 65.1168 223.83 65.2011Z" fill="#F4BC9B" />
  <path d="M275.524 91.9057L272.543 66.8557L272.418 90.0077L275.524 91.9057Z" fill="#D54D14" />
  <path d="M276.25 65.1407L275.523 91.9057C275.523 91.9057 274.452 74.5417 276.25 65.1407Z" fill="#D54D14" />
  <path d="M261.725 136.385C261.725 136.385 255.216 134.419 252.267 140.709C252.267 140.709 256.031 136.793 261.725 136.385Z" fill="#081D33" />
  <path d="M299.219 51.1857C299.219 51.1857 303.198 59.8912 298.085 71.9848C298.085 71.9848 301.143 64.1054 299.219 51.1857Z" fill="#D54D14" />
  <path d="M382.709 71.5039C382.709 71.5039 349.408 114.54 320.442 123.894C291.471 133.248 256.471 150.058 253.496 213.281L302.09 235.105H334.904L375.2 205.867C375.2 205.867 414.174 120.668 382.709 71.5091V71.5039Z" fill="#F6D5C6" />
  <path d="M378.05 155.098C378.05 155.098 385.563 220.345 299.219 251.021C299.219 251.021 367.436 227.006 378.05 155.098Z" fill="#F4C9B8" />
  <path d="M344.227 65.1407C344.227 65.1407 348.943 75.6031 348.859 91.1632C348.859 91.1632 344.603 73.8881 344.227 65.1407Z" fill="#F4C9B8" />
  <path d="M356.21 87.2419C356.21 87.2419 374.552 68.4975 385.736 76.7795C385.736 76.7795 373.7 75.2633 356.21 87.2419Z" fill="#F4C9B8" />
  <path d="M147.644 159.354L151.215 240.172H146.19L134.504 160.598L147.644 159.354Z" fill="#EC6625" />
  <path d="M151.387 244.03C151.44 245.254 150.53 246.305 149.312 246.42C148.093 246.535 147.001 245.677 146.823 244.47L146.19 240.172H151.215L151.387 244.03Z" fill="#081D46" />
  <path d="M74.8257 240.172L74.193 244.47C74.0152 245.677 72.9225 246.535 71.7042 246.42C70.486 246.305 69.571 245.254 69.6285 244.03L69.801 240.172H74.8257Z" fill="#081D46" />
  <path d="M73.3774 159.354L86.5115 160.598L74.8257 240.172H69.8011L73.3774 159.354Z" fill="#EC6625" />
  <path d="M147.696 162.224L148.062 168.839C148.062 168.839 135.968 170.574 135.885 169.999C135.801 169.424 134.504 162.224 134.504 162.224H147.696Z" fill="#D54D14" />
  <path d="M86.5115 162.256L85.3298 168.65H72.9643V162.224L86.5115 162.256Z" fill="#D54D14" />
  <path d="M57.7179 163.668H163.298C164.173 163.668 164.882 162.958 164.882 162.083V158.387C164.882 157.512 164.173 156.802 163.298 156.802H57.7179C56.8429 156.802 56.1336 157.512 56.1336 158.387V162.083C56.1336 162.958 56.8429 163.668 57.7179 163.668Z" fill="#EC6625" />
  <path d="M98.5424 144.317L105.543 137.812C105.543 137.812 103.415 132.683 101.042 131.684C101.042 131.684 102.04 127.434 101.042 126.184C100.043 124.934 95.2902 122.932 95.2902 122.932L94.6628 127.559C94.6628 127.559 92.038 126.56 91.1597 126.811C91.1597 126.811 90.6577 133.687 91.1597 135.564C91.1597 135.564 87.6565 134.565 86.9088 135.188C86.9088 135.188 88.7859 140.437 89.7845 141.315C90.7832 142.194 95.7869 144.317 95.7869 144.317H98.5371H98.5424Z" fill="#FFF1EA" />
  <path d="M100.54 132.814L97.5385 142.089C97.5385 142.089 98.6626 135.062 100.54 132.814Z" fill="#F8DBD0" />
  <path d="M95.0393 128.312L94.1661 140.939C94.1661 140.939 93.9151 130.937 95.0393 128.312Z" fill="#F8DBD0" />
  <path d="M81.2987 155.124H112.016C112.655 155.124 113.172 154.607 113.172 153.969V143.851C113.172 143.213 112.655 142.696 112.016 142.696H81.2987C80.6605 142.696 80.1432 143.213 80.1432 143.851V153.969C80.1432 154.607 80.6605 155.124 81.2987 155.124Z" fill="#EC6625" />
  <path d="M119.53 134.382V154.559C119.53 155.349 120.168 155.987 120.957 155.987H131.482C132.272 155.987 132.91 155.349 132.91 154.559V134.382H119.53ZM120.408 134.665H132.251V153.461C132.251 154.413 131.477 155.187 130.525 155.187H122.139C121.187 155.187 120.413 154.413 120.413 153.461V134.665H120.408Z" fill="#FFF1EA" />
  <path d="M130.719 154.329H121.94C121.511 154.329 121.166 153.984 121.166 153.556V142.675H131.493V153.556C131.493 153.984 131.148 154.329 130.719 154.329Z" fill="#FFF1EA" />
  <path d="M123.979 152.055C124.106 152.055 124.209 151.952 124.209 151.825C124.209 151.698 124.106 151.595 123.979 151.595C123.852 151.595 123.749 151.698 123.749 151.825C123.749 151.952 123.852 152.055 123.979 152.055Z" fill="#FDF7F4" />
  <path d="M125.548 152.055C125.675 152.055 125.778 151.952 125.778 151.825C125.778 151.698 125.675 151.595 125.548 151.595C125.421 151.595 125.318 151.698 125.318 151.825C125.318 151.952 125.421 152.055 125.548 152.055Z" fill="#FDF7F4" />
  <path d="M124.387 148.96C124.615 148.96 124.8 148.775 124.8 148.547C124.8 148.318 124.615 148.134 124.387 148.134C124.159 148.134 123.974 148.318 123.974 148.547C123.974 148.775 124.159 148.96 124.387 148.96Z" fill="#FDF7F4" />
  <path d="M118.704 134.377H133.725C133.786 134.377 133.835 134.328 133.835 134.268V132.134C133.835 132.074 133.786 132.024 133.725 132.024H118.704C118.643 132.024 118.594 132.074 118.594 132.134V134.268C118.594 134.328 118.643 134.377 118.704 134.377Z" fill="#081D46" />
  <path d="M262.949 36.4831C262.991 36.4831 263.032 36.4779 263.069 36.4622C269.364 33.9734 275.267 24.1803 275.518 23.762C275.612 23.6052 275.56 23.4013 275.403 23.3124C275.246 23.2183 275.042 23.2705 274.954 23.4274C274.896 23.5267 268.915 33.4401 262.829 35.8504C262.661 35.9184 262.578 36.1066 262.646 36.2792C262.698 36.4099 262.823 36.4883 262.954 36.4883L262.949 36.4831Z" fill="#FFF1EA" />
  <path d="M267.137 42.6632C267.168 42.6632 267.2 42.6632 267.231 42.6475C272.742 40.9953 278.849 29.7173 279.105 29.2415C279.189 29.0794 279.131 28.8808 278.969 28.7971C278.807 28.7082 278.608 28.771 278.525 28.933C278.462 29.0481 272.292 40.4463 267.043 42.0201C266.87 42.0724 266.771 42.2554 266.823 42.4331C266.865 42.5743 266.996 42.6684 267.137 42.6684V42.6632Z" fill="#FFF1EA" />
  <path d="M257.067 30.4493L263.953 34.8779C264.894 35.4844 265.647 36.3471 266.112 37.3615L267.932 41.3195C268.313 42.1456 268.203 43.1181 267.654 43.8396L263.78 48.9166C263.78 48.9166 259.482 49.1989 257.867 46.4748L253.924 38.8202C253.276 37.5654 253.36 36.0543 254.139 34.8779L257.072 30.4546L257.067 30.4493Z" fill="#FFF1EA" />
  <path d="M261.004 37.8373C261.004 37.8373 258.034 40.2738 255.597 41.2515L261.004 37.8373Z" fill="#F8DBD0" />
  <path d="M262.421 40.1953C262.421 40.1953 259.263 42.7468 257.014 43.6096L262.421 40.1953Z" fill="#F8DBD0" />
  <path d="M150.985 58.1135C151.23 58.0978 151.445 58.2913 151.455 58.537V58.605L152.741 58.537C152.898 57.5227 153.259 56.5763 153.798 55.7502L151.67 54.4013L151.633 54.4588C151.502 54.6679 151.225 54.7306 151.011 54.5999C150.796 54.4692 150.739 54.1869 150.87 53.9777L151.549 52.9059C151.68 52.6967 151.962 52.634 152.172 52.7647C152.381 52.8954 152.443 53.1725 152.313 53.3869L152.276 53.4444L154.498 54.8509C155.628 53.6065 157.186 52.7595 158.942 52.5556V49.476H158.843C158.482 49.476 158.19 49.1832 158.19 48.8224C158.19 48.4616 158.482 48.1688 158.843 48.1688H160.689C161.05 48.1688 161.342 48.4616 161.342 48.8224C161.342 49.1832 161.05 49.476 160.689 49.476H160.589V52.5556C161.672 52.6811 162.681 53.0523 163.559 53.6065L164.537 52.0902L164.48 52.0536C164.27 51.9177 164.213 51.6406 164.344 51.4314C164.474 51.2223 164.757 51.1648 164.966 51.2955L166.032 51.9804C166.242 52.1164 166.299 52.3935 166.168 52.6026C166.032 52.8118 165.755 52.8693 165.546 52.7386L165.489 52.702L164.469 54.2862C165.358 55.0757 166.048 56.0796 166.456 57.2194L167.957 56.8116L167.941 56.7436C167.878 56.5031 168.019 56.2574 168.255 56.1946C168.495 56.1319 168.741 56.2731 168.809 56.5084L169.143 57.7318C169.206 57.9723 169.065 58.2181 168.83 58.2861C168.589 58.3488 168.343 58.2076 168.275 57.9723L168.26 57.9044L166.759 58.3122C166.838 58.7357 166.885 59.1645 166.885 59.6089C166.885 60.3147 166.78 60.9944 166.587 61.6376L167.261 61.8833L167.282 61.8206C167.366 61.5853 167.622 61.465 167.857 61.5487C168.092 61.6323 168.213 61.8885 168.129 62.1238L167.695 63.3159C167.611 63.5512 167.355 63.6715 167.12 63.5878C166.885 63.5042 166.764 63.2479 166.848 63.0127L166.874 62.9499L166.174 62.6937C165.896 63.2636 165.551 63.7917 165.138 64.2675L166.984 66.2701L167.057 66.2021C167.324 65.9563 167.737 65.972 167.983 66.2387C168.228 66.5053 168.213 66.9184 167.946 67.1641L166.587 68.4138C166.32 68.6595 165.907 68.6438 165.661 68.3772C165.415 68.1105 165.431 67.6974 165.698 67.4517L165.771 67.3837L163.92 65.376C162.754 66.2178 161.321 66.7197 159.774 66.7197C159.633 66.7197 159.497 66.7092 159.361 66.6988L159.277 68.5968H159.345C159.591 68.6124 159.784 68.8216 159.774 69.0673C159.763 69.3131 159.554 69.5065 159.303 69.4961L158.038 69.4385C157.792 69.4281 157.599 69.219 157.609 68.968C157.62 68.717 157.829 68.5288 158.08 68.5392H158.148L158.237 66.5419C156.715 66.2073 155.382 65.3864 154.399 64.2466L153.641 64.8008L153.688 64.8688C153.866 65.1093 153.813 65.4439 153.573 65.6217C153.332 65.7995 152.998 65.7472 152.82 65.5067L151.921 64.278C151.743 64.0375 151.795 63.7028 152.036 63.5251C152.276 63.3473 152.611 63.3996 152.788 63.6401L152.836 63.7081L153.609 63.1434C153.019 62.1186 152.679 60.9369 152.663 59.6716L151.523 59.7344V59.8023C151.539 60.0481 151.351 60.2625 151.1 60.2729C150.854 60.2886 150.64 60.0951 150.629 59.8494L150.561 58.5841C150.545 58.3383 150.739 58.124 150.985 58.1135Z" fill="#F8DBD0" />
  <path d="M163.01 57.1253C163.498 57.1253 163.894 56.7297 163.894 56.2417C163.894 55.7536 163.498 55.358 163.01 55.358C162.522 55.358 162.127 55.7536 162.127 56.2417C162.127 56.7297 162.522 57.1253 163.01 57.1253Z" fill="#FCF1EB" />
  <path d="M160.318 64.2517C160.806 64.2517 161.201 63.8561 161.201 63.3681C161.201 62.8801 160.806 62.4845 160.318 62.4845C159.83 62.4845 159.434 62.8801 159.434 63.3681C159.434 63.8561 159.83 64.2517 160.318 64.2517Z" fill="#FCF1EB" />
  <path d="M156.161 58.5475C156.961 58.5475 157.609 57.8991 157.609 57.0992C157.609 56.2993 156.961 55.6509 156.161 55.6509C155.361 55.6509 154.713 56.2993 154.713 57.0992C154.713 57.8991 155.361 58.5475 156.161 58.5475Z" fill="#FCF1EB" />
  <path d="M85.3821 11.3912C85.6278 11.3756 85.8422 11.569 85.8527 11.8148V11.8827L87.1389 11.8148C87.2958 10.8004 87.6565 9.85406 88.1951 9.02795L86.067 7.67898L86.0304 7.73649C85.8997 7.94564 85.6226 8.00838 85.4082 7.87767C85.1939 7.74695 85.1364 7.46461 85.2671 7.25547L85.9468 6.18362C86.0775 5.97447 86.3598 5.91173 86.569 6.04245C86.7781 6.17316 86.8409 6.45027 86.7102 6.66464L86.6736 6.72216L88.8957 8.12864C90.0251 6.88424 91.5832 6.03722 93.34 5.8333V2.75892H93.2406C92.8798 2.75892 92.587 2.46612 92.587 2.10535C92.587 1.74458 92.8798 1.45178 93.2406 1.45178H95.0863C95.4471 1.45178 95.7399 1.74458 95.7399 2.10535C95.7399 2.46612 95.4471 2.75892 95.0863 2.75892H94.9869V5.83853C96.0692 5.96402 97.0784 6.33524 97.9568 6.88947L98.9345 5.37319L98.877 5.33659C98.6678 5.20065 98.6103 4.92354 98.741 4.7144C98.8718 4.50525 99.1541 4.44774 99.3632 4.57845L100.43 5.26339C100.639 5.39933 100.697 5.67645 100.566 5.88559C100.43 6.09473 100.153 6.15225 99.9436 6.02153L99.8861 5.98493L98.8665 7.56918C99.7554 8.35869 100.446 9.36257 100.853 10.5024L102.354 10.0946L102.338 10.0266C102.276 9.78608 102.417 9.54034 102.652 9.4776C102.893 9.41486 103.138 9.55603 103.206 9.79131L103.541 11.0148C103.604 11.2553 103.462 11.501 103.227 11.569C102.987 11.6318 102.741 11.4906 102.673 11.2553L102.657 11.1873L101.157 11.5952C101.235 12.0187 101.282 12.4474 101.282 12.8918C101.282 13.5977 101.178 14.2774 100.984 14.9205L101.659 15.1663L101.679 15.1035C101.763 14.8682 102.019 14.748 102.255 14.8316C102.49 14.9153 102.61 15.1715 102.527 15.4068L102.093 16.5989C102.009 16.8342 101.753 16.9544 101.517 16.8708C101.282 16.7871 101.162 16.5309 101.246 16.2956L101.272 16.2329L100.571 15.9767C100.294 16.5466 99.9488 17.0747 99.5358 17.5505L101.381 19.553L101.455 19.485C101.721 19.2393 102.134 19.255 102.38 19.5216C102.626 19.7883 102.61 20.2013 102.344 20.4471L100.984 21.6967C100.717 21.9425 100.304 21.9268 100.059 21.6601C99.8129 21.3935 99.8286 20.9804 100.095 20.7347L100.168 20.6667L98.3175 18.6589C97.1516 19.5007 95.7189 20.0027 94.1713 20.0027C94.0301 20.0027 93.8942 19.9922 93.7582 19.9817L93.6746 21.8797H93.7425C93.9883 21.8954 94.1817 22.1045 94.1713 22.3503C94.1608 22.596 93.9517 22.7895 93.7007 22.779L92.4354 22.7215C92.1897 22.711 91.9962 22.5019 92.0067 22.2509C92.0171 22 92.2263 21.8117 92.4772 21.8222H92.5452L92.6341 19.8249C91.1126 19.4903 89.7793 18.6694 88.7963 17.5296L88.0382 18.0838L88.0853 18.1518C88.263 18.3923 88.2107 18.7269 87.9702 18.9047C87.7297 19.0824 87.3951 19.0302 87.2173 18.7896L86.318 17.5609C86.1402 17.3204 86.1925 16.9858 86.433 16.808C86.6736 16.6303 87.0082 16.6825 87.186 16.923L87.233 16.991L88.0068 16.4263C87.416 15.4015 87.0761 14.2199 87.0605 12.9546L85.9206 13.0173V13.0853C85.9363 13.331 85.7481 13.5454 85.4971 13.5559C85.2514 13.5716 85.037 13.3781 85.0266 13.1324L84.9586 11.867C84.9429 11.6213 85.1364 11.4069 85.3821 11.3965V11.3912Z" fill="#F8DBD0" />
  <path d="M97.4077 10.3979C97.8957 10.3979 98.2913 10.0023 98.2913 9.51424C98.2913 9.02623 97.8957 8.63062 97.4077 8.63062C96.9197 8.63062 96.5241 9.02623 96.5241 9.51424C96.5241 10.0023 96.9197 10.3979 97.4077 10.3979Z" fill="#FCF1EB" />
  <path d="M94.715 17.5296C95.203 17.5296 95.5986 17.134 95.5986 16.646C95.5986 16.1579 95.203 15.7623 94.715 15.7623C94.227 15.7623 93.8314 16.1579 93.8314 16.646C93.8314 17.134 94.227 17.5296 94.715 17.5296Z" fill="#FCF1EB" />
  <path d="M90.5583 11.8253C91.3582 11.8253 92.0066 11.1769 92.0066 10.377C92.0066 9.57714 91.3582 8.92871 90.5583 8.92871C89.7584 8.92871 89.11 9.57714 89.11 10.377C89.11 11.1769 89.7584 11.8253 90.5583 11.8253Z" fill="#FCF1EB" />
  <path d="M115.844 98.3733C115.969 98.3681 116.079 98.4622 116.084 98.5929V98.6295L116.743 98.5929C116.821 98.0753 117.01 97.589 117.281 97.1707L116.194 96.4806L116.173 96.5119C116.105 96.6165 115.964 96.6531 115.854 96.5851C115.744 96.5172 115.713 96.376 115.781 96.2662L116.126 95.7172C116.194 95.6126 116.335 95.576 116.445 95.644C116.549 95.712 116.586 95.8531 116.518 95.9629L116.497 95.9943L117.632 96.7106C118.207 96.0727 119.002 95.644 119.901 95.5394V93.9656H119.849C119.666 93.9656 119.514 93.814 119.514 93.631C119.514 93.448 119.666 93.2964 119.849 93.2964H120.79C120.973 93.2964 121.124 93.448 121.124 93.631C121.124 93.814 120.973 93.9656 120.79 93.9656H120.738V95.5394C121.292 95.6022 121.804 95.7904 122.254 96.078L122.756 95.3041L122.724 95.2832C122.62 95.2153 122.588 95.0741 122.656 94.9643C122.724 94.8545 122.866 94.8283 122.975 94.8963L123.519 95.2466C123.624 95.3146 123.655 95.4558 123.587 95.5656C123.519 95.6701 123.378 95.7015 123.268 95.6335L123.237 95.6126L122.714 96.4231C123.169 96.8257 123.519 97.338 123.728 97.9236L124.497 97.7145L124.486 97.6779C124.455 97.5577 124.523 97.4269 124.649 97.3956C124.769 97.3642 124.899 97.4322 124.931 97.5576L125.103 98.1851C125.135 98.3053 125.067 98.436 124.941 98.4674C124.821 98.4988 124.69 98.4308 124.659 98.3053L124.649 98.2687L123.88 98.4779C123.922 98.6922 123.943 98.9118 123.943 99.1419C123.943 99.5027 123.89 99.853 123.791 100.177L124.136 100.303L124.147 100.271C124.188 100.151 124.319 100.088 124.439 100.135C124.56 100.177 124.622 100.308 124.575 100.428L124.356 101.04C124.314 101.16 124.183 101.223 124.063 101.176C123.943 101.134 123.88 101.003 123.927 100.883L123.937 100.852L123.577 100.721C123.435 101.014 123.258 101.286 123.049 101.526L123.99 102.551L124.026 102.514C124.162 102.389 124.371 102.399 124.497 102.535C124.622 102.671 124.612 102.88 124.476 103.006L123.781 103.644C123.645 103.769 123.435 103.759 123.31 103.623C123.185 103.487 123.195 103.278 123.331 103.152L123.368 103.116L122.421 102.091C121.825 102.52 121.093 102.776 120.304 102.776C120.23 102.776 120.162 102.771 120.094 102.765L120.053 103.733H120.089C120.215 103.738 120.314 103.848 120.309 103.973C120.304 104.099 120.194 104.198 120.068 104.193L119.42 104.161C119.294 104.156 119.195 104.046 119.2 103.921C119.206 103.795 119.315 103.696 119.441 103.701H119.477L119.525 102.682C118.745 102.509 118.066 102.091 117.564 101.51L117.177 101.793L117.203 101.829C117.292 101.955 117.266 102.122 117.146 102.216C117.025 102.31 116.853 102.279 116.759 102.159L116.299 101.531C116.21 101.411 116.236 101.239 116.356 101.144C116.476 101.05 116.649 101.082 116.743 101.202L116.769 101.239L117.166 100.951C116.863 100.428 116.691 99.8216 116.685 99.1733L116.105 99.2046V99.2412C116.116 99.3667 116.016 99.4765 115.891 99.4818C115.765 99.487 115.655 99.3929 115.65 99.2622L115.614 98.6138C115.608 98.4883 115.702 98.3785 115.833 98.3733H115.844Z" fill="#F8DBD0" />
  <path d="M121.987 97.8662C122.235 97.8662 122.437 97.6649 122.437 97.4166C122.437 97.1682 122.235 96.9669 121.987 96.9669C121.739 96.9669 121.538 97.1682 121.538 97.4166C121.538 97.6649 121.739 97.8662 121.987 97.8662Z" fill="#FCF1EB" />
  <path d="M120.612 101.511C120.86 101.511 121.062 101.309 121.062 101.061C121.062 100.813 120.86 100.611 120.612 100.611C120.364 100.611 120.162 100.813 120.162 101.061C120.162 101.309 120.364 101.511 120.612 101.511Z" fill="#FCF1EB" />
  <path d="M118.489 98.5983C118.899 98.5983 119.232 98.2659 119.232 97.8559C119.232 97.4458 118.899 97.1134 118.489 97.1134C118.079 97.1134 117.747 97.4458 117.747 97.8559C117.747 98.2659 118.079 98.5983 118.489 98.5983Z" fill="#FCF1EB" />
  <path d="M14.8909 181.12C15.1366 181.105 15.351 181.298 15.3615 181.544V181.612L16.6477 181.544C16.8045 180.53 17.1653 179.583 17.7039 178.757L15.5758 177.408L15.5392 177.466C15.4085 177.675 15.1314 177.737 14.917 177.607C14.7027 177.476 14.6452 177.194 14.7759 176.985L15.4556 175.913C15.5863 175.704 15.8686 175.641 16.0778 175.772C16.2869 175.902 16.3497 176.179 16.2189 176.394L16.1823 176.451L18.4045 177.858C19.5338 176.613 21.0919 175.766 22.8487 175.562V172.483H22.7494C22.3886 172.483 22.0958 172.19 22.0958 171.829C22.0958 171.468 22.3886 171.176 22.7494 171.176H24.5951C24.9558 171.176 25.2486 171.468 25.2486 171.829C25.2486 172.19 24.9558 172.483 24.5951 172.483H24.4957V175.562C25.578 175.688 26.5872 176.059 27.4655 176.613L28.4433 175.097L28.3858 175.06C28.1766 174.925 28.1191 174.647 28.2498 174.438C28.3805 174.229 28.6629 174.172 28.872 174.302L29.9386 174.987C30.1478 175.123 30.2053 175.4 30.0746 175.609C29.9386 175.819 29.6615 175.876 29.4524 175.745L29.3949 175.709L28.3753 177.293C29.2642 178.083 29.9543 179.086 30.3622 180.226L31.8628 179.818L31.8471 179.75C31.7843 179.51 31.9255 179.264 32.1608 179.201C32.4013 179.139 32.647 179.28 32.715 179.515L33.0496 180.739C33.1124 180.979 32.9712 181.225 32.7359 181.293C32.4954 181.356 32.2497 181.214 32.1817 180.979L32.166 180.911L30.6654 181.319C30.7438 181.743 30.7909 182.171 30.7909 182.616C30.7909 183.322 30.6863 184.001 30.4929 184.644L31.1674 184.89L31.1883 184.827C31.2719 184.592 31.5281 184.472 31.7634 184.556C31.9987 184.639 32.119 184.895 32.0353 185.131L31.6013 186.323C31.5177 186.558 31.2615 186.678 31.0262 186.595C30.7909 186.511 30.6706 186.255 30.7543 186.019L30.7804 185.957L30.0798 185.701C29.8027 186.27 29.4576 186.799 29.0446 187.274L30.8902 189.277L30.9634 189.209C31.2301 188.963 31.6432 188.979 31.8889 189.246C32.1346 189.512 32.119 189.925 31.8523 190.171L30.4929 191.421C30.2262 191.666 29.8132 191.651 29.5674 191.384C29.3217 191.117 29.3374 190.704 29.604 190.459L29.6772 190.391L27.8263 188.383C26.6604 189.225 25.2277 189.727 23.6801 189.727C23.5389 189.727 23.403 189.716 23.267 189.706L23.1834 191.604H23.2513C23.4971 191.619 23.6905 191.828 23.6801 192.074C23.6696 192.32 23.4605 192.513 23.2095 192.503L21.9442 192.445C21.6985 192.435 21.505 192.226 21.5155 191.975C21.5259 191.724 21.7351 191.536 21.986 191.546H22.054L22.1429 189.549C20.6214 189.214 19.2881 188.393 18.3051 187.253L17.547 187.808L17.5941 187.876C17.7718 188.116 17.7195 188.451 17.479 188.629C17.2385 188.806 16.9039 188.754 16.7261 188.514L15.8268 187.285C15.649 187.044 15.7013 186.71 15.9418 186.532C16.1823 186.354 16.517 186.406 16.6947 186.647L16.7418 186.715L17.5156 186.15C16.9248 185.125 16.5849 183.944 16.5693 182.678L15.4294 182.741V182.809C15.4451 183.055 15.2569 183.269 15.0059 183.28C14.7602 183.295 14.5458 183.102 14.5354 182.856L14.4674 181.591C14.4517 181.345 14.6452 181.131 14.8909 181.12Z" fill="#F8DBD0" />
  <path d="M26.9165 180.127C27.4045 180.127 27.8001 179.731 27.8001 179.243C27.8001 178.755 27.4045 178.36 26.9165 178.36C26.4284 178.36 26.0328 178.755 26.0328 179.243C26.0328 179.731 26.4284 180.127 26.9165 180.127Z" fill="#FCF1EB" />
  <path d="M24.2238 187.259C24.7118 187.259 25.1074 186.863 25.1074 186.375C25.1074 185.887 24.7118 185.491 24.2238 185.491C23.7357 185.491 23.3401 185.887 23.3401 186.375C23.3401 186.863 23.7357 187.259 24.2238 187.259Z" fill="#FCF1EB" />
  <path d="M20.0671 181.554C20.8669 181.554 21.5154 180.906 21.5154 180.106C21.5154 179.306 20.8669 178.658 20.0671 178.658C19.2672 178.658 18.6187 179.306 18.6187 180.106C18.6187 180.906 19.2672 181.554 20.0671 181.554Z" fill="#FCF1EB" />
  <path d="M334.58 11.3912C334.826 11.3756 335.04 11.569 335.051 11.8148V11.8827L336.337 11.8148C336.494 10.8004 336.854 9.85406 337.393 9.02795L335.265 7.67898L335.228 7.73649C335.098 7.94564 334.82 8.00838 334.606 7.87767C334.392 7.74695 334.334 7.46461 334.465 7.25547L335.145 6.18362C335.275 5.97447 335.558 5.91173 335.767 6.04245C335.976 6.17316 336.039 6.45027 335.908 6.66464L335.871 6.72216L338.094 8.12864C339.223 6.88424 340.781 6.03722 342.538 5.8333V2.75892H342.438C342.078 2.75892 341.785 2.46612 341.785 2.10535C341.785 1.74458 342.078 1.45178 342.438 1.45178H344.284C344.645 1.45178 344.938 1.74458 344.938 2.10535C344.938 2.46612 344.645 2.75892 344.284 2.75892H344.185V5.83853C345.267 5.96402 346.276 6.33524 347.155 6.88947L348.132 5.37319L348.075 5.33659C347.866 5.20065 347.808 4.92354 347.939 4.7144C348.07 4.50525 348.352 4.44774 348.561 4.57845L349.628 5.26339C349.837 5.39933 349.894 5.67645 349.764 5.88559C349.628 6.09473 349.351 6.15225 349.141 6.02153L349.084 5.98493L348.064 7.56918C348.953 8.35869 349.643 9.36257 350.051 10.5024L351.552 10.0946L351.536 10.0266C351.473 9.78608 351.615 9.54034 351.85 9.4776C352.09 9.41486 352.336 9.55603 352.404 9.79131L352.739 11.0148C352.801 11.2553 352.66 11.501 352.425 11.569C352.184 11.6318 351.939 11.4906 351.871 11.2553L351.855 11.1873L350.354 11.5952C350.433 12.0187 350.48 12.4474 350.48 12.8918C350.48 13.5977 350.375 14.2774 350.182 14.9205L350.856 15.1663L350.877 15.1035C350.961 14.8682 351.217 14.748 351.452 14.8316C351.688 14.9153 351.808 15.1715 351.724 15.4068L351.29 16.5989C351.207 16.8342 350.951 16.9544 350.715 16.8708C350.48 16.7871 350.36 16.5309 350.443 16.2956L350.469 16.2329L349.769 15.9767C349.492 16.5466 349.147 17.0747 348.734 17.5505L350.579 19.553L350.652 19.485C350.919 19.2393 351.332 19.255 351.578 19.5216C351.824 19.7883 351.808 20.2013 351.541 20.4471L350.182 21.6967C349.915 21.9425 349.502 21.9268 349.256 21.6601C349.011 21.3935 349.026 20.9804 349.293 20.7347L349.366 20.6667L347.515 18.6589C346.349 19.5007 344.917 20.0027 343.369 20.0027C343.228 20.0027 343.092 19.9922 342.956 19.9817L342.872 21.8797H342.94C343.186 21.8954 343.38 22.1045 343.369 22.3503C343.359 22.596 343.15 22.7895 342.899 22.779L341.633 22.7215C341.388 22.711 341.194 22.5019 341.205 22.2509C341.215 22 341.424 21.8117 341.675 21.8222H341.743L341.832 19.8249C340.31 19.4903 338.977 18.6694 337.994 17.5296L337.236 18.0838L337.283 18.1518C337.461 18.3923 337.409 18.7269 337.168 18.9047C336.928 19.0824 336.593 19.0302 336.415 18.7896L335.516 17.5609C335.338 17.3204 335.39 16.9858 335.631 16.808C335.871 16.6303 336.206 16.6825 336.384 16.923L336.431 16.991L337.205 16.4263C336.614 15.4015 336.274 14.2199 336.258 12.9546L335.118 13.0173V13.0853C335.134 13.331 334.946 13.5454 334.695 13.5559C334.449 13.5716 334.235 13.3781 334.224 13.1324L334.156 11.867C334.141 11.6213 334.334 11.4069 334.58 11.3965V11.3912Z" fill="#F8DBD0" />
  <path d="M346.605 10.3979C347.093 10.3979 347.489 10.0023 347.489 9.51424C347.489 9.02623 347.093 8.63062 346.605 8.63062C346.117 8.63062 345.722 9.02623 345.722 9.51424C345.722 10.0023 346.117 10.3979 346.605 10.3979Z" fill="#FCF1EB" />
  <path d="M343.913 17.5296C344.401 17.5296 344.796 17.134 344.796 16.646C344.796 16.1579 344.401 15.7623 343.913 15.7623C343.425 15.7623 343.029 16.1579 343.029 16.646C343.029 17.134 343.425 17.5296 343.913 17.5296Z" fill="#FCF1EB" />
  <path d="M339.761 11.8253C340.561 11.8253 341.21 11.1769 341.21 10.377C341.21 9.57714 340.561 8.92871 339.761 8.92871C338.961 8.92871 338.313 9.57714 338.313 10.377C338.313 11.1769 338.961 11.8253 339.761 11.8253Z" fill="#FCF1EB" />
  <path d="M50.858 99.2413C50.9835 99.2361 51.0881 99.3302 51.0985 99.4557V99.4923L51.7521 99.4557C51.8305 98.9433 52.0135 98.4623 52.2854 98.044L51.2083 97.3643L51.1874 97.3956C51.1195 97.5002 50.9783 97.5316 50.8737 97.4636C50.7691 97.3956 50.7378 97.2545 50.8057 97.1499L51.1508 96.6061C51.2188 96.5016 51.36 96.4702 51.4645 96.5382C51.5691 96.6061 51.6005 96.7473 51.5325 96.8519L51.5116 96.8832L52.6357 97.5943C53.2056 96.9669 53.9952 96.5382 54.884 96.4336V94.8755H54.8317C54.6487 94.8755 54.5023 94.7291 54.5023 94.5461C54.5023 94.3631 54.6487 94.2167 54.8317 94.2167H55.7676C55.9506 94.2167 56.097 94.3631 56.097 94.5461C56.097 94.7291 55.9506 94.8755 55.7676 94.8755H55.7154V96.4336C56.2643 96.4963 56.7715 96.6846 57.2159 96.9669L57.7127 96.1983L57.6813 96.1774C57.5767 96.1094 57.5453 95.9682 57.6133 95.8637C57.6813 95.7591 57.8225 95.7277 57.927 95.7957L58.4656 96.1408C58.5701 96.2088 58.6015 96.3499 58.5335 96.4545C58.4656 96.5591 58.3244 96.5904 58.2198 96.5225L58.1885 96.5016L57.6708 97.3015C58.1205 97.6989 58.4708 98.2061 58.6747 98.7864L59.4328 98.5825L59.4224 98.5511C59.391 98.4309 59.459 98.3054 59.5845 98.274C59.7047 98.2427 59.8302 98.3106 59.8616 98.4361L60.0289 99.0531C60.0603 99.1733 59.9923 99.2988 59.8668 99.3302C59.7466 99.3616 59.6211 99.2936 59.5897 99.1681L59.5792 99.1367L58.8211 99.3407C58.8629 99.555 58.8839 99.7746 58.8839 99.9942C58.8839 100.35 58.8316 100.695 58.7322 101.019L59.0721 101.144L59.0825 101.113C59.1244 100.993 59.2551 100.935 59.3753 100.977C59.4956 101.019 59.5531 101.15 59.5113 101.27L59.2917 101.871C59.2498 101.992 59.1191 102.049 58.9989 102.007C58.8786 101.965 58.8211 101.835 58.8629 101.714L58.8734 101.683L58.5179 101.552C58.3767 101.84 58.2041 102.107 57.995 102.347L58.9309 103.361L58.9675 103.325C59.1034 103.199 59.3126 103.21 59.4328 103.346C59.5583 103.482 59.5479 103.691 59.4119 103.811L58.727 104.444C58.5911 104.569 58.3819 104.559 58.2617 104.423C58.1362 104.287 58.1466 104.078 58.2826 103.957L58.3192 103.921L57.3833 102.907C56.7924 103.33 56.0709 103.586 55.2866 103.586C55.2134 103.586 55.1454 103.581 55.0775 103.576L55.0356 104.533H55.0722C55.1977 104.538 55.2971 104.648 55.2866 104.773C55.2762 104.899 55.1768 104.998 55.0513 104.987L54.4082 104.961C54.2827 104.956 54.1834 104.852 54.1938 104.726C54.2043 104.601 54.3036 104.501 54.4291 104.512H54.4657L54.5128 103.503C53.7442 103.335 53.0697 102.917 52.573 102.342L52.1861 102.624L52.2122 102.656C52.3011 102.776 52.275 102.948 52.1547 103.037C52.0345 103.126 51.8619 103.1 51.773 102.98L51.3181 102.358C51.2293 102.237 51.2554 102.065 51.3757 101.976C51.4959 101.887 51.6685 101.913 51.7573 102.033L51.7835 102.065L52.1756 101.777C51.8776 101.26 51.7051 100.658 51.6998 100.02L51.1247 100.052V100.088C51.1351 100.214 51.0358 100.318 50.9103 100.329C50.7848 100.334 50.6803 100.24 50.6698 100.114L50.6332 99.4714C50.628 99.3459 50.7221 99.2413 50.8476 99.2308L50.858 99.2413Z" fill="#F8DBD0" />
  <path d="M56.9388 98.7445C57.1871 98.7445 57.3884 98.5432 57.3884 98.2949C57.3884 98.0465 57.1871 97.8452 56.9388 97.8452C56.6905 97.8452 56.4891 98.0465 56.4891 98.2949C56.4891 98.5432 56.6905 98.7445 56.9388 98.7445Z" fill="#FCF1EB" />
  <path d="M55.5794 102.347C55.8277 102.347 56.029 102.146 56.029 101.897C56.029 101.649 55.8277 101.448 55.5794 101.448C55.331 101.448 55.1297 101.649 55.1297 101.897C55.1297 102.146 55.331 102.347 55.5794 102.347Z" fill="#FCF1EB" />
  <path d="M53.4775 99.4608C53.8818 99.4608 54.2095 99.1331 54.2095 98.7288C54.2095 98.3246 53.8818 97.9968 53.4775 97.9968C53.0732 97.9968 52.7455 98.3246 52.7455 98.7288C52.7455 99.1331 53.0732 99.4608 53.4775 99.4608Z" fill="#FCF1EB" />
  <path d="M218.909 23.5738C219.034 23.5686 219.139 23.6627 219.149 23.7882V23.8248L219.803 23.7882C219.881 23.2758 220.064 22.7948 220.336 22.3765L219.259 21.6968L219.238 21.7282C219.17 21.8327 219.029 21.8641 218.924 21.7961C218.82 21.7281 218.788 21.587 218.856 21.4824L219.202 20.9386C219.27 20.8341 219.411 20.8027 219.515 20.8707C219.62 20.9386 219.651 21.0798 219.583 21.1844L219.562 21.2158L220.686 21.9268C221.256 21.2994 222.046 20.8707 222.935 20.7661V19.208H222.882C222.699 19.208 222.553 19.0616 222.553 18.8786C222.553 18.6956 222.699 18.5492 222.882 18.5492H223.818C224.001 18.5492 224.148 18.6956 224.148 18.8786C224.148 19.0616 224.001 19.208 223.818 19.208H223.766V20.7661C224.315 20.8288 224.822 21.0171 225.267 21.2994L225.763 20.5308L225.732 20.5099C225.627 20.4419 225.596 20.3008 225.664 20.1962C225.732 20.0916 225.873 20.0602 225.978 20.1282L226.516 20.4733C226.621 20.5413 226.652 20.6824 226.584 20.787C226.516 20.8916 226.375 20.923 226.271 20.855L226.239 20.8341L225.722 21.634C226.171 22.0314 226.522 22.5386 226.725 23.1189L227.484 22.915L227.473 22.8837C227.442 22.7634 227.51 22.6379 227.635 22.6065C227.755 22.5752 227.881 22.6431 227.912 22.7686L228.08 23.3856C228.111 23.5059 228.043 23.6313 227.918 23.6627C227.797 23.6941 227.672 23.6261 227.64 23.5006L227.63 23.4693L226.872 23.6732C226.914 23.8875 226.935 24.1071 226.935 24.3267C226.935 24.6823 226.882 25.0274 226.783 25.3515L227.123 25.477L227.133 25.4456C227.175 25.3254 227.306 25.2679 227.426 25.3097C227.546 25.3515 227.604 25.4822 227.562 25.6025L227.342 26.2038C227.301 26.324 227.17 26.3816 227.05 26.3397C226.929 26.2979 226.872 26.1672 226.914 26.0469L226.924 26.0156L226.569 25.8848C226.427 26.1724 226.255 26.4391 226.046 26.6796L226.982 27.6939L227.018 27.6573C227.154 27.5318 227.363 27.5423 227.484 27.6782C227.609 27.8142 227.599 28.0233 227.463 28.1436L226.778 28.7762C226.642 28.9017 226.433 28.8913 226.312 28.7553C226.187 28.6194 226.197 28.4102 226.333 28.29L226.37 28.2534L225.434 27.239C224.843 27.6625 224.122 27.9187 223.337 27.9187C223.264 27.9187 223.196 27.9135 223.128 27.9083L223.086 28.8651H223.123C223.248 28.8703 223.348 28.9801 223.337 29.1056C223.327 29.2311 223.228 29.3305 223.102 29.32L222.459 29.2939C222.333 29.2886 222.234 29.1841 222.245 29.0586C222.255 28.9331 222.354 28.8337 222.48 28.8442H222.516L222.564 27.8351C221.795 27.6678 221.12 27.2495 220.624 26.6744L220.237 26.9567L220.263 26.9881C220.352 27.1083 220.326 27.2809 220.205 27.3698C220.085 27.4586 219.913 27.4325 219.824 27.3122L219.369 26.69C219.28 26.5698 219.306 26.3972 219.426 26.3084C219.547 26.2195 219.719 26.2456 219.808 26.3659L219.834 26.3972L220.226 26.1097C219.928 25.592 219.756 24.9908 219.751 24.3529L219.175 24.3843V24.4209C219.186 24.5463 219.087 24.6509 218.961 24.6614C218.836 24.6666 218.731 24.5725 218.721 24.447L218.684 23.8039C218.679 23.6784 218.773 23.5738 218.898 23.5634L218.909 23.5738Z" fill="#F8DBD0" />
  <path d="M224.99 23.0772C225.238 23.0772 225.439 22.8758 225.439 22.6275C225.439 22.3792 225.238 22.1779 224.99 22.1779C224.741 22.1779 224.54 22.3792 224.54 22.6275C224.54 22.8758 224.741 23.0772 224.99 23.0772Z" fill="#FCF1EB" />
  <path d="M223.625 26.6797C223.873 26.6797 224.075 26.4784 224.075 26.23C224.075 25.9817 223.873 25.7804 223.625 25.7804C223.377 25.7804 223.175 25.9817 223.175 26.23C223.175 26.4784 223.377 26.6797 223.625 26.6797Z" fill="#FCF1EB" />
  <path d="M221.528 23.7935C221.933 23.7935 222.26 23.4657 222.26 23.0615C222.26 22.6572 221.933 22.3295 221.528 22.3295C221.124 22.3295 220.796 22.6572 220.796 23.0615C220.796 23.4657 221.124 23.7935 221.528 23.7935Z" fill="#FCF1EB" />
  <path d="M175.365 152.091C175.491 152.086 175.595 152.18 175.606 152.306V152.342L176.259 152.306C176.338 151.793 176.521 151.312 176.793 150.894L175.716 150.214L175.695 150.246C175.627 150.35 175.486 150.382 175.381 150.314C175.276 150.246 175.245 150.105 175.313 150L175.658 149.456C175.726 149.352 175.867 149.32 175.972 149.388C176.076 149.456 176.108 149.597 176.04 149.702L176.019 149.733L177.143 150.444C177.713 149.817 178.503 149.388 179.391 149.284V147.726H179.339C179.156 147.726 179.01 147.579 179.01 147.396C179.01 147.213 179.156 147.067 179.339 147.067H180.275C180.458 147.067 180.604 147.213 180.604 147.396C180.604 147.579 180.458 147.726 180.275 147.726H180.223V149.284C180.772 149.346 181.279 149.535 181.723 149.817L182.22 149.048L182.189 149.027C182.084 148.96 182.053 148.818 182.121 148.714C182.189 148.609 182.33 148.578 182.434 148.646L182.973 148.991C183.077 149.059 183.109 149.2 183.041 149.305C182.973 149.409 182.832 149.441 182.727 149.373L182.696 149.352L182.178 150.152C182.628 150.549 182.978 151.056 183.182 151.637L183.94 151.433L183.93 151.401C183.898 151.281 183.966 151.156 184.092 151.124C184.212 151.093 184.338 151.161 184.369 151.286L184.536 151.903C184.568 152.023 184.5 152.149 184.374 152.18C184.254 152.212 184.128 152.144 184.097 152.018L184.087 151.987L183.328 152.191C183.37 152.405 183.391 152.625 183.391 152.844C183.391 153.2 183.339 153.545 183.24 153.869L183.579 153.995L183.59 153.963C183.632 153.843 183.762 153.785 183.883 153.827C184.003 153.869 184.06 154 184.019 154.12L183.799 154.721C183.757 154.842 183.626 154.899 183.506 154.857C183.386 154.815 183.328 154.685 183.37 154.565L183.381 154.533L183.025 154.402C182.884 154.69 182.711 154.957 182.502 155.197L183.438 156.211L183.475 156.175C183.611 156.049 183.82 156.06 183.94 156.196C184.066 156.332 184.055 156.541 183.919 156.661L183.234 157.294C183.098 157.419 182.889 157.409 182.769 157.273C182.644 157.137 182.654 156.928 182.79 156.808L182.827 156.771L181.891 155.757C181.3 156.18 180.578 156.436 179.794 156.436C179.721 156.436 179.653 156.431 179.585 156.426L179.543 157.383H179.58C179.705 157.388 179.804 157.498 179.794 157.623C179.784 157.749 179.684 157.848 179.559 157.838L178.916 157.811C178.79 157.806 178.691 157.702 178.701 157.576C178.712 157.451 178.811 157.351 178.936 157.362H178.973L179.02 156.353C178.252 156.185 177.577 155.767 177.08 155.192L176.693 155.474L176.72 155.506C176.808 155.626 176.782 155.798 176.662 155.887C176.542 155.976 176.369 155.95 176.28 155.83L175.825 155.208C175.737 155.087 175.763 154.915 175.883 154.826C176.003 154.737 176.176 154.763 176.265 154.883L176.291 154.915L176.683 154.627C176.385 154.11 176.212 153.508 176.207 152.87L175.632 152.902V152.938C175.642 153.064 175.543 153.168 175.418 153.179C175.292 153.184 175.188 153.09 175.177 152.965L175.141 152.321C175.135 152.196 175.229 152.091 175.355 152.081L175.365 152.091Z" fill="#F8DBD0" />
  <path d="M181.446 151.595C181.695 151.595 181.896 151.393 181.896 151.145C181.896 150.897 181.695 150.695 181.446 150.695C181.198 150.695 180.997 150.897 180.997 151.145C180.997 151.393 181.198 151.595 181.446 151.595Z" fill="#FCF1EB" />
  <path d="M180.087 155.197C180.335 155.197 180.536 154.996 180.536 154.748C180.536 154.499 180.335 154.298 180.087 154.298C179.838 154.298 179.637 154.499 179.637 154.748C179.637 154.996 179.838 155.197 180.087 155.197Z" fill="#FCF1EB" />
  <path d="M177.985 152.311C178.389 152.311 178.717 151.983 178.717 151.579C178.717 151.175 178.389 150.847 177.985 150.847C177.581 150.847 177.253 151.175 177.253 151.579C177.253 151.983 177.581 152.311 177.985 152.311Z" fill="#FCF1EB" />
  <path d="M267.132 91.1057L271.048 95.4768C271.048 95.4768 270.243 91.9109 267.132 91.1057Z" fill="#EAA484" />
  <path d="M327.846 246.953H320.076C319.752 246.953 319.485 247.214 319.485 247.544V254.325C319.485 255.287 320.264 256.066 321.226 256.066C322.188 256.066 322.967 255.287 322.967 254.325V254.21H324.949V254.252C324.949 255.204 325.686 256.035 326.638 256.066C327.626 256.098 328.431 255.303 328.431 254.325V247.544C328.431 247.22 328.17 246.953 327.84 246.953H327.846Z" fill="#020202" />
  <path d="M325.242 244.166H322.685V249.912H325.242V244.166Z" fill="#020202" />
  <path d="M320.965 245.379H320.891C319.95 245.379 319.187 246.142 319.187 247.084V251.46C319.187 252.401 319.95 253.164 320.891 253.164H320.965C321.906 253.164 322.669 252.401 322.669 251.46V247.084C322.669 246.142 321.906 245.379 320.965 245.379Z" fill="#484848" />
  <path d="M327.03 245.379H326.957C326.015 245.379 325.252 246.142 325.252 247.084V251.46C325.252 252.401 326.015 253.164 326.957 253.164H327.03C327.971 253.164 328.734 252.401 328.734 251.46V247.084C328.734 246.142 327.971 245.379 327.03 245.379Z" fill="#484848" />
  <path d="M321.545 243.016H326.376V243.037C326.376 243.659 325.874 244.161 325.252 244.161H322.664C322.042 244.161 321.54 243.659 321.54 243.037V243.016H321.545Z" fill="#020202" />
  <path d="M380.852 246.953H373.083C372.759 246.953 372.492 247.214 372.492 247.544V254.325C372.492 255.287 373.271 256.066 374.233 256.066C375.195 256.066 375.974 255.287 375.974 254.325V254.21H377.956V254.252C377.956 255.204 378.693 256.035 379.645 256.066C380.633 256.098 381.438 255.303 381.438 254.325V247.544C381.438 247.22 381.177 246.953 380.847 246.953H380.852Z" fill="#020202" />
  <path d="M378.249 244.166H375.692V249.912H378.249V244.166Z" fill="#020202" />
  <path d="M373.972 245.379H373.899C372.957 245.379 372.194 246.142 372.194 247.084V251.46C372.194 252.401 372.957 253.164 373.899 253.164H373.972C374.913 253.164 375.676 252.401 375.676 251.46V247.084C375.676 246.142 374.913 245.379 373.972 245.379Z" fill="#484848" />
  <path d="M380.037 245.379H379.964C379.022 245.379 378.259 246.142 378.259 247.084V251.46C378.259 252.401 379.022 253.164 379.964 253.164H380.037C380.978 253.164 381.741 252.401 381.741 251.46V247.084C381.741 246.142 380.978 245.379 380.037 245.379Z" fill="#484848" />
  <path d="M374.552 243.016H379.383V243.037C379.383 243.659 378.881 244.161 378.259 244.161H375.671C375.049 244.161 374.547 243.659 374.547 243.037V243.016H374.552Z" fill="#020202" />
  <path d="M369.235 171.636H332.593V107.063H334.967V169.262H366.861V107.623H369.235V171.636Z" fill="#000A1A" />
  <path d="M369.909 107.623H366.181V96.3813C366.181 93.7879 364.074 91.6808 361.481 91.6808H340.342C337.748 91.6808 335.641 93.7879 335.641 96.3813V107.063H331.913V96.3813C331.913 91.7331 335.694 87.9529 340.342 87.9529H361.481C366.129 87.9529 369.909 91.7331 369.909 96.3813V107.623Z" fill="#000A1A" />
  <path d="M378.405 122.853H322.523C315.194 122.853 309.253 128.795 309.253 136.123V231.095C309.253 238.424 315.194 244.365 322.523 244.365H378.405C385.734 244.365 391.676 238.424 391.676 231.095V136.123C391.676 128.795 385.734 122.853 378.405 122.853Z" fill="#001F4C" />
  <path d="M321.796 123.549V122.853H317.859C313.106 122.853 309.253 126.707 309.253 131.46V133.828H311.517C317.195 133.828 321.796 129.227 321.796 123.549Z" fill="#000A1A" />
  <path d="M389.412 133.828H391.676V131.46C391.676 126.707 387.822 122.853 383.069 122.853H379.132V123.549C379.132 129.227 383.733 133.828 389.412 133.828Z" fill="#000A1A" />
  <path d="M311.517 233.39H309.253V235.759C309.253 240.511 313.106 244.365 317.859 244.365H321.796V243.669C321.796 237.991 317.195 233.39 311.517 233.39Z" fill="#000A1A" />
  <path d="M379.132 243.664V244.36H383.069C387.822 244.36 391.676 240.506 391.676 235.753V233.385H389.412C383.733 233.385 379.132 237.986 379.132 243.664Z" fill="#000A1A" />
  <path d="M368.048 120.391H333.78V122.853H368.048V120.391Z" fill="#000A1A" />
  <path d="M309.253 225.103V235.753C309.253 240.506 313.106 244.36 317.859 244.36H383.069C387.822 244.36 391.676 240.506 391.676 235.753V131.46C391.676 129.29 390.87 127.308 389.548 125.797C384.099 146.544 365.831 194.537 309.253 225.103Z" fill="#000A1A" />
  <path d="M326.34 142.115H323.307V224.988H326.34V142.115Z" fill="#000A1A" />
  <path d="M343.432 142.115H340.399V224.988H343.432V142.115Z" fill="#000A1A" />
  <path d="M360.529 142.115H357.497V224.988H360.529V142.115Z" fill="#000A1A" />
  <path d="M377.621 142.115H374.589V224.988H377.621V142.115Z" fill="#000A1A" />
</svg>