<svg width="200" height="112" viewBox="0 0 200 112" fill="none" xmlns="http://www.w3.org/2000/svg">
<mask id="mask0_832_42754" style="mask-type:luminance" maskUnits="userSpaceOnUse" x="0" y="0" width="200" height="112">
<path d="M143.297 0H56.703C25.3868 0 0 25.0721 0 56C0 86.9279 25.3868 112 56.703 112H143.297C174.613 112 200 86.9279 200 56C200 25.0721 174.613 0 143.297 0Z" fill="white"/>
</mask>
<g mask="url(#mask0_832_42754)">
<path d="M304.205 2.65625H-107.211V108.658H304.205V2.65625Z" fill="url(#paint0_linear_832_42754)"/>
<path d="M295.345 -20.2529L177.022 96.591V113.911L295.345 -2.93247V-20.2529Z" fill="url(#paint1_linear_832_42754)"/>
<path d="M278.902 -35.6504L177.022 64.9669V73.6331L278.902 -26.9842V-35.6504Z" fill="url(#paint2_linear_832_42754)"/>
<path d="M15.2498 -20.2534L-120.599 113.911H-103.061L15.2498 -2.93296V-20.2534Z" fill="url(#paint3_linear_832_42754)"/>
<path d="M152.425 -41.0957L36.1832 73.7049V91.0254L152.425 -23.7752V-41.0957Z" fill="url(#paint4_linear_832_42754)"/>
<path d="M138.076 -58.5361L36.1832 42.0812V50.7354L138.076 -49.8819V-58.5361Z" fill="url(#paint5_linear_832_42754)"/>
<path d="M179.955 -3.90625H174.417V115.606H179.955V-3.90625Z" fill="#081728"/>
<path d="M20.9092 -3.90625H15.3716V115.606H20.9092V-3.90625Z" fill="#081728"/>
<path d="M347.131 47.9348V42.4658L-136.676 42.4658V47.9348L347.131 47.9348Z" fill="#081728"/>
<path d="M126.769 84.2583H81.6405L74.2286 76.9383C67.0358 71.5535 70.5166 60.5794 70.5166 60.5794L75.1536 31.2272L85.7785 17.2122L98.2169 13.438L114.562 22.6932C121.025 33.2225 123.495 55.423 123.495 64.5339C123.495 73.6449 126.769 84.2704 126.769 84.2704V84.2583Z" fill="#080E1C"/>
<path d="M87.8111 65.9163C87.227 66.5293 82.2005 68.3924 80.7035 76.1812L115.743 79.0299C115.743 79.0299 111.933 67.1423 107.041 66.6495L87.8111 65.9043V65.9163Z" fill="#080E1C"/>
<path d="M84.878 53.1274V67.9718C84.878 67.9718 84.1234 73.4168 80.3627 77.215L79.1943 88.766C79.1943 88.766 101.588 97.264 115.621 88.3573L114.781 75.0755C114.781 75.0755 109.524 72.7677 109.183 68.2242C108.854 63.6928 109.012 53.7885 109.012 53.7885L84.8659 53.1274H84.878Z" fill="#E3BB9E"/>
<path d="M109.195 68.2238C108.866 63.6923 109.025 53.7881 109.025 53.7881L88.1276 53.2231C89.5637 61.8293 95.1013 74.0654 114.793 75.3034V75.075C114.793 75.075 109.524 72.7673 109.183 68.2238H109.195Z" fill="#CC8E79"/>
<path d="M116.631 25.3135C115.791 20.6138 112.87 17.9694 112.87 17.9694C109.536 12.3682 97.6693 11.3706 97.6693 11.3706C97.6693 11.3706 85.8029 12.3682 82.4682 17.9694C82.4682 17.9694 79.5472 20.6138 78.7075 25.3135C77.8677 30.0132 78.7075 37.5256 78.7075 37.5256L81.1416 50.3026C81.6162 52.8387 82.8698 55.1585 84.7076 56.9855L89.8679 62.0819C91.0728 63.2719 92.582 64.1012 94.2372 64.4498C95.2352 64.6662 96.4157 64.8104 97.6693 64.7503C98.9229 64.8104 100.103 64.6662 101.101 64.4498C102.757 64.1012 104.278 63.2599 105.471 62.0819L110.631 56.9855C112.481 55.1585 113.722 52.8387 114.197 50.3026L116.631 37.5256C116.631 37.5256 117.471 30.0132 116.631 25.3135Z" fill="url(#paint6_linear_832_42754)"/>
<path d="M90.8294 41.8528C91.2932 41.8528 91.6692 41.0994 91.6692 40.1701C91.6692 39.2407 91.2932 38.4873 90.8294 38.4873C90.3656 38.4873 89.9896 39.2407 89.9896 40.1701C89.9896 41.0994 90.3656 41.8528 90.8294 41.8528Z" fill="#080E1C"/>
<path d="M104.692 41.8528C105.155 41.8528 105.531 41.0994 105.531 40.1701C105.531 39.2407 105.155 38.4873 104.692 38.4873C104.228 38.4873 103.852 39.2407 103.852 40.1701C103.852 41.0994 104.228 41.8528 104.692 41.8528Z" fill="#080E1C"/>
<path d="M92.375 36.1552L92.8984 36.9124C92.8984 36.9124 89.3567 35.4821 87.4459 36.8163C87.4459 36.8163 88.4317 34.9772 90.4886 35.0974C91.2553 35.1455 91.9491 35.5542 92.375 36.1672V36.1552Z" fill="#080E1C"/>
<path d="M102.233 36.1913L101.722 36.9485C101.722 36.9485 105.227 35.4461 107.175 36.7442C107.175 36.7442 106.152 34.9172 104.108 35.0734C103.353 35.1335 102.659 35.5542 102.246 36.1793L102.233 36.1913Z" fill="#080E1C"/>
<path d="M93.1906 53.2954H102.343C102.343 53.2954 98.217 61.2284 93.1906 53.2954Z" fill="white"/>
<path d="M97.2311 47.2978C97.2311 46.6487 97.4746 46.0598 97.864 45.603C96.6956 45.7232 95.7828 46.7088 95.7828 47.8988C95.7828 49.1729 96.8295 50.2066 98.1196 50.2066C98.5821 50.2066 99.0202 50.0744 99.3854 49.834C98.1561 49.6176 97.2311 48.5599 97.2311 47.2858V47.2978Z" fill="#CA876F"/>
<path d="M118.274 88.0083C118.274 88.0083 118.286 88.0326 118.299 88.0448C118.299 88.0448 118.286 88.0205 118.274 88.0083Z" stroke="#F2DBD1" stroke-width="0.14" stroke-miterlimit="10"/>
<path d="M118.81 88.2612L126.076 86.6265L118.834 88.2612C118.664 88.2972 118.493 88.2612 118.372 88.141C118.481 88.2491 118.652 88.2972 118.81 88.2612Z" stroke="#F2DBD1" stroke-width="0.14" stroke-miterlimit="10"/>
<path d="M118.25 87.9584C118.25 87.9584 118.25 87.9584 118.25 87.9482V87.9584Z" stroke="#F2DBD1" stroke-width="0.14" stroke-miterlimit="10"/>
<path d="M118.359 88.1171C118.359 88.1171 118.335 88.0927 118.323 88.0806C118.323 88.0927 118.347 88.1049 118.359 88.1171Z" stroke="#F2DBD1" stroke-width="0.14" stroke-miterlimit="10"/>
<path d="M118.25 87.6357C118.25 87.6357 118.25 87.6357 118.25 87.6459C118.25 87.6459 118.25 87.6459 118.25 87.6357Z" stroke="#F2DBD1" stroke-width="0.14" stroke-miterlimit="10"/>
<path d="M75.4457 88.0448C75.4457 88.0448 75.4578 88.0205 75.47 88.0083C75.47 88.0205 75.4578 88.0326 75.4457 88.0448Z" stroke="#F2DBD1" stroke-width="0.14" stroke-miterlimit="10"/>
<path d="M75.4944 87.6459C75.4944 87.6459 75.4944 87.6459 75.4944 87.6357C75.4944 87.6357 75.4944 87.6357 75.4944 87.6459Z" stroke="#F2DBD1" stroke-width="0.14" stroke-miterlimit="10"/>
<path d="M75.3727 88.1287C75.251 88.2369 75.0806 88.285 74.9102 88.2489L67.6687 86.6143L74.9346 88.2489C75.105 88.285 75.2632 88.2369 75.3727 88.1287Z" stroke="#F2DBD1" stroke-width="0.14" stroke-miterlimit="10"/>
<path d="M75.4944 87.9482C75.4944 87.9482 75.4944 87.9482 75.4944 87.9584V87.9482Z" stroke="#F2DBD1" stroke-width="0.14" stroke-miterlimit="10"/>
<path d="M75.4214 88.0806C75.4214 88.0806 75.3971 88.1049 75.3849 88.1171C75.3849 88.1049 75.4092 88.0927 75.4214 88.0806Z" stroke="#F2DBD1" stroke-width="0.14" stroke-miterlimit="10"/>
<path d="M113.041 99.4872C113.041 99.4872 112.724 94.2947 112.359 88.6334C97.6693 93.9942 86.7644 91.0013 81.3728 88.6094C81.0077 94.2827 80.6913 99.4872 80.6913 99.4872C80.6913 99.4872 80.9469 107.324 82.1152 110.293C82.8698 112.204 85.2188 120.402 86.8009 125.979C90.8659 126.736 95.0526 127.133 99.3367 127.133C101.832 127.133 104.29 127 106.712 126.736C108.282 121.171 110.814 112.3 111.605 110.293C112.773 107.324 113.029 99.4872 113.029 99.4872H113.041Z" fill="#FBF5F2"/>
<path d="M72.4761 121.592C70.8696 117.769 67.4131 99.9561 66.9993 97.0113C66.5855 94.0424 67.6687 86.6142 67.6687 86.6142L74.9102 88.2489C75.0806 88.285 75.251 88.2489 75.3727 88.1287C75.3727 88.1287 75.3727 88.1287 75.3849 88.1167C75.3849 88.1047 75.4092 88.0926 75.4214 88.0806C75.4214 88.0806 75.4335 88.0566 75.4457 88.0446C75.4579 88.0325 75.4579 88.0205 75.4701 88.0085C75.4701 87.9845 75.4944 87.9724 75.4944 87.9484C75.4944 87.9484 75.4944 87.9484 75.4944 87.9364C75.4944 87.9003 75.5066 87.8763 75.5187 87.8402C75.5187 87.8402 75.5187 87.7681 75.5187 87.732C75.5187 87.732 75.5187 87.6599 75.4944 87.6359C75.4944 87.6359 75.4944 87.6359 75.4944 87.6239C75.4944 87.5998 75.4701 87.5638 75.4579 87.5517C75.4457 87.5277 75.4214 87.5037 75.4092 87.4796C75.3849 87.4556 75.3605 87.4436 75.3362 87.4195C75.3118 87.3955 75.2753 87.3835 75.251 87.3715C75.2266 87.3715 75.2266 87.3715 75.251 87.3715C75.2145 87.3594 75.1901 87.3474 75.1536 87.3474C73.3037 87.0469 68.6302 85.3161 68.6302 85.3161C69.9689 83.3328 73.9731 78.0562 73.9731 78.0562C73.9731 78.0562 59.6847 83.5852 56.0092 84.9074C54.7556 85.3642 53.4777 86.0012 52.3337 86.6503C49.8265 88.0926 48.1348 90.6048 47.7454 93.4534C47.4411 95.6891 47.0881 126.291 46.723 129.513C46.7717 129.513 72.5369 121.616 72.5004 121.616L72.4761 121.592Z" fill="#EC6625"/>
<path d="M82.1274 110.305C80.9591 107.336 80.7035 99.4993 80.7035 99.4993C80.7035 99.4993 81.0199 94.2947 81.385 88.6214C81.7745 82.6476 82.2005 76.1569 82.3708 74.6785C82.6995 71.7938 84.8902 67.9955 84.8902 67.9955V66.6733C82.4682 68.0797 73.9488 78.056 73.9488 78.056C73.9488 78.056 69.9325 83.3327 68.6059 85.316C68.6059 85.316 73.2794 87.0468 75.1293 87.3473C75.1658 87.3473 75.2023 87.3593 75.2267 87.3713C75.251 87.3713 75.251 87.3713 75.2267 87.3713C75.251 87.3834 75.2875 87.3954 75.3119 87.4194C75.3362 87.4435 75.3606 87.4555 75.3849 87.4795C75.4092 87.5036 75.4214 87.5276 75.4336 87.5516C75.4458 87.5757 75.4579 87.5997 75.4701 87.6238C75.4701 87.6238 75.4701 87.6238 75.4701 87.6358C75.4701 87.6598 75.4823 87.6959 75.4944 87.7199C75.4944 87.7199 75.4944 87.792 75.4944 87.8281C75.4944 87.8281 75.4944 87.9002 75.4701 87.9363C75.4701 87.9363 75.4701 87.9603 75.4579 87.9723C75.4579 87.9723 75.4579 87.9844 75.4579 87.9964C75.4579 88.0084 75.4458 88.0204 75.4336 88.0324C75.4336 88.0444 75.4214 88.0565 75.4092 88.0685C75.4092 88.0805 75.3849 88.0925 75.3727 88.1046C75.3727 88.1046 75.3727 88.1045 75.3606 88.1166C75.251 88.2247 75.0806 88.2728 74.9224 88.2368L67.6566 86.6021C67.6566 86.6021 66.5734 94.0303 66.9872 96.9992C67.401 99.944 70.8574 117.757 72.464 121.58C74.2287 122.349 76.03 123.034 77.8799 123.659C80.7643 124.633 83.7461 125.402 86.801 125.979C85.2188 120.402 82.8698 112.204 82.1153 110.293L82.1274 110.305Z" fill="url(#paint7_linear_832_42754)"/>
<path d="M75.4944 87.637C75.4944 87.637 75.4701 87.5761 75.4579 87.564C75.4701 87.5883 75.4822 87.6127 75.4944 87.637Z" fill="#080E1C"/>
<path d="M75.3828 88.1167C75.3828 88.1167 75.3828 88.1167 75.3727 88.1268C75.3727 88.1268 75.3727 88.1268 75.3828 88.1167Z" fill="#080E1C"/>
<path d="M75.3119 87.4081C75.3119 87.4081 75.251 87.3715 75.2267 87.3594C75.251 87.3715 75.2875 87.3837 75.3119 87.4081Z" fill="#080E1C"/>
<path d="M75.2144 87.3598C75.2144 87.3598 75.1536 87.3354 75.1171 87.3354C75.1536 87.3354 75.1901 87.3476 75.2144 87.3598Z" fill="#080E1C"/>
<path d="M75.4457 87.5408C75.4457 87.5408 75.4091 87.4921 75.397 87.4678C75.4213 87.4921 75.4335 87.5165 75.4457 87.5408Z" fill="#080E1C"/>
<path d="M75.4214 88.0809C75.4214 88.0809 75.4336 88.0566 75.4457 88.0444C75.4457 88.0566 75.4336 88.0688 75.4214 88.0809Z" fill="#080E1C"/>
<path d="M75.3119 87.4077C75.3119 87.4077 75.3606 87.4442 75.3849 87.4686C75.3606 87.4442 75.3362 87.4321 75.3119 87.4077Z" fill="#080E1C"/>
<path d="M75.4944 87.9494C75.4944 87.9494 75.5066 87.8886 75.5187 87.8521C75.5187 87.8886 75.5187 87.9129 75.4944 87.9494Z" fill="#080E1C"/>
<path d="M75.4944 87.9604C75.4944 87.9604 75.4823 87.997 75.4701 88.0213C75.4701 88.0213 75.4701 88.0091 75.4701 87.997C75.4701 87.997 75.4701 87.9726 75.4823 87.9604H75.4944Z" fill="#080E1C"/>
<path d="M75.5187 87.7331C75.5187 87.7331 75.5187 87.6723 75.4944 87.6479C75.4944 87.6723 75.5066 87.7088 75.5187 87.7331Z" fill="#080E1C"/>
<path d="M141.435 86.6381C140.303 85.989 139.025 85.3399 137.759 84.8952C134.084 83.573 119.796 78.0439 119.796 78.0439C119.796 78.0439 123.812 83.3206 125.138 85.3039C125.138 85.3039 120.465 87.0347 118.615 87.3352C118.578 87.3352 118.542 87.3472 118.518 87.3593C118.493 87.3593 118.493 87.3593 118.518 87.3593C118.493 87.3713 118.457 87.3833 118.432 87.4073C118.408 87.4314 118.384 87.4434 118.359 87.4674C118.359 87.4674 118.323 87.5155 118.311 87.5395C118.299 87.5636 118.286 87.5876 118.274 87.6117C118.274 87.6117 118.274 87.6117 118.274 87.6237C118.274 87.6477 118.262 87.6838 118.25 87.7078C118.25 87.7078 118.25 87.7799 118.25 87.816C118.25 87.816 118.25 87.8881 118.274 87.9242C118.274 87.9242 118.274 87.9242 118.274 87.9362C118.274 87.9602 118.286 87.9723 118.299 87.9963C118.299 88.0083 118.311 88.0203 118.323 88.0324C118.323 88.0444 118.335 88.0564 118.347 88.0684C118.347 88.0804 118.372 88.0925 118.384 88.1045H118.396C118.518 88.2367 118.688 88.2728 118.858 88.2367L126.1 86.602C126.1 86.602 127.183 94.0302 126.769 96.9991C126.356 99.968 122.838 118.034 121.256 121.664C120.964 122.325 120.647 123.058 120.319 123.815C120.246 123.935 147.605 126.784 147.605 126.784C147.058 121.628 146.51 96.7587 146.048 93.4052C145.658 90.5565 143.966 88.0564 141.459 86.602L141.435 86.6381Z" fill="#EC6625"/>
<path d="M126.076 86.6262L118.81 88.2609C118.639 88.297 118.481 88.2489 118.372 88.1407H118.359C118.359 88.1407 118.335 88.1047 118.323 88.0806C118.323 88.0806 118.311 88.0566 118.298 88.0446C118.286 88.0325 118.286 88.0205 118.274 88.0085C118.274 88.0085 118.274 87.9965 118.274 87.9845C118.274 87.9845 118.274 87.9604 118.262 87.9484C118.262 87.9484 118.25 87.8883 118.238 87.8522C118.238 87.8522 118.238 87.7801 118.238 87.7441C118.238 87.7441 118.238 87.6719 118.262 87.6479C118.262 87.6479 118.262 87.6479 118.262 87.6359C118.262 87.6119 118.286 87.5758 118.298 87.5638C118.311 87.5397 118.335 87.5157 118.347 87.4916C118.347 87.4916 118.396 87.4436 118.42 87.4195C118.445 87.3955 118.481 87.3835 118.505 87.3715C118.53 87.3715 118.53 87.3715 118.505 87.3715C118.542 87.3594 118.566 87.3474 118.603 87.3474C120.453 87.0469 125.126 85.3161 125.126 85.3161C123.787 83.3328 119.783 78.0562 119.783 78.0562C119.783 78.0562 111.471 67.3345 109.049 65.9282L109.17 68.236C109.17 68.236 111.033 71.7939 111.361 74.6786C111.532 76.157 111.958 82.6717 112.347 88.6455C112.712 94.3068 113.029 99.4994 113.029 99.4994C113.029 99.4994 112.773 107.336 111.605 110.305C110.814 112.312 108.282 121.183 106.712 126.748C110.363 126.351 113.917 125.666 117.374 124.717C118.359 124.44 119.321 124.152 120.282 123.839C120.611 123.082 120.927 122.337 121.219 121.688C122.802 118.058 126.319 99.9922 126.733 97.0233C127.147 94.0544 126.063 86.6262 126.063 86.6262H126.076Z" fill="url(#paint8_linear_832_42754)"/>
<path d="M118.298 88.0444C118.298 88.0444 118.311 88.0688 118.323 88.0809C118.323 88.0809 118.311 88.0566 118.298 88.0444Z" fill="#080E1C"/>
<path d="M118.225 87.8521C118.225 87.8521 118.225 87.9129 118.25 87.9494C118.25 87.9129 118.238 87.8886 118.225 87.8521Z" fill="#080E1C"/>
<path d="M118.359 87.4686C118.359 87.4686 118.408 87.4321 118.432 87.4077C118.408 87.4321 118.384 87.4442 118.359 87.4686Z" fill="#080E1C"/>
<path d="M118.274 88.0091C118.274 88.0091 118.25 87.9726 118.25 87.9482C118.25 87.9482 118.25 87.9726 118.262 87.9848C118.262 87.9848 118.262 87.9969 118.262 88.0091H118.274Z" fill="#080E1C"/>
<path d="M118.25 87.6479C118.25 87.6479 118.238 87.7088 118.225 87.7331C118.225 87.7088 118.225 87.6723 118.25 87.6479Z" fill="#080E1C"/>
<path d="M118.518 87.3594C118.518 87.3594 118.457 87.3837 118.432 87.4081C118.457 87.3837 118.493 87.3715 118.518 87.3594Z" fill="#080E1C"/>
<path d="M118.359 87.4795C118.359 87.4795 118.323 87.5282 118.311 87.5525C118.323 87.5282 118.347 87.5038 118.359 87.4795Z" fill="#080E1C"/>
<path d="M118.286 87.564C118.286 87.564 118.262 87.6127 118.25 87.637C118.25 87.6127 118.274 87.5761 118.286 87.564Z" fill="#080E1C"/>
<path d="M118.627 87.3354C118.627 87.3354 118.554 87.3476 118.53 87.3598C118.566 87.3476 118.591 87.3354 118.627 87.3354Z" fill="#080E1C"/>
<path d="M96.4035 19.7965C96.4035 19.7965 94.0059 24.0995 89.4297 25.1813C84.8536 26.2631 79.6202 31.4316 78.963 36.588V42.3936L75.7864 36.1313C75.0197 34.6048 74.7885 32.8739 75.1414 31.2032L76.8209 23.3062C77.113 21.96 77.612 20.6619 78.3301 19.496C80.8494 15.3251 87.4459 6.28626 96.3913 7.95701L98.3508 8.82243C98.3508 8.82243 98.3508 7.53631 103.584 9.03878C108.818 10.5413 116.449 19.5921 117.97 22.5971C118.81 24.2678 119.053 27.9098 119.102 30.8306C119.126 32.5494 118.079 34.8332 117.337 36.2515C116.838 37.177 116.497 38.1867 116.327 39.2204L116.132 40.4223L114.708 37.754C114.282 35.5063 112.956 33.523 111.008 32.2609L106.408 29.28C106.408 29.28 98.5577 25.4097 96.3792 19.8085L96.4035 19.7965Z" fill="#080E1C"/>
<path d="M132.709 72.6474H215.846C215.822 71.7219 215.055 70.9526 214.094 70.9526H130.238C129.313 70.9526 128.546 71.6498 128.473 72.5513L124.81 116.952H127.074L130.579 74.5706C130.664 73.4768 131.601 72.6354 132.709 72.6354V72.6474Z" fill="#080E1C"/>
<path d="M132.708 72.6475C131.601 72.6475 130.664 73.4888 130.579 74.5826L127.073 116.964H212.207L215.846 72.8398C215.846 72.7677 215.846 72.7076 215.846 72.6475H132.708Z" fill="url(#paint9_linear_832_42754)"/>
<path d="M138.198 114.668L146.279 113.178L148.555 85.2441H201.095L196.045 82.9844H140.559L138.198 114.668Z" fill="url(#paint10_linear_832_42754)"/>
<path d="M167.869 105.317H183.058C182.864 104.5 182.121 103.863 181.208 103.863H167.346C166.397 103.863 165.606 104.548 165.46 105.473L162.673 124.032H164.121L166.555 106.447C166.64 105.798 167.2 105.317 167.857 105.317H167.869Z" fill="#080E1C"/>
<path d="M167.869 105.317C167.212 105.317 166.652 105.798 166.567 106.447L164.133 124.032H180.624L183.107 106.003C183.144 105.762 183.107 105.546 183.071 105.329H167.882L167.869 105.317Z" fill="url(#paint11_linear_832_42754)"/>
<path d="M99.7748 59.221C99.3731 59.221 98.9715 59.221 98.582 59.185L98.6672 57.8748C101.978 58.0912 106.432 57.2498 109.584 56.4926C111.544 56.0238 113.089 54.5454 113.601 52.6342L115.098 47.021L116.375 47.3576L114.879 52.9708C114.246 55.3507 112.335 57.1897 109.889 57.7667C107.004 58.4518 103.049 59.221 99.7626 59.221H99.7748Z" fill="url(#paint12_linear_832_42754)"/>
<path d="M98.8741 56.8169H96.6712C95.71 56.8169 94.9308 57.5864 94.9308 58.5357C94.9308 59.485 95.71 60.2545 96.6712 60.2545H98.8741C99.8353 60.2545 100.614 59.485 100.614 58.5357C100.614 57.5864 99.8353 56.8169 98.8741 56.8169Z" fill="url(#paint13_linear_832_42754)"/>
<path d="M114.197 50.3146L115.353 50.6271C116.375 50.9036 117.459 50.7834 118.371 50.2545C119.284 49.7256 120.331 48.9323 120.818 47.9106L122.57 38.2948C122.729 37.4294 122.619 36.5279 122.266 35.7226C121.816 34.713 121.012 33.9076 119.99 33.4509L117.702 32.4292L114.197 50.3266V50.3146Z" fill="url(#paint14_linear_832_42754)"/>
<path d="M81.0928 50.3146L79.9366 50.6271C78.9143 50.9036 77.8311 50.7834 76.9183 50.2545C76.0055 49.7256 74.9588 48.9323 74.472 47.9106L72.7194 38.2948C72.5612 37.4294 72.6708 36.5279 73.0237 35.7226C73.474 34.713 74.2773 33.9076 75.2996 33.4509L77.5877 32.4292L81.0928 50.3266V50.3146Z" fill="url(#paint15_linear_832_42754)"/>
<path d="M78.6952 25.3137C78.6952 25.3137 80.7886 15.6618 96.3791 14.7964C96.3791 14.7964 108.976 14.3036 111.97 23.667C111.97 23.667 112.469 17.3686 103.864 13.967C99.507 12.2482 94.6753 12.1761 90.2086 13.5583C85.0239 15.157 78.537 18.5225 78.6952 25.3016V25.3137Z" fill="url(#paint16_linear_832_42754)"/>
</g>
<defs>
<linearGradient id="paint0_linear_832_42754" x1="93.8356" y1="14.0389" x2="107.705" y2="141.186" gradientUnits="userSpaceOnUse">
<stop stop-color="#FCE0D6"/>
<stop offset="1" stop-color="#FAF1D0"/>
</linearGradient>
<linearGradient id="paint1_linear_832_42754" x1="295.905" y1="-29.5923" x2="194.438" y2="103.525" gradientUnits="userSpaceOnUse">
<stop stop-color="#FFF7F4"/>
<stop offset="1" stop-color="#FFF7F4" stop-opacity="0"/>
</linearGradient>
<linearGradient id="paint2_linear_832_42754" x1="262.423" y1="-25.0971" x2="173.968" y2="90.9513" gradientUnits="userSpaceOnUse">
<stop stop-color="#FFF7F4"/>
<stop offset="1" stop-color="#FFF7F4" stop-opacity="0"/>
</linearGradient>
<linearGradient id="paint3_linear_832_42754" x1="14.8482" y1="-30.9149" x2="-92.6567" y2="110.136" gradientUnits="userSpaceOnUse">
<stop stop-color="#FFF7F4"/>
<stop offset="1" stop-color="#FFF7F4" stop-opacity="0"/>
</linearGradient>
<linearGradient id="paint4_linear_832_42754" x1="153.058" y1="-50.2187" x2="53.2447" y2="80.739" gradientUnits="userSpaceOnUse">
<stop stop-color="#FFF7F4"/>
<stop offset="1" stop-color="#FFF7F4" stop-opacity="0"/>
</linearGradient>
<linearGradient id="paint5_linear_832_42754" x1="121.585" y1="-47.9948" x2="33.1293" y2="68.0536" gradientUnits="userSpaceOnUse">
<stop stop-color="#FFF7F4"/>
<stop offset="1" stop-color="#FFF7F4" stop-opacity="0"/>
</linearGradient>
<linearGradient id="paint6_linear_832_42754" x1="119.723" y1="6.47857" x2="91.941" y2="44.5878" gradientUnits="userSpaceOnUse">
<stop stop-color="#C9866E"/>
<stop offset="1" stop-color="#EABD9F"/>
</linearGradient>
<linearGradient id="paint7_linear_832_42754" x1="94.6875" y1="153.432" x2="75.3182" y2="80.147" gradientUnits="userSpaceOnUse">
<stop stop-color="#282827"/>
<stop offset="1" stop-color="#DF4626"/>
</linearGradient>
<linearGradient id="paint8_linear_832_42754" x1="126.781" y1="144.946" x2="107.4" y2="71.661" gradientUnits="userSpaceOnUse">
<stop stop-color="#282827"/>
<stop offset="1" stop-color="#DF4626"/>
</linearGradient>
<linearGradient id="paint9_linear_832_42754" x1="167.261" y1="55.1467" x2="175.893" y2="138.754" gradientUnits="userSpaceOnUse">
<stop stop-color="#092433"/>
<stop offset="1" stop-color="#4A4D4B"/>
</linearGradient>
<linearGradient id="paint10_linear_832_42754" x1="171.253" y1="81.0252" x2="162.382" y2="147.175" gradientUnits="userSpaceOnUse">
<stop stop-color="#092433"/>
<stop offset="1" stop-color="#4A4D4B"/>
</linearGradient>
<linearGradient id="paint11_linear_832_42754" x1="175.147" y1="103.815" x2="170.041" y2="141.826" gradientUnits="userSpaceOnUse">
<stop stop-color="#092433"/>
<stop offset="1" stop-color="#4A4D4B"/>
</linearGradient>
<linearGradient id="paint12_linear_832_42754" x1="98.582" y1="53.127" x2="116.388" y2="53.127" gradientUnits="userSpaceOnUse">
<stop stop-color="#092433"/>
<stop offset="1" stop-color="#4A4D4B"/>
</linearGradient>
<linearGradient id="paint13_linear_832_42754" x1="94.9308" y1="58.5357" x2="100.614" y2="58.5357" gradientUnits="userSpaceOnUse">
<stop stop-color="#092433"/>
<stop offset="1" stop-color="#4A4D4B"/>
</linearGradient>
<linearGradient id="paint14_linear_832_42754" x1="114.197" y1="41.5882" x2="122.655" y2="41.5882" gradientUnits="userSpaceOnUse">
<stop stop-color="#092433"/>
<stop offset="1" stop-color="#4A4D4B"/>
</linearGradient>
<linearGradient id="paint15_linear_832_42754" x1="81.0928" y1="41.5882" x2="72.6342" y2="41.5882" gradientUnits="userSpaceOnUse">
<stop stop-color="#092433"/>
<stop offset="1" stop-color="#4A4D4B"/>
</linearGradient>
<linearGradient id="paint16_linear_832_42754" x1="78.6952" y1="18.9552" x2="111.982" y2="18.9552" gradientUnits="userSpaceOnUse">
<stop stop-color="#092433"/>
<stop offset="1" stop-color="#4A4D4B"/>
</linearGradient>
</defs>
</svg>
