<svg width="32" height="32" viewBox="0 0 32 32" fill="none" xmlns="http://www.w3.org/2000/svg">
<path d="M0.5 8C0.5 3.85786 3.85786 0.5 8 0.5H24C28.1421 0.5 31.5 3.85786 31.5 8V24C31.5 28.1421 28.1421 31.5 24 31.5H8C3.85786 31.5 0.5 28.1421 0.5 24V8Z" fill="white"/>
<path d="M0.5 8C0.5 3.85786 3.85786 0.5 8 0.5H24C28.1421 0.5 31.5 3.85786 31.5 8V24C31.5 28.1421 28.1421 31.5 24 31.5H8C3.85786 31.5 0.5 28.1421 0.5 24V8Z" stroke="#E3530F"/>
<path fill-rule="evenodd" clip-rule="evenodd" d="M11.5286 11.5286C11.789 11.2682 12.2111 11.2682 12.4714 11.5286L16 15.0572L19.5286 11.5286C19.789 11.2682 20.2111 11.2682 20.4714 11.5286C20.7318 11.7889 20.7318 12.211 20.4714 12.4714L16.9428 16L20.4714 19.5286C20.7317 19.7889 20.7317 20.211 20.4714 20.4714C20.211 20.7317 19.7889 20.7317 19.5286 20.4714L16 16.9428L12.4714 20.4714C12.2111 20.7318 11.789 20.7318 11.5286 20.4714C11.2683 20.2111 11.2683 19.789 11.5286 19.5286L15.0572 16L11.5286 12.4714C11.2683 12.211 11.2683 11.7889 11.5286 11.5286Z" fill="#E3530F"/>
</svg>
