<svg width="252" height="170" viewBox="0 0 252 170" fill="none" xmlns="http://www.w3.org/2000/svg">
<g clip-path="url(#clip0_214_696)">
<path d="M171.503 9.6647H80.1727C35.8945 9.6647 0 45.557 0 89.8323C0 134.108 35.8945 170 80.1727 170H171.503C215.781 170 251.676 134.108 251.676 89.8323C251.676 45.557 215.781 9.6647 171.503 9.6647Z" fill="#FFEAE2"/>
<mask id="mask0_214_696" style="mask-type:luminance" maskUnits="userSpaceOnUse" x="0" y="0" width="252" height="171">
<path d="M171.503 9.66471H163.826C159.982 3.84369 153.384 0 145.889 0H130.696C123.2 0 116.602 3.84369 112.758 9.66471H80.1727C35.8946 9.66471 0 45.5593 0 89.8374C0 134.115 35.8946 170.01 80.1727 170.01H171.513C215.791 170.01 251.686 134.115 251.686 89.8374C251.686 45.5593 215.791 9.66471 171.513 9.66471H171.503Z" fill="white"/>
</mask>
<g mask="url(#mask0_214_696)">
<path d="M28.873 87.4465C19.0469 87.7794 11.1477 95.9308 11.4503 105.757C11.4503 106.019 11.4705 106.282 11.4907 106.544C11.4907 106.544 11.4907 154.847 28.4897 188.361C30.4569 192.225 34.0988 194.969 38.3662 195.736L87.9912 204.694C90.0694 205.067 92.198 205.178 94.3065 205.017L174.963 198.813C180.27 198.409 184.86 194.959 186.716 189.975L195.473 166.56V135.568C195.473 135.568 194.303 128.355 186.868 123.018L136.789 110.539L132.239 83.976L28.8831 87.4666L28.873 87.4465Z" fill="#F2BAA6"/>
<path d="M91.1187 179.413L165.632 177.133C170.313 176.991 174.762 174.913 177.748 171.311C180.028 168.567 181.925 164.804 181.713 160.023C181.713 160.023 184.457 167.962 178.303 174.54C175.367 177.677 171.231 179.413 166.933 179.544L91.1187 181.824V179.423V179.413Z" fill="#E8A590"/>
<path d="M122.776 130.242L188.704 129.273C195.403 129.172 200.891 134.58 200.891 141.288C200.891 147.735 195.806 153.031 189.36 153.294L119.447 156.118L122.776 130.242Z" fill="#0F2D49"/>
<path d="M144.698 130.242L134.62 155.503H117.903L125.167 128.052L144.698 130.242Z" fill="#031026"/>
<path d="M175.589 151.518L204.815 215.257L225.416 208.467L200.598 138.706L175.589 151.518Z" fill="#0F2D49"/>
<path d="M126.378 44.2075C126.378 44.2075 107.422 51.0272 103.124 54.2959C103.124 54.2959 93.3381 55.9302 91.5525 66.1599L90.6647 77.8725L80.435 111.83C80.435 111.83 77.469 114.736 78.0643 116.844C78.6595 118.953 77.9836 120.587 77.9836 120.587L75.2395 123.845V129.182L79.9811 130.514L91.845 133.772L128.476 135.548L135.417 133.026L139.15 129.465L145.818 118.791L152.305 106.685L158.419 96.2536L176.729 126.257C179.08 130.11 184.073 131.382 187.988 129.132C191.731 126.973 193.203 122.322 191.377 118.408L176.215 85.8827C176.215 85.8827 174.883 72.5357 168.507 65.716L150.116 48.0713L126.358 44.2175L126.378 44.2075Z" fill="#EB662B"/>
<path d="M127.346 35.0674L125.056 46.5379L121.414 47.7283C121.414 47.7283 124.632 59.0778 134.458 62.4574C136.859 63.2847 139.513 62.639 141.308 60.8534C142.015 60.1472 142.59 59.33 143.023 58.4321L149.44 45.0246L127.346 35.0674Z" fill="#F0BE9E"/>
<path d="M140.401 37.9022L131.23 46.0234L130.746 48.8986C130.151 52.4195 130.796 56.0412 132.572 59.1383L134.469 62.4574C134.469 62.4574 139.896 64.9695 143.034 58.4322L149.45 45.0246L140.401 37.9123V37.9022Z" fill="#D58871"/>
<path d="M126.953 33.09C126.953 33.09 125.672 25.0798 126.953 18.26L126.65 16.2525C126.479 15.1427 126.791 14.0027 127.518 13.1351L127.941 12.6206C127.941 12.6206 136.204 4.7113 143.246 5.99253C150.287 7.27376 156.814 11.9245 156.814 11.9245L160.567 13.0141V14.7896C160.567 14.7896 162.343 16.9687 161.849 18.6434C161.849 18.6434 165.702 26.4518 160.164 29.6196L131.987 40.9893L126.943 33.0799L126.953 33.09Z" fill="#031026"/>
<path d="M157.006 18.6535C152.265 23.9903 141.389 18.6535 141.389 18.6535C139.805 20.2374 141.591 27.9449 141.591 27.9449C134.872 29.1354 134.075 36.4495 134.075 36.4495L133.097 36.0157C133.036 35.2288 132.794 34.4116 132.34 33.6449C131.028 31.375 128.506 30.3762 126.711 31.4154C124.915 32.4545 124.521 35.138 125.833 37.4079C126.63 38.8001 127.891 39.708 129.152 39.9703C128.859 42.1898 129.616 44.4395 131.23 46.0335L139.886 54.5784C141.833 56.4952 144.547 57.4233 147.261 57.1005C150.681 56.6869 153.566 54.3665 154.686 51.108L161.163 32.3132C162.746 21.4379 157.006 18.6737 157.006 18.6737V18.6535Z" fill="#F0BE9E"/>
<path d="M133.086 36.0157C133.086 36.0157 132.612 43.3298 128.829 44.9338L140.784 56.0008C141.722 56.8684 142.872 57.4636 144.113 57.7159C146.988 58.2909 152.063 58.5633 154.333 54.1244L156.724 45.1759L153.879 43.6627C152.527 42.9464 151.014 42.5933 149.48 42.6438L143.81 42.8556L137.485 39.9501C135.79 39.1733 134.539 37.1254 134.307 35.2792L134.247 35.4104C134.045 35.8542 133.571 36.0964 133.086 36.0157Z" fill="#75675D"/>
<path d="M102.63 95.3658H97.6357L105.202 119.195C105.202 119.195 105.263 119.336 105.374 119.578C107.27 123.513 111.386 125.893 115.744 125.651L142.469 124.178L147.896 114.937L111.719 110.589L102.619 95.3658H102.63Z" fill="#C44720"/>
<path d="M187.978 109.601L179.413 117.651C176.346 120.536 176.356 125.409 179.433 128.284C182.469 131.109 187.251 130.837 189.945 127.669L200.881 114.796C200.881 114.796 198.207 104.415 187.978 109.611V109.601Z" fill="#EB662B"/>
<path d="M199.266 114.181C199.266 114.181 193.334 116.794 187.554 113.959C187.554 113.959 197.693 107.361 199.266 114.181Z" fill="#C44720"/>
<path d="M108.249 115.744C107.563 110.801 111.164 106.292 116.138 105.868L156.502 102.488L158.428 115.835L118.418 123.109C113.545 123.997 108.925 120.647 108.239 115.744H108.249Z" fill="#EB662B"/>
<path d="M154.534 112.869C154.534 112.869 154.292 114.978 157.551 115.311L156.956 108.158L154.534 112.879V112.869Z" fill="#C44720"/>
<path d="M155.422 103.477L161.869 101.883L173.813 91.3204L177.122 85.8828C177.122 85.8828 178.363 84.7932 179.443 85.3884L186.172 85.8626C187.271 85.9433 188.351 86.256 189.319 86.7806L194.777 89.7365C195.453 90.0997 195.665 90.9774 195.221 91.613C194.888 92.0871 194.293 92.2788 193.748 92.0972L185.97 89.444L187.846 91.9459C188.532 92.8539 188.512 94.1149 187.806 95.0128L184.154 99.6535C183.579 100.39 182.631 100.723 181.723 100.521L179.513 102.66C178.979 103.174 178.222 103.396 177.496 103.235L176.386 102.993L173.904 106.06C173.077 107.089 171.937 107.825 170.666 108.178L163.927 110.014L154.534 112.879L155.422 103.487V103.477Z" fill="#F0BE9E"/>
<path d="M181.723 100.511L182.913 97.4643C183.135 96.8993 183.145 96.2738 182.933 95.6988L181.723 92.3394L183.488 95.0128C183.902 95.6383 184.013 96.4151 183.801 97.1314L182.772 100.521H181.723V100.511Z" fill="#D58871"/>
<path d="M162.444 83.9559L158.439 96.2637L161.869 101.883L162.444 83.9559Z" fill="#C44720"/>
<path d="M91.1187 81.232L107.633 117.016C109.833 121.787 115.28 124.138 120.264 122.463C125.974 120.536 128.819 114.14 126.418 108.612L112.587 76.7426C109.812 70.3466 101.288 69.1057 96.8085 74.4526L91.1187 81.232Z" fill="#EB662B"/>
<path d="M79.9911 130.514L80.1424 129.626C80.2231 129.142 80.6468 128.789 81.1412 128.789H83.058L86.1753 126.065C86.4477 125.823 86.831 125.752 87.1741 125.873L94.3267 128.416L117.046 126.317C124.753 125.601 131.563 131.321 132.179 139.039C132.794 146.696 127.084 153.405 119.427 154.01L93.671 156.058C79.6279 157.168 69.2368 142.933 74.8763 130.02C74.9973 129.747 75.1184 129.465 75.2495 129.182L79.9911 130.514Z" fill="#0F2D49"/>
<path d="M103.628 138.706L104.809 220.129L122.776 219.141L132.188 139.039L103.628 138.706Z" fill="#0F2D49"/>
<path d="M204.936 78.8209L212.28 79.1538C212.381 78.7502 212.089 78.3265 211.655 78.2963L203.978 77.7717C203.06 77.7111 202.182 78.1752 201.728 78.9722L189.521 100.319L190.227 101.439L202.858 79.9407C203.282 79.2143 204.079 78.7805 204.916 78.8209H204.936Z" fill="#031026"/>
<path d="M204.936 78.8209C204.099 78.7805 203.302 79.2143 202.878 79.9407L190.247 101.439L193.496 106.544L203.483 98.4328L212.26 79.2849C212.26 79.2849 212.291 79.2042 212.301 79.1538L204.956 78.8209H204.936Z" fill="#05457A"/>
<path d="M203.635 80.6771L202.485 82.5334C202.091 83.1589 202.545 83.976 203.292 83.976H203.766C204.099 83.976 204.412 83.8045 204.573 83.512L205.683 81.6557C206.056 81.0302 205.602 80.2231 204.876 80.2231H204.452C204.129 80.2231 203.826 80.3947 203.645 80.667L203.635 80.6771Z" fill="#031026"/>
<path d="M176.618 97.4441L176.386 102.983L177.284 103.174C177.99 103.326 178.656 102.791 178.656 102.065V98.3319L176.618 97.4441Z" fill="#D58871"/>
<path d="M186.918 94.8312L189.834 104.163C189.834 104.163 188.452 106.231 188.149 108.511V111.427L187.554 113.949C187.554 113.949 191.206 116.148 195.857 114.937L197.34 111.084L205.824 102.771C206.732 101.883 207.277 100.693 207.367 99.4315L207.721 94.3772L205.642 85.6204C205.43 84.7024 204.492 84.1576 203.584 84.4098C202.828 84.6217 202.323 85.3481 202.394 86.1349L203.07 94.1754L202.475 95.3659L198.207 88.8689C197.592 87.9307 196.321 87.6886 195.413 88.3342C194.616 88.8992 194.343 89.9686 194.777 90.8462L199.266 99.8451C199.398 100.118 199.307 100.44 199.044 100.592C198.762 100.763 198.389 100.652 198.247 100.35L193.627 90.8563C193.213 90.0089 192.205 89.6457 191.347 90.0392C190.49 90.4326 190.106 91.4314 190.479 92.299L194.273 101.187C194.434 101.57 194.263 102.014 193.879 102.176C193.496 102.347 193.052 102.176 192.88 101.782L189.43 93.8829C189.178 93.3078 188.563 92.985 187.947 93.096C187.16 93.2473 186.676 94.0544 186.908 94.8211L186.918 94.8312Z" fill="#F0BE9E"/>
<path d="M38.3361 110.458C41.0095 116.955 46.7902 121.656 53.6907 122.958L68.1272 125.671C68.1272 125.671 78.5082 127.104 82.0694 136.89L97.6459 179.413L99.2802 204.623L87.9812 204.684C87.9812 204.684 74.6342 187.897 73.3126 174.55L67.9859 143.821C66.4828 135.145 59.552 128.446 50.8356 127.225L39.6577 125.661C39.6577 125.661 26.351 121.747 18.5628 111.79C13.5892 105.434 14.0532 96.2234 20.0962 90.8765C22.2551 88.9698 25.1102 87.5675 28.8731 87.4364L38.3361 110.448V110.458Z" fill="#E8A590"/>
<path d="M177.122 153.778L174.6 149.077L158.439 154.444L177.122 153.778Z" fill="#031026"/>
<path d="M103.86 154.444V144.517L99.1589 155.614L103.86 154.444Z" fill="#031026"/>
<path d="M152.416 39.0523C152.416 39.0523 152.416 39.0523 152.406 39.0523C152.779 39.4861 153.011 40.041 153.011 40.6564C153.011 41.7963 152.234 42.7447 151.185 43.017C151.538 43.2592 151.962 43.4004 152.416 43.4004C153.616 43.4004 154.595 42.4218 154.595 41.2213C154.595 40.0208 153.616 39.0422 152.416 39.0422V39.0523Z" fill="#D58871"/>
<path d="M130.009 34.4116C130.009 33.5743 129.233 32.9084 128.355 33.1102C127.871 33.2212 127.477 33.6045 127.366 34.0888C127.286 34.4419 127.336 34.7748 127.487 35.0472C127.619 35.2893 127.699 35.5516 127.659 35.824C127.639 35.945 127.639 36.0863 127.669 36.2174C127.76 36.6411 128.123 36.9841 128.547 37.0548C129.212 37.1557 129.788 36.6411 129.788 35.9955C129.788 35.935 129.788 35.8643 129.767 35.8038C129.717 35.5415 129.727 35.259 129.848 35.0169C129.939 34.8353 129.989 34.6335 129.989 34.4217L130.009 34.4116Z" fill="#D58871"/>
<path d="M150.111 34.5258C150.306 33.8341 150.169 33.1899 149.804 33.0871C149.439 32.9842 148.986 33.4616 148.791 34.1534C148.595 34.8452 148.733 35.4893 149.098 35.5922C149.462 35.695 149.916 35.2176 150.111 34.5258Z" fill="#031026"/>
<path d="M158.748 36.1924C158.943 35.5006 158.805 34.8565 158.441 34.7537C158.076 34.6508 157.622 35.1282 157.427 35.82C157.232 36.5117 157.37 37.1559 157.734 37.2588C158.099 37.3616 158.553 36.8842 158.748 36.1924Z" fill="#031026"/>
<path d="M148.26 46.659L152.88 47.9503C152.88 47.9503 148.946 52.3892 148.26 46.659Z" fill="white"/>
<path d="M151.73 31.1732L151.841 31.6373C151.841 31.6373 149.188 30.7293 146.978 30.467C146.978 30.467 148.663 28.9235 150.701 29.8718C151.225 30.1139 151.589 30.6083 151.73 31.1631V31.1732Z" fill="#031026"/>
<path d="M157.46 32.5957L157.147 32.9387C157.147 32.9387 159.225 33.3221 160.698 34.0686C160.698 34.0686 160.486 32.0307 158.761 31.95C158.317 31.9299 157.843 32.1821 157.46 32.5957Z" fill="#031026"/>
<path d="M187.503 110.055L179.412 117.651L186.444 107.785L187.503 110.055Z" fill="#C44720"/>
<path d="M124.915 105.142L117.318 106.271L124.148 103.376L124.915 105.142Z" fill="#C44720"/>
<path d="M115.119 82.5637L124.915 105.142L149.44 103.084L125.056 103.376L115.119 82.5637Z" fill="#C44720"/>
</g>
<path d="M214.187 66.7248L206.439 73.7867C205.441 74.6947 203.948 74.6947 202.949 73.7867L195.201 66.7248C194.626 66.2002 194.303 65.4537 194.303 64.6668V52.2177C194.303 50.8456 195.271 49.6956 196.573 49.5039L204.321 48.3639C204.563 48.3235 204.815 48.3235 205.067 48.3639L212.815 49.5039C214.117 49.6956 215.085 50.8557 215.085 52.2177V64.6668C215.085 65.4537 214.752 66.2103 214.187 66.7248Z" fill="#A53620"/>
<path d="M213.33 66.7248L205.582 73.7867C204.583 74.6947 203.09 74.6947 202.091 73.7867L194.343 66.7248C193.768 66.2002 193.446 65.4537 193.446 64.6668V52.2177C193.446 50.8456 194.414 49.6956 195.715 49.5039L203.463 48.3639C203.705 48.3235 203.958 48.3235 204.21 48.3639L211.958 49.5039C213.259 49.6956 214.228 50.8557 214.228 52.2177V64.6668C214.228 65.4537 213.895 66.2103 213.33 66.7248Z" fill="#EC6625"/>
<path d="M211.524 65.8269L205.249 71.7589C204.442 72.5257 203.231 72.5257 202.424 71.7589L196.149 65.8269C195.685 65.3931 195.423 64.7576 195.423 64.0917V53.63C195.423 52.48 196.21 51.5115 197.269 51.3501L203.544 50.3917C203.746 50.3614 203.948 50.3614 204.149 50.3917L210.424 51.3501C211.484 51.5115 212.271 52.49 212.271 53.63V64.0917C212.271 64.7576 212.008 65.3831 211.544 65.8269H211.524Z" fill="#FCDACE"/>
<path d="M207.499 51.6527L204.109 51.1382C203.927 51.1079 203.736 51.1079 203.554 51.1382L197.753 52.026C196.775 52.1773 196.048 53.0752 196.048 54.1446V63.8597C196.048 64.4751 196.29 65.0602 196.724 65.4739L199.115 67.7438C204.038 63.093 206.47 55.6982 207.499 51.6628V51.6527Z" fill="#FFF3EC"/>
<path d="M209.91 52.0159L207.499 51.6426C206.48 55.678 204.038 63.0728 199.115 67.7236L202.525 70.962C203.272 71.6682 204.391 71.6682 205.138 70.962L210.939 65.4537C211.363 65.0502 211.615 64.465 211.615 63.8395V54.1244C211.615 53.055 210.888 52.1571 209.91 52.0058V52.0159Z" fill="url(#paint0_linear_214_696)"/>
<path d="M203.252 64.5154C202.949 64.5154 202.646 64.4045 202.414 64.1724L200.538 62.296C200.074 61.8319 200.074 61.0854 200.538 60.6213C201.002 60.1572 201.748 60.1572 202.212 60.6213L203.252 61.6604L207.176 57.736C207.64 57.272 208.387 57.272 208.851 57.736C209.315 58.2001 209.315 58.9466 208.851 59.4107L204.099 64.1623C203.867 64.3944 203.564 64.5054 203.262 64.5054L203.252 64.5154Z" fill="#081D46"/>
</g>
<defs>
<linearGradient id="paint0_linear_214_696" x1="214.097" y1="53.0752" x2="196.29" y2="73.0906" gradientUnits="userSpaceOnUse">
<stop stop-color="#FFF3EC"/>
<stop offset="1" stop-color="#FCDACE"/>
</linearGradient>
<clipPath id="clip0_214_696">
<rect width="251.676" height="170" fill="white"/>
</clipPath>
</defs>
</svg>
