<?xml version="1.0" encoding="UTF-8"?>
<svg id="Layer_1" data-name="Layer 1" xmlns="http://www.w3.org/2000/svg" xmlns:xlink="http://www.w3.org/1999/xlink" viewBox="0 0 300 250">
  <defs>
    <style>
      .cls-1 {
        clip-path: url(#clippath);
      }

      .cls-2, .cls-3 {
        fill: none;
      }

      .cls-2, .cls-4, .cls-5, .cls-6, .cls-7, .cls-8, .cls-9, .cls-10, .cls-11, .cls-12, .cls-13, .cls-14 {
        stroke-width: 0px;
      }

      .cls-3 {
        stroke: #ffaf8c;
        stroke-miterlimit: 10;
      }

      .cls-4 {
        fill: #de765c;
      }

      .cls-5 {
        fill: #db4023;
      }

      .cls-6 {
        fill: #876760;
      }

      .cls-7 {
        fill: #fde5da;
      }

      .cls-8 {
        fill: #ffaf8c;
      }

      .cls-9 {
        fill: #ffe2d7;
      }

      .cls-10 {
        fill: #fff;
      }

      .cls-11 {
        fill: #fff3ec;
      }

      .cls-12 {
        fill: #ec6625;
      }

      .cls-13 {
        fill: #fcdace;
      }

      .cls-14 {
        fill: #00162a;
      }
    </style>
    <clipPath id="clippath">
      <rect class="cls-2" width="300" height="250"/>
    </clipPath>
  </defs>
  <rect class="cls-11" width="300" height="250"/>
  <g class="cls-1">
    <g>
      <path class="cls-7" d="m215.87,159.12v-12.03h3.69v-2.6h-3.69v-18.61h3.69v-2.6h-3.69v-18.83h3.69v-2.6h-3.69v-18.61h3.69v-2.6h-3.69v-18.61h3.69v-2.6h-3.69v-6.44h-1.87v6.44h-15.92v-18.61h21.49v-2.6h-21.49v-21.14h-3.98v21.14h-7.43v-20.3h-4.22v20.3h-12.24v-19h-1.87v19h-18.03v-21.14h-2.11v21.14h-16.86v2.6h16.86v18.61h-14.75v-6.36h-2.11v106.07h-6.32v91.79h106.55v-91.79h-15.69Zm-82.43-97.1h14.75v18.61h-14.75v-18.61Zm0,21.21h14.75v18.61h-14.75v-18.61Zm3.75,75.89h-3.75v-12.03h3.75v12.03Zm0-14.64h-3.75v-18.61h3.75v18.61Zm0-21.21h-3.75v-18.83h3.75v18.83Zm13.11,121.68h-4.22v-10.17h4.22v10.17Zm0-20.8h-4.22v-10.17h4.22v10.17Zm0-20.8h-4.22v-10.17h4.22v10.17Zm0-20.8h-4.22v-10.17h4.22v10.17Zm0-20.8h-4.22v-10.17h4.22v10.17Zm0-20.8h-4.22v-10.17h4.22v10.17Zm0-20.8h-4.22v-10.17h4.22v10.17Zm10.12-18.34h-10.12v-18.61h10.12v18.61Zm0-21.21h-10.12v-18.61h10.12v18.61Zm7.91,21.21h-3.69v-18.61h3.69v18.61Zm0-21.21h-3.69v-18.61h3.69v18.61Zm0-21.21h-3.69v-7.93h-4.22v7.93h-10.12v-18.61h18.03v18.61Zm8.96,188.64h-6.15v-13.27h6.15v13.27Zm0-20.8h-6.15v-13.27h6.15v13.27Zm0-20.8h-6.15v-13.27h6.15v13.27Zm0-20.8h-6.15v-13.27h6.15v13.27Zm0-20.8h-6.15v-13.27h6.15v13.27Zm0-20.8h-6.15v-13.27h6.15v13.27Zm0-20.8h-6.15v-13.27h6.15v13.27Zm5.15-21.44h-12.24v-18.61h12.24v18.61Zm0-21.21h-12.24v-18.61h12.24v18.61Zm0-21.21h-12.24v-18.61h12.24v18.61Zm4.22,185.54h-4.22v-10.17h4.22v10.17Zm0-20.8h-4.22v-10.17h4.22v10.17Zm0-20.8h-4.22v-10.17h4.22v10.17Zm0-20.8h-4.22v-10.17h4.22v10.17Zm0-20.8h-4.22v-10.17h4.22v10.17Zm0-20.8h-4.22v-10.17h4.22v10.17Zm0-20.8h-4.22v-8.67h4.22v8.67Zm7.43-18.34h-7.43v-18.61h7.43v18.61Zm0-21.21h-7.43v-18.61h7.43v18.61Zm0-21.21h-7.43v-18.61h7.43v18.61Zm19.9,99.71h-2.11v-12.03h2.11v12.03Zm0-14.64h-2.11v-18.61h2.11v18.61Zm0-21.21h-2.11v-18.83h2.11v18.83Zm0-21.44h-15.92v-18.61h15.92v18.61Zm0-21.21h-15.92v-18.61h15.92v18.61Zm9.19,162.22h-4.22v-5.09h4.22v5.09Zm0-20.8h-4.22v-5.09h4.22v5.09Zm0-20.8h-4.22v-5.09h4.22v5.09Zm0-20.8h-4.22v-5.09h4.22v5.09Z"/>
      <polygon class="cls-13" points="-22.1 257.44 285.53 257.44 285.53 184.89 244.02 184.89 244.02 166.7 239.43 166.7 239.43 184.89 224.42 184.89 224.42 158.95 214.01 158.95 214.01 184.86 203.21 184.86 203.21 170.74 199.13 170.74 199.13 184.86 82.93 184.86 82.93 180.17 37.53 180.17 37.53 230.03 1.45 230.03 1.45 87.06 -14.37 87.06 -14.37 230.03 -22.1 230.03 -22.1 257.44"/>
      <g>
        <path class="cls-4" d="m136.64,233.21l.23,4.01c.03.58.43,1.08.99,1.24h0c.68.2,1.41-.17,1.66-.83l.4-1.05.94,1.61c.23.4.58.72,1,.92l.28.14c.63.3,1.36.31,1.99.02h0s.1.21.1.21c.54,1.13,1.7,1.83,2.96,1.79h.32s3.6-3.08,3.6-3.08l-7.24-7.12-7.24,2.14Z"/>
        <path class="cls-8" d="m90.72,68.86l3.16-15.91s-.69-10.7-10.58-13.69l-32.09,2.65s-5.18,3.68-5.52,11.39l1.96,18.4-4.6,16.68,23.58,9.55,6.79-10.81,6.28,1.09c3.86.67,7.56-1.86,8.32-5.71l1.47-7.41s.06,0,.09,0c1.78,0,3.22-1.44,3.22-3.22,0-1.37-.86-2.54-2.07-3.01Z"/>
        <path class="cls-8" d="m141,216.72l7.59-3.91,7.9-.84s1.38.23,1.84,1.38l3.53,8.13.73,9.21c.12,1.48-.66,2.89-1.98,3.57l-2.27,1.17-.03.06c-.33.75-.92,1.36-1.67,1.7l-2.14,1-.05.1c-.4.85-1.18,1.47-2.11,1.68l-.99.22-2.45,1.46-1.38-.38.84-1.92-.77-1.61-6.75-2.34c-1.83-.63-3.52-1.58-5.02-2.81l-4.11-3.36,9.28-12.5Z"/>
        <path class="cls-14" d="m94.68,40.52l-7.48,4.6-3.91,1.15-.2.87c-.53,2.35-2.04,4.36-4.15,5.53s-4.73,3.34-4.85,6.71v6.79h0c-1.19,0-2.17-.96-2.17-2.16,0-3.02-.77-8.11-5.93-7.62-3.8.36-5.66,4.37-6.56,8.13-1.01,4.21-4.43,7.43-8.67,8.28l-3.62.73-2.83-17.03s-2.42-21.33,7.94-26.91l2.93-1.29c1.16-.51,2.45-.64,3.68-.37l.74.16s3.45-1.73,5.06-1.61,7.13,1.27,7.13,1.27c0,0,.29-.07.72-.16,1.89-.41,3.86-.23,5.65.51,3.72,1.54,11.06,4.59,13.78,5.73,1.18.5,2.21,1.33,2.88,2.42.72,1.16,1.12,2.72-.14,4.27Z"/>
        <path class="cls-4" d="m66.62,69.39l-.51,7.71c-.18,2.72,1.03,5.34,3.22,6.97l4.08,3.03-3.24,5.16-4.02-6.33c-1.03-1.62-1.44-3.56-1.16-5.47l1.64-11.08Z"/>
        <polygon class="cls-14" points="67.43 224.32 83.76 239.06 84.79 247.32 81.86 266.87 -3.12 266.87 -2.39 245.59 67.43 224.32"/>
        <path class="cls-12" d="m40.05,82.5l-5.18,3.34-25.76,10.81s-4.26,1.38-5.52,2.88-10.47,18.75-10.47,18.75l-6.56,32.09-.12,53.02,7.94,20.7,4.03,4.49-2.07,19.9s7.13,5.87,14.49,8.4c5.14,1.77,26.13-.23,38.3-1.59,5.73-.64,11.17-2.85,15.72-6.39l10.61-8.24s6.67-3.22,10.35-.81l-6.21-37.61,50.03,31.05s5.52.92,9.55-3.91c4.03-4.83,2.65-13.34,2.65-13.34l-10.24-5.98-4.3-6.33c-1.16-1.7-2.9-2.92-4.9-3.42l-3.34-.84-13.57-11.39-10.47-67.4s-1.84-9.09-11.04-14.38l-25.99-19.67-17.94-4.14Z"/>
        <path class="cls-4" d="m66.15,66.32c-1.76-1.33-2.11-3.83-.78-5.59.2-.26.43-.5.67-.7-.71.25-1.37.71-1.86,1.36-1.33,1.76-.98,4.26.78,5.59,1.49,1.13,3.53,1.05,4.92-.08-1.22.43-2.63.26-3.74-.58Z"/>
        <path class="cls-5" d="m37.36,81.83l-2.48,4.01,23.9,3.84c1.22.2,2.38.69,3.37,1.43l11.26,8.42v-2.19l-4.25-10.58s-.72-2.76-5.77-3.68l-20.28-3.79c-2.25-.42-4.53.59-5.74,2.53Z"/>
        <path class="cls-5" d="m67.43,160.02l9,38.02c.42,1.79,1.58,3.31,3.19,4.18h0s2.24,13.58,2.24,13.58l-5.38-6.89c-.66-.85-1.1-1.84-1.28-2.9l-7.78-46Z"/>
        <path class="cls-5" d="m105.5,188.09l-6.75,3.11s3.37-3.99,6.75-3.11Z"/>
        <path class="cls-4" d="m152.14,215.36l-1.79,2.31c-.64.83-1.01,1.84-1.06,2.89l-.2,4.54c-.07,1.63,1.77,2.64,3.09,1.69.61-.44,1.19-1.1,1.63-2.09l.46-2.84,1.53-1.14,4.06,2.29,2.72,7.68s1.8.86,3.57,0l3.45-2.47-2.3-10.2s-1.84-2.45-3.83-2.45l-1.84-.08-1.98-1.29c-.85-.56-1.87-.81-2.89-.71l-1.46.13c-1.25.12-2.39.74-3.16,1.73Z"/>
        <polygon class="cls-3" points="154.49 238.19 154.8 232.52 155.45 237.75 154.49 238.19"/>
        <polygon class="cls-3" points="158.32 235.43 158.32 230.07 159.34 234.91 158.32 235.43"/>
        <path class="cls-10" d="m245.58,121.95l-20.38,20.17c-1.74,1.72-3.14,3.75-4.13,5.98l-12.07,27.21-2.2,3.18c-1.25,1.81-1.82,4.01-1.59,6.19l.34,3.27-3.18,1.66c-1.96,1.02-3.48,2.7-4.3,4.75l-1.03,2.58-33.58,18.63s1.92,15.11,6.13,22.62l6.52,5.9,35.42-25.3s7.59-3.91,8.51-8.51l.69,19.78-.69,9.89v14.03h86.26l6.72-42.48c.73-4.61.69-9.32-.13-13.92l-10.96-61.83s-1.84-10.81-16.1-15.18l-24.61-11.5-15.64,12.88Z"/>
        <path class="cls-9" d="m275.25,168.19l.98,3.91c.26,1.04.86,1.97,1.7,2.64l2.16,1.73,2.76,23.23,2.53,2.3-1.38,16.79-2.76,4.6-5.98,28.26h-4.37l10.58-47.81-6.21-35.65Z"/>
        <g>
          <polygon class="cls-8" points="257.2 82.5 261.68 107.92 241.19 126.3 238.5 121.15 235.23 109.07 241.82 73.88 257.2 82.5"/>
          <path class="cls-4" d="m253.34,89.18s1.5,5.35-3.34,6.61l-1.05-3.85,4.39-2.76Z"/>
          <polygon class="cls-4" points="247.65 97.69 245.58 121.95 241.19 126.3 238.5 121.15 235.23 109.07 247.65 97.69"/>
          <path class="cls-8" d="m254.97,87.58c0-2.74-2.22-4.96-4.96-4.96-.38,0-.74.04-1.1.12l-2.52-10.82s-14.38-2.88-24.27,6.44c0,0-4.72,5.75-2.99,13.8l4.03,9.14c-.59.41-.98,1.09-.98,1.87,0,1.25,1.02,2.27,2.27,2.27.18,0,.35-.02.51-.06l3.27,7.43c1.25,2.83,4.05,4.65,7.14,4.65,2.01,0,3.94-.78,5.4-2.17l10.1-9.67c1.72-1.64,2.44-4.07,1.9-6.39l-1.59-6.83c2.18-.52,3.81-2.48,3.81-4.83Z"/>
          <path class="cls-6" d="m249.38,97.69c-2.76-2.88-4.03-9.43-4.03-9.43l1.15-5.69h-2.42l-1.61,4.89-.66,5.75-6.59,9.56-2.42-1.05s-5.82-.12-7.86,3.68l3.27,7.43c1.25,2.83,4.05,4.65,7.14,4.65,2.01,0,3.94-.78,5.4-2.17l10.1-9.67c1.59-1.52,2.32-3.71,2-5.87-1.63-.76-2.9-1.47-3.48-2.08Z"/>
          <path class="cls-14" d="m216.89,77.72l.33,1.25c.33,1.25,1.33,2.2,2.59,2.46l.47.1s4.45-7.65,13-7.65l1.96.92-.69,2.03c-.5,1.45.16,3.04,1.52,3.74,2.31,1.19,5.56,3.43,6.42,6.88l2.88.81,1.94-3c2.02-3.13,6.89-2.24,7.57,1.43.05.28.09.58.11.9l.5,4.12,5.3,11.06.91-1.51.46-2.76,1.5-4.6-1.32-7.62c-.11-.66-.36-1.3-.72-1.87l-.03-.05c-.5-.8-.78-1.72-.79-2.66-.03-1.5-.2-3.96-.93-6.09-1.15-3.34-3.45-9.2-12.19-12.88l-6.19-.35c-1.31-.07-2.62.1-3.86.5l-3.41,1.11h-.16c-1.71,0-3.38.42-4.88,1.24l-4.73,2.56-2.53.69s-2.1,1.48-3.71,3.43c-1.34,1.62-1.81,3.79-1.28,5.82Z"/>
          <ellipse class="cls-14" cx="228.33" cy="92.22" rx=".81" ry="1.21" transform="translate(-15.52 126.52) rotate(-30)"/>
          <ellipse class="cls-14" cx="221.66" cy="96.7" rx=".51" ry="1.21" transform="translate(-18.65 123.78) rotate(-30)"/>
          <path class="cls-10" d="m228.33,108.77l4.41-3.8s.35,6.82-4.41,3.8Z"/>
          <path class="cls-14" d="m224.49,90.55l.08.5,2.55-2.64c.54-.56,1.21-.97,1.96-1.21l1.46-.45h-1.18c-1.11,0-2.18.4-3.03,1.12l-1.26,1.08c-.46.39-.68.99-.58,1.58Z"/>
          <path class="cls-14" d="m220.25,94.72s.04-.03.06-.04l2.05-1.17-.3-.13c-.36-.15-.77-.11-1.08.11l-.96.67.24.55Z"/>
          <path class="cls-4" d="m251.54,86.11c0-.12,0-.24-.04-.37-.12-.45-.49-.81-.95-.91-.82-.17-1.53.45-1.53,1.24,0,.17.03.33.09.47.13.31.14.65,0,.96s-.19.65-.12,1.01c.12.65.64,1.17,1.29,1.3,1.06.21,1.99-.6,1.99-1.62,0-.42-.16-.8-.42-1.1-.24-.27-.32-.62-.31-.98Z"/>
        </g>
        <path class="cls-9" d="m218.9,176.7l1.15,33.58s-.82,3.54-6.21,7.13l5.06-40.71Z"/>
        <path class="cls-12" d="m237.99,118.85l-1.38,5.75-.62,6.85v21.1l14.88-25.76,13.95-16.03-2.45-4.79s-6.56,2.19-8.05,3.91-11.27,11.5-11.27,11.5l-.81,1.61-2.66-2.04c-.71-.54-1.26-1.27-1.59-2.1h0Z"/>
        <polygon class="cls-14" points="238.5 125.17 242.25 122.99 245.58 121.95 247.65 124.25 244.55 132.08 243.5 139.54 235.99 152.55 235.99 147.49 239.37 132.42 238.5 125.17"/>
        <g>
          <path class="cls-10" d="m77.32,51.58l-2.89,1.03c-.63.28-1.31.44-2,.48l-6.92.47c-.93.13-1.81.51-2.53,1.11l-4.19,3.38c-.72.71-1.7,1.1-2.71,1.07l-10.68.35c-.6.12-1.18-.26-1.31-.86,0,0,0-.01,0-.02-.74-1.83-1.12-3.78-1.12-5.75l19.24-9.53,15.11,8.25Z"/>
          <path class="cls-5" d="m87.61,27.67l.27-2.78c.04-.92-.54-1.76-1.42-2.03-4.1-1.54-8.3-2.77-12.58-3.68-4.12-.45-8.29,0-12.23,1.32-1.29.32-2.48.95-3.46,1.84l-2.7,1.83,32.11,3.5Z"/>
          <path class="cls-12" d="m108.69,54.15c.58.18.91.8.72,1.39-.07.23-.22.44-.42.58-.87.55-1.86.9-2.89,1.03-2.1.08-23.6-2.65-28.57-3.24l-1.89-.82-3.93-2.62c-1.01-.78-2.28-1.14-3.55-1.01l-7.02.07c-1.37.02-2.69.52-3.73,1.4l-2.74,2.01c-.72.71-1.7,1.1-2.71,1.07l-10.15-.28,1.86-3.92s0-16.27,11.83-25.63c3.11-2.32,7.02-3.31,10.86-2.77l9,1.15c4.01.45,7.84,1.92,11.11,4.29,3.2,2.06,5.99,4.69,8.22,7.78,1.98,3.68,6.39,16.43,6.39,16.43l7.61,3.09Z"/>
          <path class="cls-5" d="m101.09,51.06s4.45,4.44-23.52-.55c0,0,30.2,6.83,23.52.55Z"/>
        </g>
        <ellipse class="cls-14" cx="88.99" cy="64.22" rx="1.8" ry=".92" transform="translate(11.8 142.22) rotate(-81.12)"/>
        <path class="cls-14" d="m91.01,59.84l.32.99s-2.76-1.26-4.68.51c0,0,.59-2.87,3.03-2.59.62.07,1.14.5,1.33,1.09Z"/>
        <path class="cls-10" d="m88.24,76.49l-.84,3.3s-3.6-1.3-2.45-4.37l3.3,1.07Z"/>
      </g>
    </g>
  </g>
</svg>