<?xml version="1.0" encoding="UTF-8"?>
<svg id="Layer_1" data-name="Layer 1" xmlns="http://www.w3.org/2000/svg" xmlns:xlink="http://www.w3.org/1999/xlink" viewBox="0 0 300 250">
  <defs>
    <style>
      .cls-1 {
        clip-path: url(#clippath);
      }

      .cls-2, .cls-3, .cls-4 {
        fill: none;
      }

      .cls-2, .cls-5, .cls-6, .cls-7, .cls-8, .cls-9, .cls-10, .cls-11, .cls-12, .cls-13, .cls-14, .cls-15, .cls-16, .cls-17, .cls-18, .cls-19, .cls-20, .cls-21, .cls-22, .cls-23 {
        stroke-width: 0px;
      }

      .cls-3 {
        stroke: #e8e4c4;
      }

      .cls-3, .cls-4 {
        stroke-miterlimit: 10;
        stroke-width: .33px;
      }

      .cls-4 {
        stroke: #fffdf2;
      }

      .cls-5 {
        fill: #f4c2ae;
      }

      .cls-6 {
        fill: #f4bc9b;
      }

      .cls-7 {
        fill: #f8f6e6;
      }

      .cls-8 {
        fill: #1d497c;
      }

      .cls-9 {
        fill: #091e33;
      }

      .cls-10 {
        fill: #102f58;
      }

      .cls-11 {
        fill: #14366e;
      }

      .cls-12 {
        fill: #d7846a;
      }

      .cls-13 {
        fill: #c25225;
      }

      .cls-14 {
        fill: #c17d64;
      }

      .cls-15 {
        fill: #ad634e;
      }

      .cls-16 {
        fill: #d14209;
      }

      .cls-17 {
        fill: #fff;
      }

      .cls-18 {
        fill: #fff3ec;
      }

      .cls-19 {
        fill: #fae6dc;
      }

      .cls-20 {
        fill: #ec6625;
      }

      .cls-21 {
        fill: #ecba9b;
      }

      .cls-22 {
        fill: #ffdccc;
      }

      .cls-23 {
        fill: #00070c;
      }
    </style>
    <clipPath id="clippath">
      <rect class="cls-2" x=".57" width="298.87" height="250"/>
    </clipPath>
  </defs>
  <rect class="cls-18" x=".57" width="298.87" height="250"/>
  <g class="cls-1">
    <g id="Layer_2" data-name="Layer 2">
      <g id="Layer_1-2" data-name="Layer 1-2">
        <path class="cls-5" d="m75.57,91.84v.17h0c.03-.05.03-.11,0-.17Z"/>
        <rect class="cls-5" x="77.32" y="53.84" width="163.4" height="15.29" rx="3.7" ry="3.7"/>
        <rect class="cls-19" x="77.55" y="59.07" width="162.73" height="112.24" rx="7.71" ry="7.71"/>
        <path class="cls-5" d="m232.58,58.64H85.22c-4.48.02-8.1,3.66-8.1,8.14v96.86c0,4.47,3.63,8.1,8.1,8.1h147.36c4.47,0,8.1-3.63,8.1-8.1v-96.86c0-4.48-3.62-8.12-8.1-8.14Zm7.28,104.99c-.02,4.01-3.27,7.24-7.28,7.24H85.22c-4,0-7.24-3.24-7.24-7.24h0v-96.86c-.02-4,3.21-7.26,7.21-7.28.01,0,.02,0,.03,0h147.36c4.02,0,7.28,3.26,7.28,7.28v96.86Z"/>
        <polygon class="cls-16" points="135.26 161.22 138.63 157.25 144.32 159.5 153.94 156.69 162.44 151 166.97 145.91 174.34 152.72 179.47 148.19 179.47 160.65 135.26 161.22"/>
        <path class="cls-7" d="m101,84.03h-7.11c-.07,0-.13-.03-.13-.1,0-.07.06-.13.13-.13h7.11c.07,0,.1.07.1.13,0,.05-.04.1-.1.1Z"/>
        <path class="cls-7" d="m101,85.49h-7.11c-.07,0-.13-.03-.13-.1,0-.07.06-.13.13-.13h7.11c.07,0,.1.07.1.13,0,.05-.04.1-.1.1Z"/>
        <path class="cls-5" d="m88,80.06c.07-.1,1.09-1.03,1.09-1.03l1.95.33,1.49-1.55,1.06-.86,2.35.07.46-1.32,1.88.86.46-1.03.93-.53.69-1.16.63-.56v9.03h-13.99l.36-2.12.63-.13Z"/>
        <path class="cls-7" d="m99.21,71.63h-13.79c-1.18.15-2.25-.69-2.4-1.87s.69-2.25,1.87-2.4c.18-.02.36-.02.53,0h13.79c1.18-.15,2.25.69,2.4,1.87s-.69,2.25-1.87,2.4c-.18.02-.36.02-.53,0Zm-13.79-3.87c-.96-.13-1.84.54-1.98,1.5-.13.96.54,1.84,1.5,1.98.16.02.32.02.48,0h13.79c.96.13,1.84-.54,1.98-1.5.13-.96-.54-1.84-1.5-1.98-.16-.02-.32-.02-.48,0h-13.79Z"/>
        <circle class="cls-7" cx="86.02" cy="69.52" r=".66"/>
        <rect class="cls-7" x="111.81" y="68.92" width="6.02" height="2.26"/>
        <rect class="cls-7" x="111.81" y="73.45" width="6.02" height="2.26"/>
        <path class="cls-7" d="m131.42,69.05h-12.07c-.07,0-.1-.07-.1-.13,0-.05.04-.1.1-.1h12.07c.07,0,.13.03.13.1,0,.07-.06.13-.13.13h0Z"/>
        <path class="cls-7" d="m126.53,70.18h-7.18c-.05,0-.1-.04-.1-.1,0-.07.03-.13.1-.13h7.18c.07,0,.13.06.13.13h0c0,.07-.07.1-.13.1Z"/>
        <path class="cls-7" d="m131.42,73.58h-12.07c-.07,0-.1-.07-.1-.13s.03-.13.1-.13h12.07c.07,0,.13.06.13.13,0,.07-.06.13-.13.13Z"/>
        <path class="cls-7" d="m126.53,74.71h-7.18c-.07,0-.1-.07-.1-.13,0-.05.04-.1.1-.1h7.18c.07,0,.13.03.13.1,0,.07-.06.13-.13.13h0Z"/>
        <path class="cls-11" d="m151.29,135.52c.2-.01.39.06.53.2.15.16.24.37.23.6,0,.07-.03.1-.03.17s-.03.1-.03.13c0,.05-.03.1-.07.13,0,.03-.03.07-.07.1l-.07.13-.1.1-.1.07-.46.53h.89v.36h-1.42v-.33l.69-.79.13-.13.07-.1c.07-.03.07-.07.1-.1,0-.04,0-.07.03-.1v-.26c-.03-.07-.03-.13-.07-.17s-.03-.1-.07-.1l-.13-.07h-.5s-.07.03-.07.07h-.13s-.01.03-.03.03h0l-.17-.33s.03,0,.03-.03h.13l.17-.1.23-.07.26.07Z"/>
        <path class="cls-11" d="m153.61,138.07c-.19.01-.38-.05-.53-.17-.14-.11-.25-.26-.3-.43-.07-.2-.1-.41-.1-.63,0-.18.03-.36.07-.53.03-.16.1-.3.2-.43.08-.11.18-.2.3-.26.13-.06.28-.1.43-.1.23-.02.45.05.63.2l-.13.33c-.14-.12-.32-.18-.5-.17-.15,0-.28.08-.36.2-.11.17-.17.36-.17.56.11-.16.3-.26.5-.26.22,0,.43.09.6.23.13.17.2.38.2.6.01.23-.07.46-.23.63-.15.16-.37.25-.6.23Zm-.03-.36c.12.01.23-.04.3-.13.09-.09.14-.21.13-.33,0-.13-.03-.26-.1-.36-.07-.09-.18-.14-.3-.13-.12,0-.24.04-.33.13-.07.11-.11.23-.1.36,0,.07,0,.14.03.2l.1.13.13.1.13.03Z"/>
        <path class="cls-5" d="m154.6,139.36h-4.37s-.03-.04-.03-.07c0-.02.01-.03.03-.03h4.37s.07,0,.07.03c0,.04-.03.07-.07.07h0Z"/>
        <path class="cls-5" d="m154.67,140.05h-4.37s-.07,0-.07-.03c0-.04.03-.07.07-.07h4.37s.07.03.07.07h0s-.03.03-.07.03Z"/>
        <path class="cls-11" d="m161.58,138.07h-.5l-.17-.07s-.07-.03-.07-.07h-.03l.13-.33h.07l.23.1h.26c.12,0,.24-.03.33-.1.09-.07.14-.18.13-.3,0-.12-.06-.23-.17-.3-.14-.08-.3-.11-.46-.1h-.17v-.36h.13c.16.02.32,0,.46-.07.1-.08.15-.2.13-.33,0-.09-.05-.16-.13-.2-.07-.07-.17-.07-.3-.07h-.26c-.07.03-.1.03-.1.07h-.17l-.17-.3.33-.2h.73l.26.1c.07.06.13.14.17.23.06.08.08.17.07.26,0,.09,0,.18-.03.26l-.17.2c-.08.06-.17.11-.26.13.15,0,.3.08.4.2.1.11.14.25.13.4,0,.1-.03.2-.07.3-.04.1-.11.18-.2.23-.06.07-.14.13-.23.17l-.33.13Z"/>
        <path class="cls-11" d="m163.76,138.07l-.43-.07c-.12-.06-.22-.15-.3-.26-.07-.11-.1-.24-.1-.36,0-.14.03-.28.1-.4.08-.1.18-.18.3-.23-.22-.12-.36-.35-.36-.6-.02-.19.07-.36.23-.46.16-.13.36-.19.56-.17.21-.02.42.04.6.17.13.13.2.31.2.5,0,.24-.14.47-.36.56.13.05.23.14.3.26.09.1.14.23.13.36,0,.13-.05.26-.13.36-.07.12-.17.21-.3.26l-.43.07Zm0-.36c.11,0,.22-.03.3-.1.07-.07.1-.17.1-.26,0-.11-.04-.21-.1-.3-.08-.08-.19-.14-.3-.17l-.3.17c-.06.09-.1.19-.1.3,0,.1.03.19.1.26.08.07.19.11.3.1h0Zm0-1.12c.1-.03.19-.08.26-.17.13-.13.13-.33,0-.46l-.26-.07-.26.07c-.13.13-.13.33,0,.46l.26.17Z"/>
        <path class="cls-5" d="m164.85,139.36h-4.37s-.07-.03-.07-.07h0s.03-.03.07-.03h4.37s.07,0,.07.03c0,.04-.03.07-.07.07h0Z"/>
        <path class="cls-5" d="m164.92,140.05h-4.37s-.07,0-.07-.03c0-.04.03-.07.07-.07h4.37v.07s0,.02,0,.03Z"/>
        <path class="cls-11" d="m172.95,138.07l-.43-.07c-.12-.06-.22-.15-.3-.26-.09-.1-.14-.23-.13-.36,0-.14.04-.29.13-.4.08-.1.18-.18.3-.23-.22-.12-.36-.35-.36-.6-.01-.18.06-.35.2-.46.17-.12.38-.18.6-.17.2-.02.4.04.56.17.15.12.24.3.23.5,0,.24-.14.47-.36.56.12.07.22.16.3.26.13.23.13.5,0,.73-.09.12-.2.21-.33.26l-.4.07Zm0-.36c.11,0,.22-.03.3-.1.07-.07.1-.17.1-.26,0-.11-.04-.21-.1-.3-.09-.07-.19-.13-.3-.17-.11.03-.22.08-.3.17-.06.09-.1.19-.1.3,0,.1.03.19.1.26.08.07.19.11.3.1h0Zm0-1.12l.26-.17c.07-.06.1-.14.1-.23,0-.1-.05-.18-.13-.23l-.23-.07c-.09,0-.18.02-.26.07-.13.13-.13.33,0,.46.07.08.16.14.26.17Z"/>
        <path class="cls-11" d="m175.1,138.07h-.5l-.17-.07-.1-.07h-.03l.13-.33h.1l.2.1h.3c.12,0,.24-.03.33-.1.09-.07.14-.18.13-.3,0-.12-.06-.23-.17-.3-.14-.08-.3-.11-.46-.1h-.17v-.36h.13c.16.02.32,0,.46-.07.09-.09.14-.21.13-.33,0-.09-.05-.16-.13-.2-.09-.05-.19-.08-.3-.07h-.3l-.1.07h-.13l-.2-.3.36-.2h.73l.23.1c.09.05.16.13.2.23.04.08.06.17.07.26,0,.1-.03.17-.03.26l-.17.2c-.08.06-.17.11-.26.13.15,0,.28.08.36.2.11.11.16.25.17.4,0,.1-.03.2-.07.3l-.2.23-.26.17-.3.13Z"/>
        <path class="cls-5" d="m176.16,139.36h-4.37s-.03-.03-.03-.07,0-.03.03-.03h4.37s.07,0,.07.03c0,.04-.03.07-.07.07h0Z"/>
        <path class="cls-5" d="m176.23,140.05h-4.37s-.07,0-.07-.03c0-.04.03-.07.07-.07h4.37s.03.03.03.07,0,.03-.03.03Z"/>
        <path class="cls-5" d="m204.3,131.79c-6.5,0-11.77,5.27-11.77,11.77v.07c.34,6.51,5.9,11.51,12.41,11.16,6.03-.32,10.85-5.14,11.16-11.16v-.07c0-6.5-5.27-11.77-11.77-11.77-.01,0-.02,0-.03,0Zm0,21.26c-5.2-.02-9.42-4.22-9.46-9.42v-.07c.31-5.23,4.8-9.22,10.03-8.91,4.8.28,8.63,4.11,8.91,8.91v.07c-.04,5.22-4.27,9.42-9.49,9.42Z"/>
        <path class="cls-8" d="m204.37,131.22c-6.5,0-11.77,5.27-11.77,11.77,0,.01,0,.02,0,.03h0c0,6.5,5.27,11.77,11.77,11.77s11.77-5.27,11.77-11.77h0c.02-6.5-5.24-11.79-11.74-11.81-.01,0-.02,0-.03,0Zm0,21.26c-5.22,0-9.45-4.21-9.49-9.42h0c-.31-5.23,3.68-9.73,8.91-10.03,5.23-.31,9.73,3.68,10.03,8.91.02.37.02.75,0,1.12h0c-.02,5.21-4.25,9.42-9.46,9.42Z"/>
        <path class="cls-20" d="m213.83,143.03h2.31c.02-6.5-5.24-11.79-11.74-11.81-.01,0-.02,0-.03,0v2.31c5.22,0,9.46,4.23,9.46,9.46,0,.01,0,.02,0,.03Z"/>
        <path class="cls-9" d="m213.83,143.06c-.02,5.21-4.25,9.42-9.46,9.42v2.31c6.48-.02,11.74-5.26,11.77-11.74h-2.31Z"/>
        <path class="cls-11" d="m194.88,143.06h-2.28c.02,6.49,5.28,11.74,11.77,11.74v-2.31c-5.22,0-9.45-4.21-9.49-9.42Z"/>
        <path class="cls-8" d="m194.88,143.03c0-5.24,4.25-9.49,9.49-9.49h0v-2.31c-6.5,0-11.77,5.27-11.77,11.77,0,.01,0,.02,0,.03h2.28Z"/>
        <path class="cls-11" d="m205.4,148.82l.26,1.46c1.93-.33,3.65-1.43,4.76-3.04l-1.22-.83c-.89,1.29-2.26,2.16-3.8,2.41Z"/>
        <path class="cls-16" d="m211.65,141.74l-1.46.23c.06.35.08.7.07,1.06.01,1.21-.36,2.39-1.06,3.37l1.22.83c.86-1.23,1.32-2.7,1.32-4.2,0-.43-.03-.86-.1-1.29Z"/>
        <path class="cls-16" d="m203.35,137.21l-.26-1.46c-1.94.32-3.65,1.42-4.76,3.04l1.19.83c.91-1.28,2.29-2.15,3.84-2.41Z"/>
        <path class="cls-8" d="m204.37,148.91c-2.86,0-5.31-2.05-5.82-4.86l-1.46.26c.64,3.52,3.7,6.08,7.28,6.08.43,0,.87-.04,1.29-.13l-.26-1.46c-.34.07-.68.1-1.03.1Z"/>
        <path class="cls-20" d="m204.37,137.11c2.86,0,5.31,2.05,5.82,4.86l1.46-.23c-.62-3.53-3.69-6.11-7.28-6.12-.43,0-.87.04-1.29.13l.26,1.46c.34-.07.68-.1,1.03-.1Z"/>
        <path class="cls-9" d="m198.45,143.03c0-1.22.37-2.41,1.06-3.41l-1.19-.83c-.89,1.23-1.36,2.71-1.36,4.23.01.43.06.86.13,1.29l1.46-.26c-.07-.34-.1-.68-.1-1.03Z"/>
        <path class="cls-7" d="m228.94,134.53c.02-.18-.11-.34-.3-.36-.01,0-.02,0-.03,0h-4.53v.73h4.53c.18,0,.33-.15.33-.33,0-.01,0-.02,0-.03Z"/>
        <path class="cls-20" d="m220.44,134.17c-.2,0-.36.16-.36.36s.16.36.36.36h3.64v-.73h-3.64Z"/>
        <path class="cls-8" d="m220.44,135.98c-.18,0-.33.15-.33.33-.02.18.11.34.3.36.01,0,.02,0,.03,0h5.85v-.69h-5.85Z"/>
        <path class="cls-7" d="m228.94,136.32c0-.18-.15-.33-.33-.33h-2.31v.69h2.31c.18,0,.33-.15.33-.33,0-.01,0-.02,0-.03Z"/>
        <path class="cls-7" d="m228.61,138.5c.2,0,.36-.16.36-.36s-.16-.36-.36-.36h-5.13v.73h5.13Z"/>
        <path class="cls-5" d="m220.11,138.13c-.02.18.11.34.3.36.01,0,.02,0,.03,0h3.04v-.73h-3.04c-.18,0-.33.15-.33.33,0,.01,0,.02,0,.03Z"/>
        <path class="cls-7" d="m228.61,140.28c.18,0,.33-.15.33-.33,0-.01,0-.02,0-.03,0-.18-.15-.33-.33-.33h-.66v.69h.66Z"/>
        <path class="cls-11" d="m220.11,139.92c-.02.18.11.34.3.36.01,0,.02,0,.03,0h7.51v-.69h-7.51c-.18,0-.33.15-.33.33Z"/>
        <rect class="cls-7" x="219.45" y="143.99" width="11.34" height="6" rx=".83" ry=".83"/>
        <rect class="cls-5" x="219.12" y="143.79" width="11.34" height="6" rx=".83" ry=".83"/>
        <rect class="cls-4" x="220.74" y="145.08" width="3.7" height="1.2" rx=".6" ry=".6"/>
        <rect class="cls-4" x="220.77" y="147.23" width="3.7" height="1.2" rx=".6" ry=".6"/>
        <rect class="cls-3" x="213.8" y="71.6" width="21.59" height="42.37" rx="1.75" ry="1.75"/>
        <line class="cls-3" x1="216.21" y1="109.79" x2="230.53" y2="109.79"/>
        <line class="cls-3" x1="216.28" y1="107.71" x2="230.59" y2="107.71"/>
        <line class="cls-3" x1="216.34" y1="105.66" x2="230.66" y2="105.66"/>
        <line class="cls-3" x1="216.41" y1="103.58" x2="230.73" y2="103.58"/>
        <line class="cls-3" x1="216.51" y1="101.53" x2="230.79" y2="101.53"/>
        <line class="cls-3" x1="216.57" y1="99.48" x2="230.86" y2="99.48"/>
        <line class="cls-3" x1="216.64" y1="97.39" x2="230.93" y2="97.39"/>
        <line class="cls-3" x1="216.71" y1="95.34" x2="231.02" y2="95.34"/>
        <line class="cls-3" x1="216.77" y1="93.26" x2="231.09" y2="93.26"/>
        <line class="cls-3" x1="216.84" y1="91.21" x2="231.16" y2="91.21"/>
        <rect class="cls-5" x="216.77" y="84.73" width="13.76" height="2.48" rx=".07" ry=".07"/>
        <rect class="cls-5" x="216.84" y="81.09" width="13.76" height="2.48" rx=".07" ry=".07"/>
        <path class="cls-7" d="m207.81,76.39h-78.44c-.11,0-.2-.09-.2-.2s.09-.2.2-.2h78.44c.11,0,.2.09.2.2s-.09.2-.2.2Z"/>
        <path class="cls-7" d="m207.81,81.45h-78.44c-.11,0-.2-.09-.2-.2s.09-.2.2-.2h78.44c.11,0,.2.09.2.2s-.09.2-.2.2Z"/>
        <path class="cls-7" d="m207.81,86.51h-78.44c-.11,0-.2-.09-.2-.2-.02-.09.03-.18.12-.2.02,0,.05,0,.07,0h78.44c.11,0,.2.09.2.2s-.09.2-.2.2Z"/>
        <path class="cls-7" d="m207.81,91.57h-78.44c-.11,0-.2-.09-.2-.2,0-.13.07-.23.2-.23h78.44c.11.02.2.12.2.23,0,.11-.09.2-.2.2Z"/>
        <path class="cls-7" d="m207.81,96.63h-78.44c-.13,0-.2-.1-.2-.23,0-.11.09-.2.2-.2h78.44c.11,0,.2.09.2.2,0,.12-.08.21-.2.23Z"/>
        <path class="cls-7" d="m207.81,101.66h-78.44c-.09.02-.18-.03-.2-.12,0-.02,0-.05,0-.07,0-.11.09-.2.2-.2h78.44c.11,0,.2.09.2.2s-.09.2-.2.2Z"/>
        <path class="cls-7" d="m207.81,106.72h-78.44c-.11,0-.2-.09-.2-.2s.09-.2.2-.2h78.44c.11,0,.2.09.2.2s-.09.2-.2.2Z"/>
        <path class="cls-8" d="m204.5,78.61v31.55h-72.79s-1.22-6.88,8.5-8.07c9.72-1.19,8.07-12.96,20.6-11.34,12.53,1.62,11.74-12.14,18.62-8.9s6.45-2.02,12.53-1.19c6.08.83,6.05-6.48,12.53-2.05Z"/>
        <polygon class="cls-20" points="198.65 70.61 196.2 68.16 196.2 69.95 181.06 74.05 180.99 74.05 165.61 82.18 153.21 84.66 142.43 94.19 135.98 95.9 128.61 102.85 129.5 103.78 136.64 97.06 143.06 95.34 153.77 85.85 166.04 83.4 181.49 75.27 196.2 71.27 196.2 73.02 198.65 70.61"/>
        <rect class="cls-9" x="74.31" y="51" width="170.64" height="3.71"/>
        <path class="cls-21" d="m83.01,231.16s-1.65,20.87,1.42,37.77l-7.24,10.58s12.6-2.38,14.78-8.96l3.11-32.94c.12-1.44.47-2.86,1.03-4.2l1.69-4.17-14.78,1.92Z"/>
        <path class="cls-9" d="m89.95,160.62h0c-.38,2.51-1.22,4.94-2.48,7.14-.92,1.68-1.55,3.5-1.85,5.39-.29,1.74-.3,3.51-.03,5.26.57,3.94.55,7.94-.07,11.87l-7.54,77.02,16.73-.2,9.59-83.24.1,82.9,19.68-.36-3.7-106.45-30.42.66Z"/>
        <polygon class="cls-23" points="111.15 265.12 109.06 265.12 106.98 243.89 111.15 265.12"/>
        <path class="cls-13" d="m96.7,169.48l19.51-1.98c1.65-.16,2.92-1.52,2.98-3.17l.07-2.15,1.16-1.12v-1.09l-30.42.66h0c-.38,2.51-1.22,4.94-2.48,7.14-.92,1.68-1.55,3.5-1.85,5.39-.26,1.55-.3,3.13-.13,4.7l5.19-5.42c1.58-1.67,3.7-2.71,5.99-2.94Z"/>
        <path class="cls-7" d="m105.99,178.28l-1.29-.86c-.45-.3-.72-.81-.73-1.36v-10.15h.17v10.15c0,.49.25.95.66,1.22l1.29.86-.1.13Z"/>
        <path class="cls-7" d="m88.93,180.26l-.1-.13c1.42-.96,1.46-2.25,1.46-2.25l.66-7.87h.17l-.66,7.87c0,.07-.03,1.36-1.52,2.38Z"/>
        <path class="cls-6" d="m154.87,119.68l-2.91.96-4.73,1.82c.62-.28,1.09-.81,1.29-1.46.07-.17-.07-.33-.2-.3l-1.29.07-1.46.79c-1.16.6-2.06,1.62-2.51,2.84l-.2.56-12.2,12.4,8.17,6.48,10.12-13.36c5.26-3.54,5.19-7.94,5.09-8.9,0-.11.04-.21.13-.26.52-.3.89-.82.99-1.42.04-.1-.02-.22-.12-.25-.06-.02-.13-.01-.18.02Z"/>
        <polygon class="cls-12" points="134.99 132.91 143.16 138.13 141.8 139.92 134.99 132.91"/>
        <path class="cls-12" d="m146.5,126.33c1.36-1.52.83-3.8.83-3.8,0,0-.2,2.65-.83,3.8Z"/>
        <path class="cls-12" d="m146.63,130.33s1.39.69,2.28.13l-2.28-.13Z"/>
        <path class="cls-12" d="m149.41,128.25s1.26-1.65,2.31-2.31c0,0,.66-1.92,1.26-2.18,0,0-.73.36-1.72,1.95,0,0-1.72,1.42-1.85,2.55Z"/>
        <path class="cls-20" d="m134.93,132.74l-6.18,6.12-6.55-13.49c-.33-.8-.85-1.5-1.52-2.05l-1.06-.79-3.54-2.81c-1.62-1.3-3.41-2.37-5.32-3.17l-.3-.13c-4.61-1.95-9.79-2.12-14.52-.46l-3.21,1.12c-.71.24-1.4.53-2.05.89l-6.02,3.11c-.56.3-1.03.73-1.39,1.26-1.3,1.93-2.02,4.19-2.08,6.51l-.73,26.22c-.51,5.05,3.17,9.56,8.22,10.07,1.38.14,2.77-.04,4.08-.51,3.6,1.22,12.7,2.98,27.12-2.91v-13.1l1.59,1.79c2.84,3.24,7.77,3.57,11.01.73.26-.23.5-.47.73-.73l9.66-10.95-7.94-6.71Z"/>
        <path class="cls-16" d="m123.58,134.17c-.63-2.12-3.64-5.39-3.97-9.89,0,0-.36,12.37.13,21.79l.36,2.18,1.52-6.61c.27-1.03.62-2.04,1.06-3.01.6-1.22,1.29-3.11.89-4.46Z"/>
        <path class="cls-20" d="m118.13,127.29l3.34,6.38c.39.76.53,1.63.4,2.48-.3,1.82-1.16,4.93-3.74,7.31v-16.17Z"/>
        <rect class="cls-10" x="117.27" y="159.33" width="3.44" height="2.63"/>
        <path class="cls-16" d="m125.96,142.1c-.12-1.5.68-2.92,2.02-3.6,0,0-1.55,1.85-2.02,3.6Z"/>
        <path class="cls-16" d="m128.41,138.96s-1.95,1.22-1.19,3.04l1.19-3.04Z"/>
        <path class="cls-16" d="m111.02,133.47l-19.35,1.85c-.39-2.06-1.38-3.96-2.84-5.46,1.49,2.45,1.75,6.55,1.75,6.55l.43,17.53v.5l2.55,9.46c-.24.3-.54.54-.89.69l.76.3c5.99,2.15,18.16-.43,18.16-.43l3.34-29.56c-1.03-1.02-2.46-1.54-3.9-1.42Z"/>
        <path class="cls-23" d="m110.29,92.66l1.88.43s2.12,3.31,1.85,6.58l-.69,11.71s-.4,1.88-2.84,2.84l-3.97-1.36,3.77-20.21Z"/>
        <path class="cls-23" d="m99.01,88.99c-2.84,1.12-4.97,3.53-5.72,6.48-.16.51-.24,1.05-.23,1.59v5.52c0,1.43-.55,2.81-1.52,3.87-.86.93-1.52,2.38-.23,4.1l2.71.96,1.49-1.79-.66,1.79s4.3,3.7,8.53,1.52l7.8-19.08-12.17-4.96Z"/>
        <path class="cls-6" d="m103.38,118.99l1.65,2.81-.07-3.24,3.44-3.17h.03l-.4-.1v-7.28h-10.09v7.18h0l5.42,3.8Z"/>
        <path class="cls-19" d="m104.14,123.09l.99,21.03c.04.59.26,1.16.63,1.62l3.11,3.94c.28.34.78.39,1.12.11.14-.11.23-.27.27-.44l.76-4.53c.04-.31.03-.62-.03-.93l-4.76-21.1c-.13-.57-.7-.92-1.27-.79-.09.02-.17.05-.25.09h0c-.38.18-.6.58-.56.99Z"/>
        <path class="cls-19" d="m100.47,119.45s2.48,2.71,4.73,2.94c0,0,1.88-2.15,2.18-3.11l-.73-.56-1.69,2.15s-3.01-1.16-3.77-1.85c0,0-.53.43-.73.43Z"/>
        <path class="cls-19" d="m103.87,120.18c.66,0,1.31-.08,1.95-.23.48-.13,1,0,1.36.36h.03c.43.41.53,1.06.26,1.59l-.63,1.22c-.16.38-.51.66-.93.73l-.66.17c-.45.1-.93-.04-1.26-.36l-1.12-1.12c-.38-.38-.5-.95-.3-1.46h0c.2-.54.71-.9,1.29-.89Z"/>
        <path class="cls-12" d="m108.04,114.39v-6.42h-10.09v7.18l10.09-.76Z"/>
        <path class="cls-23" d="m103.44,87.87h1.09c4.51,0,8.17,3.66,8.17,8.17h0v4.73c0,3.96-3.21,7.18-7.18,7.18h-4.99c-3.56,0-6.45-2.89-6.45-6.45h0v-4.27c0-5.17,4.19-9.36,9.36-9.36Z"/>
        <path class="cls-6" d="m112.47,99.21c.02-3.36-2.69-6.1-6.05-6.12-.01,0-.02,0-.03,0h-3.11c-3.38,0-6.12,2.74-6.12,6.12v1.29c-.89,0-1.62.83-1.62,1.85s.73,1.88,1.62,1.88v2.48c0,2.02,1.15,3.86,2.98,4.73l3.94,1.92c2.12,1.03,4.65.57,6.28-1.12l.33-.36c1.14-1.18,1.79-2.76,1.79-4.4v-8.27Z"/>
        <path class="cls-17" d="m104.83,108.97c-.17-.3,4.53,0,4.53,0,0,0-2.55,3.67-4.53,0Z"/>
        <path class="cls-12" d="m107.25,104.27l-.3.07c.59.18.93.81.74,1.41-.11.36-.39.64-.74.74l.3.07c.63,0,1.14-.5,1.16-1.12,0-.64-.52-1.16-1.16-1.16h0Z"/>
        <path class="cls-12" d="m97.13,102.52v-.1c-.03-.16-.17-.29-.33-.3-.2-.02-.38.13-.4.33,0,.01,0,.02,0,.03,0,.16.09.3.23.36.07.03.12.09.13.17l.07.1.13.13c.16.04.32-.06.36-.22,0-.01,0-.03,0-.04,0-.09-.03-.17-.1-.23-.07-.06-.1-.14-.1-.23Z"/>
        <path class="cls-12" d="m110.52,94.85s-3.77,6.58-11.61,5.65c0,0,.6,1.88-.96,2.48l-.99-4,12.6-5.09.96.96Z"/>
        <path class="cls-23" d="m96.7,100.67c.41.51.71,1.09.89,1.72.01.16.15.29.32.28.08,0,.16-.05.21-.11.43-.46.86-1.36.33-2.78,0,0,6.81,1.55,12.14-5.03h0c.02-3.82-3.06-6.93-6.87-6.95-.1,0-.2,0-.3,0h-.2c-3.48.21-6.16,3.13-6.08,6.61.03,2.09-.11,4.18-.43,6.25Z"/>
        <path class="cls-9" d="m97.16,97.96l-.3-.1c.36-1.36,1.42-1.32,2.18-1.29s.99,0,1.09-.43c.36-1.42,2.12-2.05,3.44-1.72s1.82.3,2.74-.93,2.15-.69,2.15-.66l-.17.26.1-.13-.1.13s-.86-.56-1.72.6-1.75,1.36-3.08,1.03-2.74.3-3.04,1.52c-.2.69-.83.66-1.46.63s-1.52-.03-1.85,1.09Z"/>
        <path class="cls-9" d="m95.54,96.33l-.3-.1c.36-1.36,1.42-1.32,2.18-1.29s.99,0,1.09-.43c.36-1.42,2.12-2.05,3.44-1.72s1.82.3,2.74-.93,2.15-.69,2.18-.66l-.2.26.1-.13-.1.13s-.86-.56-1.72.6-1.75,1.36-3.08,1.03-2.74.3-3.04,1.52c-.2.69-.83.66-1.42.66s-1.55-.07-1.88,1.06Z"/>
        <rect class="cls-10" x="92.85" y="134.74" width="24.64" height="31.7" rx=".66" ry=".66" transform="translate(-15.41 12.03) rotate(-6.1)"/>
        <path class="cls-10" d="m97.95,136.41l1.22-1.72c.23-.33.59-.55.99-.6l8.14-.99c.47-.04.94.14,1.26.5l1.29,1.46-12.9,1.36Z"/>
        <rect class="cls-8" x="93.58" y="135.06" width="24.64" height="31.7" rx=".66" ry=".66" transform="translate(-15.44 12.11) rotate(-6.1)"/>
        <circle class="cls-10" cx="108.83" cy="135.75" r=".46"/>
        <circle class="cls-10" cx="100" cy="137.11" r=".46"/>
        <path class="cls-10" d="m94.98,164.46l16.83-6.02c.37.25.79.43,1.22.53,0,0-.66,1.09.3,1.52l2.71-2.05.89-1.46s1.82.36,2.08-.46l-5.03-2.15-19.44,6.08.43,4Z"/>
        <path class="cls-6" d="m108.63,151.46c-5.93.33-11.83,1.13-17.63,2.41l2.61,10.09,18.32-6.51c.72.64,1.65,1.02,2.61,1.06-1.88,1.09-1.29,2.05-1.29,2.05l3.21-1.79.76-2.94c1.36,1.32,3.11.5,3.11.5l-6.61-3.7c-1.55-.86-3.32-1.26-5.09-1.16Z"/>
        <path class="cls-12" d="m114.85,155.73s1.09.1,1.22.89l-1.22-.89Z"/>
        <path class="cls-12" d="m114.29,156.16s1.09.1,1.22.93l-1.22-.93Z"/>
        <path class="cls-12" d="m117.03,155.69l-1.32-.99,3.47,1.62-.33.26c-.68-.13-1.3-.44-1.82-.89Z"/>
        <polygon class="cls-12" points="93.59 163.96 95.28 163.43 91.04 153.94 93.59 163.96"/>
        <path class="cls-16" d="m87.34,154.77s-2.74.83-2.61,2.98l2.61-2.98Z"/>
        <path class="cls-13" d="m104.07,181.42l.1,3.77-3.21,27.61s-.03-22.19,3.11-31.38Z"/>
        <path class="cls-9" d="m279.11,237.61c-7.04,0-12.76-3.24-12.76-7.24h25.53c0,4-5.72,7.24-12.76,7.24Z"/>
        <rect class="cls-5" x="276.06" y="237.64" width="4.99" height="52.68"/>
        <path class="cls-9" d="m246.77,234.37h0c.52.76,1.39,1.22,2.31,1.22h48.81c6.09-.02,11.3-4.39,12.37-10.38l11.87-58.27c.33-1.87-.92-3.65-2.79-3.98-.19-.03-.39-.05-.58-.05h-38.49l-16.34,58.96-16.17,8.47c-1.36.74-1.87,2.45-1.13,3.81.04.08.09.15.13.22Z"/>
        <path class="cls-11" d="m243.92,231.32h0c.54.74,1.4,1.19,2.31,1.19h48.81c6.08,0,11.31-4.23,12.37-9.99l11.87-56.38c.29-1.82-.95-3.53-2.77-3.83-.2-.03-.4-.05-.61-.04h-38.49l-16.34,57.01-16.14,8.17c-1.31.61-1.87,2.17-1.25,3.48.06.14.14.27.23.39Z"/>
        <path class="cls-10" d="m297.82,162.47h8.83v52.98c0,1.2-.14,2.4-.43,3.57,0,.03-.03.1-.03.13-1.68,6.58-7.53,11.23-14.32,11.38l-35.02.89,40.97-68.95Z"/>
        <path class="cls-9" d="m266.77,204.11l-14.88,4.86c-7.79,2.53-14.55,7.5-19.28,14.19l-28.54,44.11,11.84,5.19,38.56-43.02,28.9-1.95c11.08-1.29,18.55-12.04,15.71-22.82-.03-.19-.07-.38-.13-.56h-32.18Z"/>
        <path class="cls-23" d="m299.08,204.67c-.03-.19-.07-.38-.13-.56h-32.18l-14.88,4.86c-7.5,2.42-14.05,7.13-18.75,13.46-.07,2.15.07,4.43.83,5.95,1.26,2.48,4.07,11.34,5.92,17.3l14.58-16.24,28.9-1.95c11.08-1.29,18.55-12.04,15.71-22.82Z"/>
        <path class="cls-9" d="m300.6,204.11s2.28,6.32,1.72,13.26c-.51,6.52-5.8,11.64-12.33,11.94l-31.75,1.52,14.91,40.94-12.76,6.15-23.91-47.92c-1.48-3.05-1.92-6.5-1.26-9.82.79-3.6,2.91-7.44,8.37-8.5l57.01-7.57Z"/>
        <path class="cls-17" d="m302.62,203.18l-3.6-45.77c-.19-2.55-1.15-4.98-2.74-6.98-1.49-1.88-3.49-3.29-5.75-4.07l-9.33-3.27-8.99,2.35-5.42,6.51v-.13l-1.09.86c-2.06,1.61-3.54,3.83-4.23,6.35l-8.86,33-30.52,3.57v10.38h33.6c2.69,0,5.3-.98,7.31-2.78-.05.83.24,1.64.79,2.25l1.19,1.29c.6.63,1.39,1.06,2.25,1.22,8.86,1.79,26.69.23,31.32-.2.73-.07,1.42-.39,1.95-.89l1.06-.96c.76-.7,1.16-1.71,1.09-2.74Z"/>
        <path class="cls-10" d="m265.81,199.05s8.76,8.6,21.79,5.79c0,0-15.44,4.76-21.79-5.79Z"/>
        <polygon class="cls-19" points="279.7 156.75 262.57 173.35 262.57 178.54 279.7 156.75"/>
        <path class="cls-19" d="m222.13,193.59v5.16l37.9-2.05s.5,5.16,3.11,6.22l.5-46.16-6.75,32.67-34.76,4.17Z"/>
        <rect class="cls-20" x="138.66" y="30.49" width="54.17" height="15.38" rx="4.53" ry="4.53"/>
        <path class="cls-8" d="m145,39.95v-2.74c0-.55.45-.99.99-.99h0c.54,0,.98.45.98.99v2.74c0,.55-.45.99-.99.99h0c-.54,0-.98-.45-.98-.99Z"/>
        <path class="cls-8" d="m148.56,39.79v-2.74c0-.55.44-.99.99-.99h0c.54,0,.99.44.99.99v2.74c0,.55-.44.99-.99.99h0c-.54,0-.99-.44-.99-.99Z"/>
        <path class="cls-8" d="m152.92,39.98v-2.74c0-.55.45-.99.99-.99h0c.54,0,.98.45.98.99v2.74c0,.55-.45.99-.99.99h0c-.54,0-.98-.45-.98-.99Z"/>
        <rect class="cls-17" x="163.44" y="35.61" width="1.42" height="5.92" transform="translate(125.29 202.64) rotate(-89.9)"/>
        <rect class="cls-8" x="171.1" y="35.65" width="1.42" height="5.92" transform="translate(132.9 210.36) rotate(-89.9)"/>
        <circle class="cls-8" cx="180.2" cy="38.66" r="1.06"/>
        <circle class="cls-8" cx="184.69" cy="38.7" r="1.06"/>
        <path class="cls-11" d="m171.9,45.87l-.46.4c-1.58,1.41-4.01,1.26-5.42-.32-.62-.7-.96-1.59-.97-2.52v-2.78h0c.46,0,.83-.37.83-.83v-.1h1.32c.57,0,1.03-.46,1.03-1.02,0-.01,0-.02,0-.03v-.99c0-.57-.46-1.03-1.03-1.03h-5.49c-.57-.02-1.04.43-1.06.99,0,.01,0,.02,0,.03v.99c0,.58.47,1.06,1.06,1.06h1.09v.1c0,.46.37.83.83.83h.23v2.78c0,2.13,1.36,4.03,3.37,4.73.53.2,1.09.3,1.65.3,1.23,0,2.42-.46,3.34-1.29l1.46-1.29h-1.79Z"/>
        <path class="cls-19" d="m264.13,193.59l4.7-2.65c2.39-1.34,4.52-3.09,6.32-5.16l14.91-19.18-27.55,12.2,1.62,14.78Z"/>
        <path class="cls-5" d="m128.51,213.6h39.62v75.86c0,3.23-2.62,5.85-5.85,5.85h-27.91c-3.23,0-5.85-2.62-5.85-5.85v-75.86h0Z"/>
        <path class="cls-19" d="m167.93,218.16l-39.45,24.93v48.64s18.92,8.17,39.85-.46l-.4-73.12Z"/>
        <path class="cls-5" d="m-12.66,199.58v7.01c.93,5.75,68.62,10.42,157.38,10.42s160.78-4.66,161.74-10.42h0v-7.01H-12.66Z"/>
        <path class="cls-19" d="m306.39,200.11c0-5.82-72.42-10.52-161.77-10.52s-157.28,4.37-157.28,10.19,67.96,10.88,157.28,10.88,161.77-4.73,161.77-10.55Z"/>
        <polygon class="cls-9" points="142.96 194.82 145.94 194.82 133.37 205.4 106.25 205.07 107.25 204.41 106.25 204.41 125.43 193.82 142.96 194.82"/>
        <path class="cls-22" d="m267.17,193.26l-31.58,7.08-37.07,1.09h0c-.91,0-1.65.74-1.65,1.65,0,.52.25,1.01.66,1.32l2.18,1.65c.3.21.66.32,1.03.33,3.67-.07,24.07-.03,31.48,0,1.78,0,3.55-.3,5.22-.89l3.54-1.22c1.67-.57,3.43-.86,5.19-.86h3.04c.6,0,1.19-.03,1.79-.1l50.4-5.79s-14.48-3.21-34.23-4.27Z"/>
        <path class="cls-22" d="m149.57,201.43h-3.34c-.55,0-.99.45-.99.99,0,.15.03.29.1.43h0c.15.36.51.58.89.56h43.59c1.25,0,2.36-.8,2.74-1.98h-42.99Z"/>
        <polygon class="cls-5" points="125.43 193.16 106.92 204.74 133.7 204.74 145.94 194.82 125.43 193.16"/>
        <polygon class="cls-17" points="125.1 192.5 106.58 204.07 133.37 204.07 145.61 194.15 125.1 192.5"/>
        <path class="cls-9" d="m198.15,172.56h36.81c1.29,0,2.39.92,2.61,2.18l4.1,22.35c.27,1.44-.67,2.82-2.1,3.09-.17.03-.34.05-.51.05h-36.81c-1.29,0-2.39-.92-2.61-2.18l-4.1-22.35c-.27-1.44.67-2.82,2.1-3.09.17-.03.34-.05.51-.05Z"/>
        <path class="cls-11" d="m196.2,172.56h36.77c1.29-.02,2.4.91,2.61,2.18l4.13,22.35c.27,1.44-.67,2.82-2.1,3.09-.17.03-.34.05-.51.05h-36.81c-1.29.02-2.4-.91-2.61-2.18l-4.1-22.35c-.29-1.41.62-2.8,2.03-3.09.19-.04.39-.06.58-.05Z"/>
        <path class="cls-9" d="m220.01,186.05c-1.79,0-3.27-1.19-3.27-2.65,0-.26.06-.52.17-.76-1.98,0-3.57,1.09-3.57,2.48s1.59,2.48,3.57,2.48,2.78-.63,3.31-1.55h-.2Z"/>
        <path class="cls-9" d="m199.54,200.24h46.76c.66,0,1.19.53,1.19,1.18h0c0,.65-.53,1.18-1.19,1.18h-46.76c-.66,0-1.19-.53-1.19-1.18h0c0-.65.53-1.18,1.19-1.18Z"/>
        <path class="cls-17" d="m269.98,144.98l-1.92,1.36c-.56.38-.7,1.14-.32,1.7.05.07.1.13.15.18l2.08,2.12s.93-.93,0-5.36Z"/>
        <path class="cls-14" d="m278.35,147.79l-7.44,3.84-5.09-16.2,11.77-4.3,3.51,9.66c.98,2.69-.19,5.7-2.74,7.01Z"/>
        <path class="cls-19" d="m270.91,151.63l1.32-5.49,9.13-6.65.17.69c.56,2.38.03,6.61-1.72,8.3s-5.75,2.91-8.9,3.14Z"/>
        <path class="cls-11" d="m270.91,154.5s1.32,26.39,4.43,35.15l.66,1.55c.34.86.49,1.79.46,2.71l-.33,6.32s-3.9-1.19-5.75-8.5c0,0-1.82-31.61-1.42-36.57l1.95-.66Z"/>
        <path class="cls-11" d="m269.15,149.48h2.51c.69.03,1.38-.16,1.95-.56l.73-.5.99,1.09-1.72,1.39s.03,2.78-3.31,4.63c-.74.41-1.66.19-2.15-.5-.79-1.09-1.46-3.11.99-5.56Z"/>
        <path class="cls-17" d="m283.57,143.13c.26-.66-2.22-3.64-2.22-3.64l-9.13,6.65,3.47,3.8c.47.51,1.26.55,1.78.08.04-.04.08-.07.11-.11l5.99-6.78Z"/>
        <polygon class="cls-15" points="267.66 141.38 273.62 142.1 267.17 139.79 267.66 141.38"/>
        <path class="cls-14" d="m267.07,117.17l-3.7,9.95-.79.17c-.41.07-.69.47-.62.88.01.06.03.12.05.18l.46,1.16-.69,1.85c-1.16,3.11.43,6.58,3.54,7.74l10.71,4,7.41-19.81-16.37-6.12Z"/>
        <ellipse class="cls-23" cx="266.02" cy="126.2" rx=".8" ry=".52" transform="translate(62.72 339.18) rotate(-71.71)"/>
        <path class="cls-23" d="m266.64,123.77l-.62.45s1.43-.12,2,.77c0,0,.04-1.67-1.39-1.22Z"/>
        <path class="cls-15" d="m277.92,130.46c.09-.33-.1-.66-.43-.76-.31-.1-.65.06-.75.37,0,0,0,.01,0,.02-.06.14-.04.3.03.43-.13.05-.23.16-.26.3-.1.22,0,.47.22.57.03.01.05.02.08.03.24.07.48-.07.56-.3.03-.07.04-.15.03-.23.25-.03.45-.2.53-.43Z"/>
        <path class="cls-15" d="m267.9,117.83s-2.18,5.59,4.66,7.47c0,0,1.55.3,1.55,1.85,0,0-1.88,3.44,1.22,4.03l1.88-4.03s-2.81-10.58-9.33-9.33Z"/>
        <path class="cls-23" d="m268.03,117.53s-1.06,4.96,4.2,6.65c0,0,3.11.13,2.35,2.74s-.93,3.14.76,4.2l.79-1.69c.33-.68,1.1-1.02,1.82-.79.5.2.93.63.93,1.55.02,1.27-.76,2.42-1.95,2.88l.23,2.38c.1.83.67,1.52,1.46,1.79.58.22,1.2.35,1.82.4,0,0,5.36-7.97,6.55-10.05s.46-6.38-2.35-7.64c-.37-.18-.7-.44-.96-.76-1.39-1.75-6.22-6.98-13.29-6.22,0,0-.4-.53-1.42-.13s-1.59,2.22-1.59,2.22c0,0-2.48-.13-3.14,1.06s-1.46,3.51,1.59,4.5c0,0,1.59-3.47,2.22-3.08Z"/>
        <path class="cls-8" d="m268.82,117.2s-.63,4.66,4.37,5.92c0,0-4.07-3.11-4.37-5.92Z"/>
        <path class="cls-8" d="m270.08,116.9s0,3.41,4.03,4.03c0,0-3.74-1.85-4.03-4.03Z"/>
        <path class="cls-17" d="m262.54,132.41h4.83s-3.14,4.6-4.83,0Z"/>
        <path class="cls-23" d="m19.28,215.95l6.15,61.51s8.99,3.08,15.84,0l1.65-59.16s-8.27-18.19-23.64-2.35Z"/>
        <path class="cls-23" d="m41.5,208.6h19.21c2.22-.02,4.38.64,6.22,1.88,2.68,1.88,5.32,5.42,3.44,11.84-3.31,11.34-14.19,58.9-14.19,58.9h-17.26l7.51-53.01h0c-7.21-.6-11.38-8.5-7.74-14.75l2.81-4.86Z"/>
        <path class="cls-9" d="m105.96,170.97h-38.79c-1.36,0-2.52.98-2.78,2.31l-4.33,23.58c-.29,1.51.69,2.96,2.2,3.26.18.03.36.05.55.05h38.82c1.35,0,2.5-.96,2.74-2.28l4.33-23.61c.29-1.51-.69-2.96-2.2-3.26-.18-.03-.36-.05-.55-.05Z"/>
        <path class="cls-8" d="m104.47,170.97h-38.79c-1.36,0-2.52.98-2.74,2.31l-4.37,23.58c-.27,1.53.74,2.99,2.27,3.26.17.03.34.04.51.04h38.79c1.35,0,2.5-.96,2.74-2.28l4.37-23.61c.27-1.53-.74-2.99-2.27-3.26-.17-.03-.34-.04-.51-.04Z"/>
        <path class="cls-17" d="m102.05,172.63h-34.43c-1.2.01-2.23.87-2.45,2.05l-3.84,20.93c-.26,1.33.61,2.61,1.94,2.87.17.03.34.05.51.04h34.39c1.19,0,2.21-.85,2.45-2.02l3.87-20.93c.24-1.37-.68-2.67-2.05-2.91-.13-.02-.27-.04-.4-.04Z"/>
        <polygon class="cls-19" points="101.96 179.54 68.13 179.54 69.08 174.74 102.91 174.74 101.96 179.54"/>
        <rect class="cls-19" x="80.56" y="181.75" width="20.44" height="1.28" rx=".63" ry=".63"/>
        <path class="cls-19" d="m99.74,184.33h-19.18c.4,0,.1.26.1.63h0c0,.35.28.63.63.63.01,0,.02,0,.03,0h19.15c.33.02.61-.23.63-.56,0-.02,0-.05,0-.07h0c0-.36-.26-.63-1.36-.63Z"/>
        <path class="cls-19" d="m99.84,186.88h-19.18c-.34.02-.61.29-.63.63h0c0,.36.3.66-.1.66h19.15c1.09,0,1.39-.3,1.39-.66h0c-.02-.34-.29-.61-.63-.63Z"/>
        <rect class="cls-9" x="51.19" y="200.17" width="51.82" height="2.48" rx="1.22" ry="1.22"/>
        <path class="cls-21" d="m57.71,127.12c.03.26-.3,7.34-.53,12.8-.18,3.58-3,6.47-6.58,6.71h0l-1.39,4.07h-14.05l2.84-15.94c0-4.29,2.05-8.32,5.52-10.85l.86-.6c2.88-2.13,6.71-2.47,9.92-.89,1.79.89,3.24,2.31,3.41,4.7Z"/>
        <circle class="cls-21" cx="56.78" cy="136.91" r="1.19"/>
        <path class="cls-23" d="m34.53,121.63c.76-1.92,3.17-2.88,5.32-3.37,2.19-.52,4.25-1.47,6.05-2.81,1.46-1.06,3.47-1.92,5.59-1.19l.23.07c.2.04.38.11.56.2,1.27.59,2.67.83,4.07.69.86-.07,1.71.19,2.38.73,2.02,1.65,2.05,3.47,1.26,5.16-.14.32-.15.69-.03,1.03.3.93.56,2.81-1.62,3.77-1.14.49-2.09,1.35-2.68,2.45-.27.45-.47.94-.6,1.46-.27,1.07-.81,2.05-1.59,2.84-.39.39-.98.51-1.49.3-.43-.2-1.09-.23-2.02.26s-1.52,2.22-1.03,3.44c.67,1.73.32,3.68-.93,5.06-1.21,1.47-2.77,2.6-4.53,3.31-1.73.65-3.65.5-5.26-.4l-.23-.17c-1.9-1.08-3.15-3.02-3.34-5.19-.23-2.74-.6-7.14-.66-10.91-.03-2.94.07-5.52.53-6.71Z"/>
        <path class="cls-10" d="m54.43,127.49s-3.87,1.92-7.21,1.39l7.21-1.39Z"/>
        <path class="cls-10" d="m54.43,128.87s-3.87,1.92-7.21,1.39l7.21-1.39Z"/>
        <path class="cls-10" d="m54.43,130.26s-3.87,1.92-7.21,1.39l7.21-1.39Z"/>
        <path class="cls-9" d="m32.97,128.08c.29-.28.69-.43,1.09-.43.23.05.43.18.56.36l.43-.26c-.19-.32-.52-.54-.89-.6-.46-.1-.99.1-1.52.53l.33.4Z"/>
        <path class="cls-9" d="m54.96,117.2c.47-.48.74-1.12.76-1.79-.02-.62-.29-1.21-.76-1.62l-.36.4c.36.31.58.75.63,1.22-.04.52-.26,1.01-.63,1.39l.36.4Z"/>
        <path class="cls-12" d="m49.18,136.48s1.03,1.82,2.84,2.22c0,0-3.04.43-2.84-2.22Z"/>
        <path class="cls-12" d="m51.33,134.56c.13.1.22.24.26.4.05.2.15.39.3.53.13.12.24.25.33.4.43.69-.63,1.46-1.12.76-.1-.12-.16-.27-.17-.43-.03-.3-.16-.58-.36-.79-.08-.08-.14-.19-.17-.3-.04-.33.19-.62.52-.66.14-.02.29.02.4.1Z"/>
        <path class="cls-12" d="m54.77,144.72s-3.37,2.74-7.64-.53c0,0,3.51,4.53,7.64.53Z"/>
        <path class="cls-17" d="m32.64,150.01l.69-1.52c.63-1.32,1.87-2.24,3.31-2.48l5.06-.79c.82-.12,1.65-.01,2.41.3l6.38,2.74c.97.4,1.77,1.14,2.25,2.08l1.98,3.97-22.09-4.3Z"/>
        <path class="cls-21" d="m78.97,184.17l-5.29-10.38-14.12,9.39,5.22,8.8c2.07,3.5,6.42,4.92,10.15,3.31h0c4.11-1.76,6.02-6.53,4.26-10.64-.07-.16-.14-.32-.22-.47Z"/>
        <path class="cls-17" d="m66.14,158.64c-.45-.86-1.03-1.64-1.72-2.31l-2.35-2.31c-.94-.9-2.07-1.58-3.31-1.98l-12.57-4.27c-2.26-.76-4.69-.86-7.01-.3l-13.79,3.37c-.84.2-1.63.57-2.31,1.09l-3.44,2.58c-1.03.77-1.8,1.83-2.22,3.04l-13.69,40.15h48.21l5.13-17.63,2.08,3.51,14.65-9.79-7.67-15.15Z"/>
        <polygon class="cls-19" points="22.36 162.01 34.36 165.85 50.43 164.03 35.02 164.49 22.36 162.01"/>
        <path class="cls-17" d="m56.88,180.46l-52.05,15.38.4,19.11h29.96c3.29,0,6.52-.92,9.33-2.65l5.82-3.7h-.3l6.85-28.14Z"/>
        <path class="cls-8" d="m50.43,208.64l-6.75,2.94c-1.65.83-3.45,1.29-5.29,1.36l-14.02.66v2.28l13.62-.73c2.48-.12,4.87-.94,6.91-2.35,2.08-1.42,5.13-3.21,5.52-4.17Z"/>
        <path class="cls-19" d="m13.46,176.83l2.78-8.14h10.02c1.92.02,3.77.71,5.22,1.95h0c1.64,1.4,2.65,3.4,2.81,5.56l-1.29,36.74-30.52,11.61,10.98-47.72Z"/>
        <path class="cls-19" d="m50.6,169.02l6.18,11.05-4.83,17.63s1.95-17.79-1.36-28.67Z"/>
        <path class="cls-23" d="m288.3,212.87l-.73.23c-1.01.37-2.07.59-3.14.66-1.58.19-3.06.87-4.23,1.95-1.22,1.06-2.6,1.91-4.1,2.51l-.83.3s9.72.26,13.03-5.65Z"/>
        <path class="cls-11" d="m-14.12,168.16H22.62c2.91,0,5.33,2.25,5.52,5.16l3.21,46.43c.22,2.92,2.66,5.18,5.59,5.19h20.67c1.3,0,2.34,1.06,2.33,2.36,0,.61-.25,1.2-.68,1.64h0c-.46.45-1.08.7-1.72.69l-61.67-2.18c-3.58-.1-6.6-2.72-7.21-6.25l-8.23-46.56c-.53-3,1.48-5.87,4.48-6.4.32-.06.65-.08.98-.08Z"/>
        <rect class="cls-9" x="149.08" y="179.21" width="35.42" height="7.4" rx="1.26" ry="1.26"/>
        <path class="cls-17" d="m149.08,180.79h31.71c.44,0,.79.36.79.79h0v2.38c0,.44-.36.79-.79.79h-31.71v-3.97h0Z"/>
        <rect class="cls-11" x="153.58" y="186.88" width="35.42" height="7.4" rx="1.26" ry="1.26"/>
        <path class="cls-17" d="m153.58,188.47h31.71c.44,0,.79.36.79.79h0v2.38c0,.44-.36.79-.79.79h-31.71v-3.97h0Z"/>
        <path class="cls-16" d="m191.9,194.82h-43.12c-.25-.02-.48.17-.5.43,0,.02,0,.05,0,.07v6.12c-.02.24.15.46.4.5v-5.85c0-.26.21-.46.46-.46h42.39c.26,0,.46.21.46.46h0v5.85c.24-.03.42-.25.4-.5v-6.12c.02-.25-.17-.48-.43-.5-.02,0-.05,0-.07,0Z"/>
        <path class="cls-20" d="m191.54,195.61h-42.39c-.26,0-.46.21-.46.46h0v5.85h43.32v-5.85c0-.26-.21-.46-.46-.46Z"/>
        <rect class="cls-16" x="150.93" y="198.25" width="2.65" height="1.06"/>
        <rect class="cls-16" x="154.37" y="198.25" width="2.65" height="1.06"/>
        <rect class="cls-16" x="157.78" y="198.25" width="2.65" height="1.06"/>
        <circle class="cls-16" cx="184.5" cy="198.75" r=".79"/>
        <circle class="cls-16" cx="186.61" cy="198.75" r=".79"/>
        <polygon class="cls-16" points="167.3 197.99 164.65 197.99 164.65 199.81 165.32 199.81 165.32 200.34 166.64 200.34 166.64 199.81 167.3 199.81 167.3 197.99"/>
        <polygon class="cls-16" points="171 197.99 168.36 197.99 168.36 199.81 169.02 199.81 169.02 200.34 170.34 200.34 170.34 199.81 171 199.81 171 197.99"/>
        <path class="cls-9" d="m162.8-54.2V30.79c0,.47.38.86.86.86h2.51c.47.02.87-.35.89-.83,0-.01,0-.02,0-.03V-54.2h-4.27Z"/>
        <polygon class="cls-15" points="218.49 190.48 217.73 191.14 218.62 191.41 218.49 190.48"/>
        <path class="cls-19" d="m227.42,202.69h-4.7c-1.35,0-2.49-1-2.65-2.35l-2.51-15.54h14.55l-2.05,15.51c-.14,1.36-1.28,2.39-2.65,2.38Z"/>
        <rect class="cls-5" x="216.9" y="184.8" width="15.87" height="2.05" rx="1.02" ry="1.02"/>
        <path class="cls-5" d="m219.42,183.51h11.08c.6,0,1.09.49,1.09,1.09v1.12h-13.26v-1.12c0-.6.49-1.09,1.09-1.09Z"/>
        <path class="cls-14" d="m235.59,197.73l-1.22-7.47.63-2.78h-3.34l-.26,1.52c-.21,1.06-1.05,1.88-2.12,2.05l-6.32.96c-1.22.2-2.47.1-3.64-.3l-1.52-.53s-.26,1.79.53,2.74l.73,3.47c.19.93.95,1.63,1.88,1.75,2.81.36,8.56.83,11.28-.89l.26-.1,3.11-.43Z"/>
        <path class="cls-15" d="m219.25,194.39s.4.89,1.22.4c0,0-.96-.03-1.22-.4Z"/>
        <path class="cls-15" d="m219.48,196.01s.4.89,1.22.4c0,0-.96-.03-1.22-.4Z"/>
        <path class="cls-15" d="m219.65,196.96s.4.89,1.19.4c0,0-.93-.03-1.19-.4Z"/>
        <path class="cls-17" d="m290.22,156.75h0c3,2.88,3.1,7.64.23,10.65l-16.34,17c-3.6,3.74-8.17,6.42-12.73,7.54l-26.32,6.61-2.38-11.18,30.39-12.17,16.4-18.06c2.81-3.08,7.58-3.29,10.65-.49.03.03.06.06.1.09Z"/>
        <path class="cls-19" d="m266.94,177.42l-3.87-2.22s3.34-.53,3.87,2.22Z"/>
        <path class="cls-19" d="m263.07,175.2l3.87,3.34s-3.87-1.69-3.87-3.34Z"/>
        <path class="cls-16" d="m97.99,113.27l-.96.26c-.56.15-1.01.56-1.22,1.09h0c-.23.47-.24,1.01-.03,1.49l1.95,4.76c.09.24.36.36.6.27.06-.02.12-.06.16-.11l1.98-1.65c.28-.26.65-.4,1.03-.4h1.88l-5.06-3.9c-.24-.18-.37-.46-.36-.76l.03-1.06Z"/>
        <path class="cls-16" d="m104.96,118.56l.76-.17c.24-.04.5.02.69.17l1.95,1.46c.15.13.38.12.51-.03.04-.05.07-.1.08-.16l.79-3.27c.06-.24.04-.5-.07-.73l-.13-.33c-.12-.29-.36-.52-.66-.63l-.99-.4v.79c0,.38-.15.74-.43.99l-2.51,2.31Z"/>
        <polygon class="cls-19" points="135.09 132.81 142.43 139.09 143.66 137.47 136.02 131.92 135.09 132.81"/>
        <polygon class="cls-19" points="90.94 153.84 93.65 164.03 95.24 163.37 92.53 153.54 90.94 153.84"/>
        <path class="cls-9" d="m20.37,234.43c-7.04,0-12.76-3.24-12.76-7.24h25.53c0,4-5.72,7.24-12.76,7.24Z"/>
        <rect class="cls-5" x="17.26" y="234.46" width="4.99" height="52.68"/>
        <ellipse class="cls-23" cx="105.21" cy="102.81" rx=".38" ry=".69"/>
        <ellipse class="cls-23" cx="109.36" cy="102.81" rx=".38" ry=".69"/>
        <circle class="cls-17" cx="97.05" cy="104.15" r=".65"/>
        <path class="cls-23" d="m105.59,100.72l.38.64s-1.64-.48-2.23.28c0,0,.17-1.41,1.85-.92Z"/>
        <path class="cls-23" d="m108.58,100.82l-.3.68s1.56-.68,2.25,0c0,0-.35-1.38-1.95-.68Z"/>
      </g>
    </g>
  </g>
</svg>