<?xml version="1.0" encoding="UTF-8"?>
<svg id="Layer_1" data-name="Layer 1" xmlns="http://www.w3.org/2000/svg" xmlns:xlink="http://www.w3.org/1999/xlink" viewBox="0 0 300 250">
  <defs>
    <style>
      .cls-1 {
        clip-path: url(#clippath);
      }

      .cls-2, .cls-3 {
        fill: none;
      }

      .cls-2, .cls-4, .cls-5, .cls-6, .cls-7, .cls-8, .cls-9, .cls-10, .cls-11, .cls-12, .cls-13, .cls-14, .cls-15, .cls-16, .cls-17, .cls-18, .cls-19, .cls-20, .cls-21, .cls-22, .cls-23, .cls-24, .cls-25, .cls-26, .cls-27, .cls-28 {
        stroke-width: 0px;
      }

      .cls-29 {
        clip-path: url(#clippath-1);
      }

      .cls-30 {
        clip-path: url(#clippath-2);
      }

      .cls-3 {
        stroke: #fff;
        stroke-miterlimit: 10;
      }

      .cls-4 {
        fill: #f4bc9b;
      }

      .cls-5 {
        fill: #f8dbd0;
      }

      .cls-6 {
        fill: #1d2844;
      }

      .cls-7 {
        fill: #071c40;
      }

      .cls-8 {
        fill: #0b1a30;
      }

      .cls-9 {
        fill: #071126;
      }

      .cls-10 {
        fill: #203254;
      }

      .cls-11 {
        fill: #172947;
      }

      .cls-12 {
        fill: #d34209;
      }

      .cls-13 {
        fill: #de9b80;
      }

      .cls-14 {
        fill: #df8230;
      }

      .cls-15 {
        fill: #db6e2d;
      }

      .cls-16 {
        fill: #d97141;
      }

      .cls-17 {
        fill: #d8846b;
      }

      .cls-18 {
        fill: #d0582f;
      }

      .cls-19 {
        fill: #b57e71;
      }

      .cls-20 {
        fill: #fdf7f4;
      }

      .cls-21 {
        fill: #fff;
      }

      .cls-22 {
        fill: #f0d9cf;
      }

      .cls-23 {
        fill: #fae6dc;
      }

      .cls-24 {
        fill: #e6a284;
      }

      .cls-25 {
        fill: #fcf1ec;
      }

      .cls-26 {
        fill: #ec6625;
      }

      .cls-27 {
        fill: #ecba9b;
      }

      .cls-28 {
        fill: #020d17;
      }
    </style>
    <clipPath id="clippath">
      <rect class="cls-2" x=".57" width="298.87" height="250"/>
    </clipPath>
    <clipPath id="clippath-1">
      <polygon class="cls-2" points="300 250 100.87 250 199.13 0 300 0 300 250"/>
    </clipPath>
    <clipPath id="clippath-2">
      <rect class="cls-2" x="13.59" width="298.87" height="250"/>
    </clipPath>
  </defs>
  <rect class="cls-20" x=".57" width="298.87" height="250"/>
  <g class="cls-1">
    <g>
      <g>
        <rect class="cls-7" x="122.13" y="19.89" width="2.04" height="97.71"/>
        <rect class="cls-7" x="-78.04" y="130.8" width="219.24" height="91.81"/>
        <path class="cls-22" d="m11.14,84.83h-53.78s-3.57,1.53-4.58,4.33c0,0-9.17,6.88-13.5,11.46-4.33,4.58-20.12,25.47-20.12,25.47l8.91,21.39,1.02,22.92-3.31,38.96h251.1s-36.16-79.63-36.16-79.63l-16.04-33.35-3.57-8.25-113.84,6.36,3.86-9.67Z"/>
        <path class="cls-21" d="m-15.39,73.88s-1.02,2.72,0,5.69c1.02,2.97,0,10.1,0,10.1l-.45,38.2s-.2,8.4,0,11.46-.09,21.65-.09,21.65l.5,12.48s1.06,2.63,9.98,1.7l100.93-6.28,13.94-51.27s9.4-22.58,6.86-35.57l-1.1-4.33-4.75,1.87-27.33,5.26-10.53.51-50.47-2.8-26.78-6.62s-6.11-2.8-10.7-2.04Z"/>
        <path class="cls-28" d="m46.72,90.24l-6.34-6.24c-4.55-4.48-7.76-10.15-9.21-16.38-1.6-6.87-2.32-15.15,2.18-18.42,0,0,1.13-10.54,9.41-10.92,0,0,7.53-4.52,9.04-1.32,0,0,9.04-4.71,14.31,0,0,0,9.05-.6,7.53,5.84,0,0,3.58-.56,3.95,3.39l-.94,3.39s5.39,7.29-.8,15.32l-29.13,25.34Z"/>
        <path class="cls-13" d="m44.54,79.56l1.86,16.85c.5,4.5-2.29,8.7-6.63,10l-8.47,2.52,15.11,4.28,31.24-.71,5.43-3.57-9.85-3.96-3.06-19.13-25.64-6.28Z"/>
        <path class="cls-17" d="m44.54,79.56l4.5,11.15c2.09,5.18,6.44,9.11,11.8,10.66l12.39,3.6-3.06-19.13-25.64-6.28Z"/>
        <path class="cls-13" d="m79.91,83.27l-1.92-22.89c-.14-1.66-.57-3.28-1.3-4.78-1.55-3.16-4.78-8.13-10.41-9.82,0,0-5.6-1.19-9.85,1.7,0,0,.51,2.89-2.89,4.92,0,0,2.38,5.6-3.06,7.64-5.43,2.04,2.38,6.11-4.92,7.98,0,0,1.32,2.34.33,4.33-2.03-.43-4.1.11-5.42,1.63-2.06,2.37-1.53,6.21,1.2,8.58,1.81,1.58,4.14,2.1,6.1,1.57l1.22,2.2c1.91,3.44,5.29,5.82,9.18,6.45l9.75,1.58c1.92.31,3.89.08,5.68-.68h0c4.14-1.74,6.68-5.95,6.31-10.42Z"/>
        <path class="cls-19" d="m43.76,70.99l4.01,13.15s2.09,6.94,8.34,8.14l15.56,2.9s7.47-.77,8.28-10.19l-.62-8.71-.9.42h0c-1.65-1.3-3.71-1.97-5.82-1.9l-3.64.13c-1.43.05-2.82.44-4.07,1.14l-3.91,2.2c-.9.51-1.96.62-2.94.32l-3.95-1.2c-2.38-.72-4.4-2.32-5.66-4.46l-2.87-4.91-1.8,2.97Z"/>
        <path class="cls-25" d="m74.84,80.36l-6.77-.8s.72,6.16,6.77.8Z"/>
        <path class="cls-26" d="m37.92,104.98s4.41,4.81,8.32,5.82c3.9,1.02,26.32,0,26.32,0,0,0,3.85-1.06,4.56-4.27l22.27,2.74s11.38,6.11,14.09,8.49c2.72,2.38,9.68,18.51,9.68,18.51l4.92,11.71s22.24,14.26,21.05,23.94c-1.19,9.68-3.06,10.53-3.06,10.53l-30.05,3.57-78.1,5.43h-16.98s-12.56,2.55-12.56,2.55c0,0-9.34-.34-12.9-4.07l-6.62-7.47s-2.89-26.99-1.53-30.39c1.36-3.4,25.82-35.65,25.82-35.65,0,0,4.4-5.43,10.52-7.13l14.26-4.3Z"/>
        <path class="cls-18" d="m131.3,168.87s-7.6-8.65-15.07-7.7c-7.47.95-8.74,2.1-8.74,2.1l-.64,8.66,24.45-3.06Z"/>
        <path class="cls-18" d="m30.45,135.02l-2.21,11.78s-2.21,6.62,0,10.53l3.06,4.07-5.6,1.02s2.21-2.04,0-8.83c0,0-8.66-10.53-6.96-20.37l7.13,16.98,4.07-28.01.62,3.78c.49,3,.45,6.07-.11,9.06Z"/>
        <path class="cls-18" d="m104.47,167v-6.79s1.87-3.9,1.87-3.9l-1.87-1.7s2.38-32.77.93-37.01c0,0-1.27,4.24-2.8,11.04-.91,4.05-.74,11.41-.45,16.7.23,4.26-.42,8.52-1.92,12.52l-1.71,4.56,5.94,4.58Z"/>
        <path class="cls-21" d="m45.39,159.53s6.79-1.02,9.51,1.36c0,0,8.35,1.94,9.35,8.27l1.34,9.73,21.56,1.6,14.61-.18,4.58-6.86v-11.04s-6.62-7.3-10.87-7.98c-4.24-.68-21.56-1.53-25.98-1.19s-24.11,6.28-24.11,6.28Z"/>
        <path class="cls-21" d="m-108.43,226.93l2.21-3.9s18.34-21.05,20.37-22.58c2.04-1.53,12.39-1.87,12.39-1.87l21.56-5.94s10.19-5.77,12.05-6.28c1.87-.51,32.15,0,32.15,0l3.89,4.23s4.36,3.07,12.17,3.41l12.56-2.55,9.34-2.72,8.49-4.41,3.57-4.75,38.71-1.7,9.69,2.44h16.73l22.13-1.42,6.96,2.55,9.51,1.02,16.47,6.28,12.73,6.62,6.28,3.4,22.92,35.82-95.06,22.61H-51.56l-58.74-22.61,1.87-7.64Z"/>
        <path class="cls-18" d="m81.72,122.18s-5.43,10.7-18.34,15.11c0,0,9.51-5.26,18.34-15.11Z"/>
        <path class="cls-18" d="m24.91,182.79s1.81-9.72,20.48-19.52c0,0,4.92-3.57,9-1.4,4.07,2.16,8.96,3.31,9,7.89l-36.5,16.6-1.98-3.57Z"/>
        <path class="cls-18" d="m23.15,163.26l-11.24,1.21c-3.01.32-5.95,1.15-8.69,2.45l-4.1,1.94,24.03-5.6Z"/>
        <path class="cls-13" d="m131.3,168.87l-16.13,1.53,1.87,5.94,8.66,4.24,10.87.85s.17-5.77-1.19-8.32l-4.07-4.24Z"/>
        <path class="cls-13" d="m107.87,168.87h10.7s7.68.47,9.85,6.28l-1.1,7.7c-.27,1.87-1.46,3.47-3.17,4.26h0c-1.07.49-2.29.55-3.41.16l-1.15-.41-2.85,2.49c-1.55,1.35-3.54,2.1-5.6,2.1h-1.05s-2.2,1.5-2.2,1.5c-.95.65-2.17.75-3.21.26h0c-1.68-.78-2.37-2.8-1.53-4.44l5.59-10.91-2.38,1.53-5.05,7.99c-.62.98-1.84,1.37-2.91.93h0c-1.24-.5-1.82-1.93-1.28-3.16l3.5-8.01c1.2-2.76,3.1-5.15,5.51-6.96l1.76-1.32Z"/>
        <path class="cls-17" d="m109.42,191.9l8.47-13.01s-3.69,10.41-8.47,13.01Z"/>
        <path class="cls-13" d="m31.3,173.79l16.47-2.55,25.47-3.23s2.38-.85,4.07.85l14.09,6.28,4.07,4.92-27.41,1.36-18.6,3.96s-4.41-.39-6.28-2.77c0,0-3.23-2.38-5.77-1.19l-10.53,4.92-1.98-3.57s3-7.3,6.39-9Z"/>
        <path class="cls-17" d="m77.48,173.45l8.6,2.87c1.47.49,2.76,1.43,3.68,2.67l.97,1.31,2.03-.1-1.4-1.61c-.98-1.12-2.26-1.93-3.69-2.33l-10.2-2.82Z"/>
        <rect class="cls-22" x="103.95" y="16.58" width="1.6" height="5.47" transform="translate(209.5 38.62) rotate(-180)"/>
        <rect class="cls-7" x="102.27" y="15.92" width="43.8" height="1.32"/>
        <path class="cls-7" d="m94.6,34.39l3.46,4.47v-2.55s-1.8-3.05-1.8-3.05c-.36-.61-1.22-.67-1.66-.11h0c-.29.36-.29.88,0,1.24Z"/>
        <polygon class="cls-7" points="126.08 14.92 119.97 14.92 121.24 21.29 124.93 21.29 126.08 14.92"/>
        <path class="cls-16" d="m124.32,149.89c2.6-1,4.15-3.64,3.76-6.41-.75-5.32-3.02-15.79-9.84-26.12-9.8-14.85-13.04-47.06-13.07-47.38v-17.87s-.85,0-.85,0v17.92c.03.37,3.29,32.79,13.21,47.81,6.73,10.19,8.97,20.52,9.71,25.77.33,2.38-.99,4.63-3.22,5.49l.31.8Z"/>
        <path class="cls-22" d="m108.58,22.69c-1.86-.78-4.5-1.25-7.58.05-1.78.75-2.94,2.49-2.94,4.42v17.33c0,.75.22,1.47.64,2.09.84,1.24,2.45,3.25,4.52,4v2.93h3.06v-2.86c1.43-.47,2.97-1.7,4.56-4.13.39-.6.6-1.32.6-2.04v-17.41c0-1.89-1.1-3.64-2.85-4.37Z"/>
        <path class="cls-3" d="m42.4,72.61h7.99s17.24,0,17.24,0l5.75.88c1.05.16,2.12-.11,2.96-.75l1.03-.78,1.5-.98"/>
        <path class="cls-17" d="m74.58,67.25c-.06,0-.11.01-.17.02.72.68,1.17,1.65,1.17,2.72,0,1.08-.46,2.05-1.19,2.74.07,0,.13.02.19.02,1.52,0,2.75-1.23,2.75-2.75s-1.23-2.75-2.75-2.75Z"/>
        <path class="cls-28" d="m66.1,63.18c0,.95-.46,1.72-1.02,1.72-.56,0-1.02-.77-1.02-1.72s.46-1.72,1.02-1.72,1.02.77,1.02,1.72Z"/>
        <ellipse class="cls-28" cx="75.86" cy="63.18" rx="1.02" ry="1.72"/>
        <path class="cls-28" d="m65.76,56.88l1.03,1.45s-5.16-.39-6.75,2.52c0,0,.28-4.15,5.72-3.96Z"/>
        <path class="cls-28" d="m74.11,57.31l-.75,1.52s3.26-.94,4.04,1.73c0,0,.13-4.02-3.29-3.26Z"/>
        <path class="cls-18" d="m117.89,150.28s6.66-4.58,13.41,3.82c0,0-4.92-5.98-13.41-3.82Z"/>
      </g>
      <g class="cls-29">
        <g>
          <rect class="cls-23" x="13.59" width="298.87" height="250"/>
          <g class="cls-30">
            <g>
              <path class="cls-5" d="m68.66,161.46H13.03v-13.6h55.63c1.54,0,2.79,1.25,2.79,2.79v8.05c-.01,1.53-1.26,2.76-2.79,2.76"/>
              <path class="cls-23" d="m74.27,234.98c-2.47-.57-4.93.96-5.51,3.43-.16.68-.16,1.39,0,2.08.39,1.7,1.71,3.02,3.41,3.41,2.45.63,4.95-.84,5.58-3.29.63-2.45-.84-4.95-3.29-5.58-.07-.02-.13-.03-.2-.05m.69,4.01c.25.96-.33,1.94-1.29,2.18-.29.07-.59.07-.89,0-.64-.16-1.13-.66-1.29-1.29-.24-.96.34-1.94,1.3-2.18.29-.07.6-.07.89,0,.62.17,1.11.66,1.27,1.29h.02Z"/>
              <path class="cls-5" d="m71.63,165.37H13.03v-3.21h70.78v-16.72h-6.86v10.19c-1.42,1.62-3.22.63-3.22-.77v-12.61h13.29v23.12h-12.22v67.34h2.12v2.39h-7.42v-2.39h2.12v-6.01H13.03v-1.89h58.6v-59.43Z"/>
              <polygon class="cls-5" points="114.7 44.45 235.95 44.74 235.95 241.97 114.7 241.69 114.7 44.45"/>
              <rect class="cls-23" x="120.31" y="49.91" width="109.6" height="185.18"/>
              <path class="cls-20" d="m175.32,75.22c8.83,0,15.99,7.16,15.99,15.99s-7.16,15.99-15.99,15.99-15.99-7.16-15.99-15.99,7.16-15.99,15.99-15.99"/>
              <rect class="cls-5" x="13.03" y="241.5" width="334.44" height="10.59"/>
              <path class="cls-10" d="m219.54,134.78l-.08,4.54s-21.77,1.39-29.2,1.93c-7.43.54-17.5,0-17.5,0v-6.47h46.78Z"/>
              <path class="cls-10" d="m184.37,134.78l-.3,2c-.75,5.14-3.02,9.94-6.51,13.79l-1.43,1.59,8.24-17.38Z"/>
              <path class="cls-20" d="m199.45,240.28c7.78,0,14.09,6.31,14.09,14.09s-6.31,14.09-14.09,14.09-14.09-6.31-14.09-14.09,6.31-14.09,14.09-14.09"/>
              <path class="cls-6" d="m182.5,254.37c0-9.35,7.58-16.93,16.93-16.94,9.35,0,16.93,7.58,16.94,16.93,0,9.35-7.58,16.93-16.93,16.94h0c-9.34-.01-16.92-7.58-16.93-16.93m5.67,0c0,6.22,5.04,11.26,11.26,11.26s11.26-5.04,11.26-11.26-5.04-11.26-11.26-11.26c-6.21.02-11.23,5.05-11.24,11.26h-.02Z"/>
              <path class="cls-20" d="m241.24,249.77h26.7c5.23,0,9.47-4.24,9.47-9.47v-43.98c0-1.34-1.09-2.43-2.44-2.43-1.34,0-2.43,1.09-2.43,2.43v43.98c0,2.55-2.06,4.61-4.61,4.61h-26.7c-3.45,0-6.64-1.84-8.36-4.83l-4.22-7.36c-2.68-4.65-7.64-7.52-13.01-7.54h-9.7l6.09-35.5c.23-1.33-.67-2.59-1.99-2.81-1.33-.23-2.59.67-2.81,1.99l-6.53,38.34c-.23,1.32.66,2.58,1.98,2.81.14.02.28.04.41.04h12.58c3.63,0,6.97,1.95,8.78,5.09l4.21,7.39c2.6,4.48,7.38,7.24,12.56,7.25"/>
              <path class="cls-9" d="m297.98,117.89l-16.39,69.58c-1.22,5.17-5.83,8.83-11.15,8.84h-62.76c-3.1,0-5.62-2.52-5.62-5.62v-4.25c0-7.72,6.25-13.99,13.98-13.99h48.53l14.38-43.4c2.21-6.66,8.44-11.15,15.45-11.15l3.58-.02Z"/>
              <path class="cls-20" d="m167.48,239.51c1.97,0,3.8-1.06,4.76-2.79l17.14-29.87c.78-1.43,2.28-2.31,3.9-2.32h12.82c1.14,0,2.06-.92,2.06-2.06s-.92-2.06-2.06-2.06h-12.82c-3.13,0-6.02,1.71-7.53,4.46l-17.12,29.84c-.33.59-1.05.84-1.67.56l-21.99-10.14c-1.02-.5-2.25-.07-2.75.95-.5,1.02-.07,2.25.95,2.75.03.01.05.03.08.04l21.96,10.15c.71.33,1.48.49,2.26.49"/>
              <path class="cls-6" d="m166.42,235.04l-21.45-9.9s13.64,2.9,21.45,9.9"/>
              <path class="cls-4" d="m165.19,198.57l-6.02,16.16-2.52,5.26c-1.02,2.11-3.47,3.1-5.66,2.29l-26.32-9.79s-4.06-1.21-1.32-3.9c.94-.69,2.14-.92,3.27-.61.93.26,1.9.34,2.86.23,3.03-.31,8.84-.97,12.45-1.23,1.61-.12,3.12-.82,4.25-1.97l4.81-10.41,14.21,3.97Z"/>
              <path class="cls-14" d="m122.52,209.58c1.09.63,2.08,1.42,2.93,2.34l23.97,8.92c1.68.16,3.37.07,5.02-.27,2.23-.56,3.77.43,3.45,2.35l-1.18,3.17c-.28.74-.9,1.29-1.67,1.47-.45.11-.92.08-1.36-.08l-8.43-3.14c-.71-.25-1.36-.63-1.94-1.11-1.01-.87-2.29-1.37-3.63-1.41-.78,0-1.55-.14-2.28-.4l-14.11-5.24s-6.13-1.81-3.68-5.8c.61-1,1.89-1.35,2.91-.79"/>
              <path class="cls-15" d="m128.29,208.26s3.75,3.19,2,7.4l9.4,3.49s1.89-8.89-.48-11.87c0,0-6.68-1.38-10.91.98"/>
              <path class="cls-15" d="m138.26,211.44s6.69,3.07,11.81,4.46c2,.57,4.14.26,5.9-.85.78-.47,1.72-.62,2.61-.42.36.06.67.3.82.63.13.28.15.6.04.89l-3.1,8.33-4.65-.85s1.81-5.12-12.36-8.68l-1.07-3.51Z"/>
              <path class="cls-11" d="m138.87,206.12l15.28-63.14c.13-1.34.45-2.65.94-3.9,2.6-6.57,9.59-10.27,16.49-8.74l55.14,12.26,43.73,28.93c-27.52,33.68-71.23,2.56-71.23,2.56l-21.18-9.59-14.43,46.7-24.75-5.09Z"/>
              <path class="cls-8" d="m177.11,162.88l16.19-27.96,33.41,7.69,6.5,5.95-10.77,2.16-9.54,21.57,18.72,12.97c-8.92,2.51-26.96-6.93-26.96-6.93l-26.62-13.84-14.43,46.7-7.92-1.9,21.42-46.42Z"/>
              <path class="cls-24" d="m180.15,208.35l-8.69,14.92-3.37,4.77c-1.36,1.91-3.95,2.47-5.97,1.29l-24.27-14.11s-3.8-1.89-.64-4.06c1.05-.53,2.28-.54,3.34-.05.87.42,1.82.66,2.79.71,3.04.21,8.88.56,12.47.91,1.61.16,3.22-.27,4.53-1.21l6.52-9.47,13.3,6.31Z"/>
              <path class="cls-9" d="m214.27,190.09l11.7,6.23h44.46s-29.82-19.99-56.16-6.23"/>
              <polygon class="cls-27" points="182.52 170.62 161.8 209.32 176.13 215.26 198.15 181.62 182.52 170.62"/>
              <path class="cls-11" d="m176.37,180.56c-.69-.35-.99-1.18-.66-1.88l13.71-29.86c2.91-6.63,10.27-10.09,17.23-8.11l39.35,11.11s24.1,4.39,29.38,19.73c1.34,5.2.36,10.74-2.69,15.16-3.94,5.56-10.57,8.56-17.34,7.85l-16.46-1.58c-3.06-.29-6-1.32-8.57-2.99l-21.88-14.24-10.79,14.01c-.46.59-1.27.78-1.94.45l-19.34-9.65Z"/>
              <polygon class="cls-8" points="178.94 171.6 177.78 174.11 201.85 184.28 178.94 171.6"/>
              <path class="cls-6" d="m220.95,142.62s13.58,8.45,16.21,16.49c2.64,8.04,15.95,21.64,21.86,22.51l15.3-7.51s-39.07-31.65-53.38-31.49"/>
              <polygon class="cls-24" points="235.73 106.83 220.93 123.67 229.73 130.85 244.06 114.77 235.73 106.83"/>
              <path class="cls-26" d="m282.52,80.68c.84.19,9.12,11.51,13.38,17.37,1.63,2.25,2.71,4.85,3.15,7.59.55,3.4.09,6.89-1.3,10.03l-9.56,21.52-4.15-1.58s-2.26,21.49-7.17,38.46c-5.14-.45-10.31-.45-15.45,0-8.3.75-17.34-8.67-18.85-12.07-1.51-3.39-13.05-18.95-23.49-17.96l-5.35-3.28s6.87-18.18,20.49-22.6l3.06-4.46-6.03-7.52,15.85-13.43c4.63-3.92,10.15-6.64,16.08-7.92l19.36-4.15Z"/>
              <path class="cls-12" d="m287.46,89.15s.17,1.18-2.18,2.01l-17.76,4.53,19.94-6.54Z"/>
              <path class="cls-12" d="m284.03,135.61s-8.63,12.7-17.51,14.03c-8.88,1.34-33.08,1.06-33.08,1.06,0,0-7.97-5.68-10.4-6.3l54.21-13.31,6.78,4.51Z"/>
              <path class="cls-12" d="m242.13,148.82s8.62,3.25,13.38,16c.32.87.8,1.68,1.42,2.37,1.94,2.2,7.99,4.8,13.52,4.36,0,0-9.6-.11-13.49-5.65-.3-.44-.52-.92-.65-1.43-.8-3.03-7.75-15.65-14.18-15.65"/>
              <path class="cls-12" d="m259.01,164.89s5.15,4.86,13.2,2.01c.02,0-7.78,3.96-13.2-2.01"/>
              <path class="cls-12" d="m228.7,120.86s12.34-7.47,25.25,9.15c0,0-11.61-18.65-25.25-9.15"/>
              <path class="cls-24" d="m226.97,134.93l-18.6,4.9-13.38-4.27,2.11-2.5c1.41-1.66,3.44-2.67,5.61-2.79l5.14-.27,15.17-8.73s9.47,4.16,3.95,13.65"/>
              <path class="cls-24" d="m228.06,132.63c7.67-7.25,3.1-14.49,3.1-14.49l-8.13,3.14,5.03,11.35Z"/>
              <path class="cls-27" d="m282.91,132.78l-15.39-11.5-9.97,11.66c-3.39,3.98-2.92,9.96,1.07,13.36.2.17.4.33.61.48,3.96,2.86,9.44,2.24,12.66-1.42l11.03-12.58Z"/>
              <path class="cls-27" d="m264.67,148.82l-46.97-4.33-9.42-3.31-6.43-1.02,3.68-2.12c.88-.51,1.81-.9,2.79-1.19l10.7-3.13c2.27-.67,4.63-1,7-1l43.59-1.87-4.94,17.97Z"/>
              <path class="cls-27" d="m289.97,67.53l-5.7,17.28,1,2.01s-11.89,1.51-13.91,2.68c-.86.5-2.08,1.24-3.2,1.93-1.33.82-1.75,2.57-.93,3.9.08.13.17.25.27.37,0,0-6.36,3.02-8.71,6.2,0,0-1.29-9.41,3.18-13.58l3.68-20.79h24.3Z"/>
              <path class="cls-24" d="m279.25,77.39s-3.04,8.39-11.06,10.92l-8.78,4.51s.23-3,2.58-4.51l1.35-7.62,15.91-3.29Z"/>
              <path class="cls-27" d="m257.68,73.1l2.1-4.56c-1.21-.69-1.64-2.23-.95-3.44.36-.64.99-1.09,1.72-1.24.45-.09.91-.05,1.34.11l5.08-11.05c.44-.96,1.16-1.76,2.07-2.29,5.11-2.96,14.09-2.51,19.81,2.15,6.34,5.16,1.39,15.78,1.39,15.78l-9.13,10.33c-3.53,4-8.88,5.9-14.15,5.02-1.74-.32-3.46-.76-5.14-1.33-3.61-1.14-5.61-4.98-4.48-8.59.1-.3.21-.6.35-.88"/>
              <path class="cls-6" d="m264.79,62.23c.22-.56.63-.92.9-.81.27.11.31.65.08,1.21-.22.56-.63.92-.9.81-.27-.11-.31-.65-.08-1.21"/>
              <path class="cls-6" d="m265.29,59.1l-.7.62,2.32.98c.36.15.69.38.95.67l.72.81-.31-.8c-.23-.61-.68-1.11-1.27-1.42l-1.73-.87Z"/>
              <path class="cls-9" d="m257,73.42l1.18-2.54c.07-1.24,1.59-2.36,1.59-2.36,2.84.48,4.33,3.34,4.33,3.34,1.47.08,2.94.08,4.4,0v-.65l2.61-.34c1.54-.26,4.4-4.15,4.4-4.15,0,0,1.63-1.96,0-3.75-1.63-1.79-.82-3.15-.82-3.15.13.56.41,1.07.82,1.48-.47-1.08-.8-2.22-.98-3.38.06-.55.34-1.04.78-1.37.35-.32.76-.57,1.2-.74,2.79-1.01,3.29-1.86,2.75-2.81s-2.29-.6-2.29-.6l.81.51c-1.04.44-3.07-.98-3.07-.98,0,0-3.87-1.48-5.36-1.18-1.48.3-2.39,2.16-2.39,2.16l-.3-.24c-.92-.71-1.09-2.04-.38-2.96.14-.18.31-.34.5-.46.26-.16.54-.28.84-.34,3.09-3.17,6.24-3.56,8.55-3.21.86.11,1.69.34,2.48.7l.32.15c.25.12.49.25.72.4,1.2-.16,2.42,0,3.54.48-.48-.12-.98.04-1.3.41,0,0,3.02-.48,8.81,4.4,5.79,4.89,2.36,14.18.32,17.93-2.04,3.75-4.07,10.1-4.07,10.1l-.65-1.16h-1.11c-.9-.19-1.79-1.67-1.79-1.67l-.78.17-1.11-2.12c-.9-.56-.7-4.7-.7-4.7.48-.22.92-.54,1.28-.93,1.39-2.7-.5-4.23-.5-4.23-2.45-1.3-3.9,1.55-4.46,2.29s.33,8.15.33,8.15c0,4.15-1.97,5.95-1.97,5.95v-.98l-.98,2.01c-1.47,1.67-3.86,1.55-3.86,1.55h-3.68c-1.72-.12-3.43-.43-5.08-.91h-.88c-2.28-.99-3.63-4.55-3.63-4.55l-.39.52c-1.19-2.54-.04-6.21-.04-6.21"/>
              <path class="cls-24" d="m278.75,67.02c.08-.03.16-.05.25-.04.21,0,.41-.08.56-.24.23-.23.57-.33.89-.26.52.13.84.65.71,1.17-.1.43-.48.73-.92.74-.1,0-.2-.02-.29-.04-.21-.06-.44-.03-.64.07-.06.02-.11.04-.17.05-.41.06-.79-.23-.84-.64-.05-.34.15-.68.47-.8h-.02Z"/>
              <path class="cls-24" d="m280.49,70.02c1.32-.5,2.05-1.92,1.67-3.28.15.22.27.45.36.7.46,1.37-.28,2.86-1.65,3.32-1.37.46-2.86-.28-3.32-1.65,0-.07-.04-.14-.06-.21.64,1,1.86,1.46,3,1.11"/>
              <path class="cls-20" d="m258.18,70.87h2.84s-.81,4.61-4.02,2.54l1.18-2.54Z"/>
              <path class="cls-12" d="m253.95,126.29s-1.62-7.62-10.78-8.12c0,0,7.42,1.83,10.78,8.12"/>
              <path class="cls-12" d="m248.56,93.51s-2.34,5.86-2.58,8.36-8.71,11.83-8.71,11.83l-1.54-1.43,6-6.77c1.47-1.65,2.64-3.53,3.46-5.57.97-2.41,2.36-5.52,3.37-6.41"/>
              <path class="cls-24" d="m258.95,131.31s6.77.48,8.57,5.97c0,0-3.57-4.68-8.57-5.97"/>
              <path class="cls-24" d="m268.2,147.92c.96-1.11.96-2.76,0-3.87,0,0,.76,2.33,0,3.87"/>
              <path class="cls-24" d="m265.73,144.96s-1.56,1.37.82,3.61c0,0-1.32-1.82-.82-3.61"/>
              <g>
                <path class="cls-5" d="m250.34,132.97s-.56-1.72-1.78-2.07l1.78,2.07Z"/>
                <path class="cls-5" d="m245.98,131.19s-2.68.06-1.92,1.78c0,0,0-1.04,1.92-1.78"/>
                <path class="cls-5" d="m248.56,136.45c-.49.93-1.55,1.41-2.58,1.17,0,0,2.05-.16,2.58-1.17"/>
                <path class="cls-5" d="m244.06,134.63c-.74.73-1.38,1.55-1.92,2.44,0,0,.41-2.5,1.92-2.44"/>
                <path class="cls-5" d="m236.69,134.04s-1.93-.24-2.72-1.33l2.72,1.33Z"/>
                <path class="cls-5" d="m237.14,135.85s-1.11.94-.88,1.84l.88-1.84Z"/>
                <path class="cls-5" d="m230.86,133.37s0,1.95,1.52,2.79l-1.52-2.79Z"/>
              </g>
              <g>
                <path class="cls-5" d="m223.63,122.57s-1.11-.86-2.03-.56l2.03.56Z"/>
                <path class="cls-5" d="m220.08,123.31s-1.67,1.19-.46,1.96c0,0-.07-1.59.46-1.96"/>
                <path class="cls-5" d="m223.99,125.55c.09.8-.36,1.56-1.11,1.86,0,0,1.21-.99,1.11-1.86"/>
                <path class="cls-5" d="m220.35,126.33s-.62,2.09-.17,2.38c0,0-.81-1.77.17-2.38"/>
                <path class="cls-5" d="m215.38,129.12s-1.84.9-2.3.33l2.3-.33Z"/>
                <path class="cls-5" d="m216.5,130.08s-.32,1.09.23,1.55l-.23-1.55Z"/>
                <path class="cls-5" d="m211.4,131.21s1.73,1.44,2.18,1.11l-2.18-1.11Z"/>
              </g>
              <path class="cls-12" d="m267.52,121.28s7.22-14.1,13.66-17.67c0,0-11.5,4.17-17.95,22.67l4.29-5Z"/>
              <path class="cls-20" d="m227.53,157.67v30.37c.02,5.82,4.73,10.52,10.55,10.54h35.2c4.7.01,8.8-3.22,9.86-7.8l15.61-66.32c.56-2.41,2.78-4.07,5.25-3.9l22.85,1.48c1.26.04,2.31-.94,2.35-2.19.04-1.2-.86-2.23-2.06-2.34l-22.85-1.48c-4.68-.32-8.91,2.81-9.97,7.38l-8.51,36.11-8.47-8.19c-2.82-2.74-6.59-4.26-10.52-4.25h-28.7c-5.85,0-10.58,4.75-10.58,10.6m4.55,0c0-3.34,2.71-6.05,6.06-6.06h28.7c2.75,0,5.39,1.06,7.36,2.98l10,9.68c.13.13.28.24.43.33l-5.92,25.14c-.59,2.53-2.84,4.31-5.44,4.31h-35.2c-3.3-.02-5.97-2.69-5.98-6l-.02-30.37Z"/>
              <path class="cls-20" d="m199.45,255.05h0c.72,0,1.3-.58,1.3-1.3v-5.39c0-.26.02-.53.07-.79l4.42-22.99c.14-.71-.33-1.39-1.03-1.52-.71-.14-1.39.33-1.52,1.03l-4.41,22.99c-.08.42-.12.85-.12,1.28v5.39c0,.72.58,1.3,1.3,1.3"/>
              <path class="cls-20" d="m203.75,236.64l-4.06-.73c-.93-.17-1.54-1.05-1.38-1.98l2.06-11.46c.17-.93,1.05-1.54,1.98-1.38l4.07.73c.93.17,1.54,1.05,1.38,1.98l-2.06,11.46c-.17.93-1.05,1.54-1.98,1.38"/>
              <path class="cls-20" d="m282.64,169.04c27.3,0,49.42,22.13,49.42,49.42s-22.13,49.42-49.42,49.42-49.42-22.13-49.42-49.42,22.13-49.42,49.42-49.42"/>
              <path class="cls-9" d="m282.64,209.32c5.05,0,9.15,4.09,9.15,9.15s-4.09,9.15-9.15,9.15-9.15-4.09-9.15-9.15,4.09-9.15,9.15-9.15"/>
              <path class="cls-9" d="m229.8,218.47c0-29.18,23.65-52.84,52.83-52.84,29.18,0,52.84,23.65,52.84,52.83,0,29.18-23.65,52.84-52.83,52.84h0c-29.16-.03-52.8-23.67-52.83-52.83m6.82,0c0,25.41,20.61,46.01,46.02,46.01,25.41,0,46.01-20.61,46.01-46.02,0-25.41-20.6-46.01-46.01-46.01-25.4.03-45.99,20.62-46.01,46.02"/>
              <path class="cls-5" d="m241.32,222.57s1.02,24.18,26.19,34.4c0,0-18.9-9.6-26.19-34.4"/>
              <path class="cls-5" d="m296.47,208.57s11.78,20.22-9,28.86c0,0,15.04-6.8,9-28.86"/>
              <path class="cls-8" d="m269.39,148.64h-30.98c-1.43,0-2.39-1.3-1.82-2.46,1.12-2.14,3.37-3.46,5.79-3.4h23c2.09-.03,4.08.94,5.32,2.63l.38.53c.82,1.18-.12,2.71-1.68,2.71"/>
              <path class="cls-6" d="m208.42,175.75s7.6-6.65,5.16-15.54c0,0-.32,9.31-5.16,15.54"/>
              <path class="cls-6" d="m216.04,172.45s-.74,3.61-5.34,3.3l5.34-3.3Z"/>
              <path class="cls-8" d="m181.34,146.77s2.76,8.26-3.3,17.73c0,0,3.93-11.48,3.3-17.73"/>
              <path class="cls-21" d="m143.01,211.2l-2.31,5.5c-.58,1.39,0,2.99,1.33,3.69l18.53,9.72c3.31,1.74,7.4.63,9.37-2.54l22.96-36.78-17.79-8.36-15.92,25.24c-.91,1.45-2.52,2.31-4.24,2.23l-9.13-.45c-1.21-.06-2.34.64-2.81,1.76"/>
              <path class="cls-10" d="m175.3,179.35l1.78-5.4c.05-.15.21-.23.36-.18,0,0,.02,0,.02,0l23.73,10.78c.14.06.21.23.14.37,0,.02-.02.04-.04.06l-4.1,5.31c-.21.27-.59.36-.9.21l-20.62-10.29c-.33-.15-.49-.52-.38-.87"/>
            </g>
          </g>
        </g>
      </g>
    </g>
  </g>
</svg>