<?xml version="1.0" encoding="UTF-8"?>
<svg id="Layer_1" data-name="Layer 1" xmlns="http://www.w3.org/2000/svg" xmlns:xlink="http://www.w3.org/1999/xlink" viewBox="0 0 300 250">
  <defs>
    <style>
      .cls-1 {
        clip-path: url(#clippath);
      }

      .cls-2 {
        fill: none;
      }

      .cls-2, .cls-3, .cls-4, .cls-5, .cls-6, .cls-7, .cls-8, .cls-9, .cls-10, .cls-11, .cls-12, .cls-13, .cls-14, .cls-15, .cls-16, .cls-17, .cls-18, .cls-19, .cls-20, .cls-21, .cls-22, .cls-23 {
        stroke-width: 0px;
      }

      .cls-24 {
        clip-path: url(#clippath-1);
      }

      .cls-25 {
        opacity: .46;
      }

      .cls-3 {
        fill: #f58220;
      }

      .cls-4 {
        fill: #18325b;
      }

      .cls-5 {
        fill: #072033;
      }

      .cls-6 {
        fill: #d84200;
      }

      .cls-7 {
        fill: #d84c07;
      }

      .cls-8 {
        fill: #041221;
      }

      .cls-9 {
        fill: #fde5da;
      }

      .cls-10 {
        fill: #ffdbcf;
      }

      .cls-11 {
        fill: #fff;
      }

      .cls-12 {
        fill: #fff2eb;
      }

      .cls-13 {
        fill: #fff3ec;
      }

      .cls-14 {
        fill: #ffe6dc;
      }

      .cls-15 {
        fill: #e57f63;
      }

      .cls-16 {
        fill: #ffcdc0;
      }

      .cls-17 {
        fill: #ffba97;
      }

      .cls-18 {
        fill: #ec6625;
      }

      .cls-19 {
        fill: #fcdace;
      }

      .cls-20 {
        fill: #00305b;
      }

      .cls-21 {
        fill: #031221;
      }

      .cls-22 {
        fill: #00061d;
      }

      .cls-23 {
        fill: #002766;
      }
    </style>
    <clipPath id="clippath">
      <rect class="cls-2" width="300" height="250"/>
    </clipPath>
    <clipPath id="clippath-1">
      <path class="cls-2" d="m246.78,65.64l-17.13,14.61v-23.07c-3.06-1.23-6.61-2.53-10.45-3.86V20.16h-51.27l-13.17,18.49c-11.92-.06-23.85,1.62-35.39,5.06-14.47,4.31-30.29,9.31-40.67,13.46v92.86c0,15.79,6.07,31.05,17.21,42.23,11.59,11.63,30.06,24.64,58.26,31.96,28.2-7.32,46.67-20.32,58.26-31.96,1.52-1.52,2.93-3.13,4.26-4.8l5.57,4.56h28.03l12.53-96.02,9.51-18.46-25.55-11.91Z"/>
    </clipPath>
  </defs>
  <rect class="cls-13" width="300" height="250"/>
  <g class="cls-1">
    <g>
      <path class="cls-10" d="m-77.64,144.77l150.75,42.94,64.41-11.88,5.03-6.4,168.09-32.97s.96,118.4,3.24,118.4-423.95,0-423.95,0l32.43-110.09Z"/>
      <g>
        <polygon class="cls-16" points="141.57 187.79 75.4 200.05 74.49 255.32 147.78 254.99 141.57 187.79"/>
        <polygon class="cls-16" points="156.86 254.95 193.63 254.78 186.66 179.43 145.98 186.97 156.86 254.95"/>
        <polygon class="cls-16" points="190.97 178.64 203.14 254.74 276.4 254.41 280.06 162.13 190.97 178.64"/>
      </g>
      <g>
        <path class="cls-16" d="m57.12,261.28l-6.83-.52,1.38-132.87h4.07v.44s1.38,132.96,1.38,132.96Zm-5.94-1.34l5.04.39-1.36-131.56h-2.32l-1.36,131.17Z"/>
        <polygon class="cls-16" points="132.44 164.35 10.19 114.74 10.06 109.37 133.07 162.69 132.44 164.35"/>
        <rect class="cls-16" x="9.19" y="100" width="1.77" height="71.26"/>
        <polygon class="cls-16" points="-69.11 202.71 -69.72 201.04 86.13 143.8 86.74 145.46 -69.11 202.71"/>
        <polygon class="cls-16" points="-67.25 213.66 -67.93 212.02 91.05 146.67 93.11 147.33 -67.25 213.66"/>
        <rect class="cls-16" x="-46.04" y="143.42" width="64.72" height=".88" transform="translate(-98.87 27.13) rotate(-41.55)"/>
        <rect class="cls-16" x="-31.75" y="144.27" width="50.88" height=".88" transform="translate(-112.35 46.03) rotate(-49.56)"/>
        <rect class="cls-16" x="-22.66" y="147.36" width="41.37" height=".88" transform="translate(-120.36 59.29) rotate(-53.98)"/>
        <rect class="cls-16" x="-16.63" y="151.58" width="35.02" height=".89" transform="translate(-128.96 72.95) rotate(-58.33)"/>
        <rect class="cls-16" x="-8.75" y="155.86" width="27.02" height=".88" transform="translate(-142.36 103.32) rotate(-68.45)"/>
        <rect class="cls-16" x="-.73" y="160.26" width="17.95" height=".89" transform="translate(-150.09 132.01) rotate(-76.79)"/>
        <rect class="cls-16" x="87.29" y="130.15" width=".89" height="32.03"/>
        <rect class="cls-16" x="91.57" y="128.78" width=".89" height="31.69"/>
        <polygon class="cls-16" points="136.19 161.73 102.74 144.84 87.65 147.72 87.48 146.85 102.87 143.91 136.59 160.94 136.19 161.73"/>
        <polygon class="cls-16" points="132.78 161.74 102.59 148.09 87.66 151.31 87.47 150.45 102.69 147.16 102.82 147.22 133.14 160.93 132.78 161.74"/>
        <rect class="cls-16" x="93.63" y="146.26" width=".89" height="12.33"/>
        <rect class="cls-16" x="96.71" y="145.57" width=".89" height="12.33"/>
        <rect class="cls-16" x="100.14" y="144.65" width=".89" height="12.33"/>
      </g>
      <polygon class="cls-10" points="-30.15 158.66 11.65 170.81 -.34 174.97 -30.15 158.66"/>
      <polygon class="cls-16" points="76.77 190.45 77.23 163.04 105.55 153.91 137.18 160.08 137.64 175.84 76.77 190.45"/>
      <polygon class="cls-10" points="105.55 153.91 77.23 163.04 76.77 190.45 106.75 189.81 106.16 154.02 105.55 153.91"/>
      <path class="cls-10" d="m283.57,146.22l31-7.44-.46-15.76-3.75-.73-30.56-15.43-9.12,1.74-1.3-.56v-16.31h-.89v15.92l-3.4-1.47v-13.08h-.89v12.69l-31.54-13.67v-.85s-.01-.44-.01-.44h-2.97l-41.81-18.13v-9.75h-1.77v22.98l-47.37,42.01.59.66,46.79-41.49v1.68l-32.34,37.94.67.57,31.67-37.15v4.48l-23.68,32.58.72.52,22.97-31.6v4.52l-17.88,28.98.75.47,17.13-27.76v4.51l-9.8,24.79.82.33,8.98-22.71v8.45l-3.43,14.57.86.2,2.57-10.91v12.64h1.77v-56.22l40.67,16.5-.26,25.01-121.08,44.48.61,1.66,120.46-44.25-.05,4.54-119.22,49.01.68,1.64,118.53-49.02-1,96.13,6.83.52-1.02-98.64,31.19-12.9v10.06l-2.9.93-7.17,2.31h0s0,0,0,0l-.46,27.41h0s0,0,0,0l29.98-.65-.11-6.53Zm-18.47-35.66l1.04-.2-1.04.43v-.23Zm30.56,8.86l-17.71-7.68v-.37l1.56-.34,20.39,9.21-4.24-.83Zm-22.81-6.95l.79.32v6.91l-2.2.71v-7.63l1.41-.3Zm1.68,6.94v-6.26l2.54,1.03v4.41l-2.54.82Zm1.46-8.53l-1.46-.63v-1.5l2.54-.49v2.38l-1.08.23Zm-5.43.65v.52l-1.17.25v-1.25l1.17.48Zm0,1.43v7.73l-1.17.38v-7.85l1.17-.25Zm12.53,4l-.61-.12-4.53,1.46v-3.77l6.77,2.75-1.63-.32h0Zm24.07,4.7l-3.48-.68-23.94-10.82-.13-.06-1.66.36v-2.36l1.72-.33,27.49,13.88Zm-33.52-12.73v.95l-1.51-.66,1.51-.29Zm-7.98.62l-.55.11v-.33l.55.22Zm-4.87-1.98l-27.84,10.23-.22-21.61,28.07,11.39Zm-29-15.86v.02s-.05-.02-.05-.02h.05Zm-2.35,3.14l2.4.97.23,22.3-2.88,1.06.25-24.33Zm-.27,26.22l2.92-1.07.04,4.34-3.01,1.24.05-4.51Zm3.99,102.19l-5.04-.39.99-95.67,3.04-1.26,1.01,97.32Zm-.14-99.29l-.04-4.3,30.26-11.12.99.4v2.18l-31.21,12.83Zm35.49-13.07v1.59l-3.4.73v-.92l3.4-1.41Zm-3.4,3.23l3.4-.73v7.95l-3.4,1.1v-8.31Z"/>
    </g>
  </g>
  <g>
    <g>
      <path class="cls-5" d="m110.93,32.77c-16.28,4.84-34.07,10.47-45.75,15.14v104.45c0,17.76,6.83,34.92,19.36,47.5,13.04,13.09,37.23,27.76,68.94,35.99,31.72-8.23,49.08-22.91,62.12-35.99,12.53-12.58,19.36-29.74,19.36-47.5V47.91c-11.68-4.67-29.47-10.3-45.75-15.14-25.55-7.6-52.75-7.6-78.29,0Z"/>
      <path class="cls-4" d="m115.03,32.77c-16.28,4.84-34.07,10.47-45.75,15.14v104.45c0,17.76,6.83,34.92,19.36,47.5,13.04,13.09,33.82,27.71,65.53,35.94,31.72-8.23,52.49-22.86,65.53-35.94,12.53-12.58,19.36-29.74,19.36-47.5V47.91c-11.68-4.67-29.47-10.3-45.75-15.14-25.55-7.6-52.75-7.6-78.29,0Z"/>
      <path class="cls-9" d="m119.37,43.71c-14.47,4.31-30.29,9.31-40.67,13.46v92.86c0,15.79,6.07,31.05,17.21,42.23,11.59,11.63,30.06,24.64,58.26,31.96,28.2-7.32,46.67-20.32,58.26-31.96,11.14-11.18,17.21-26.44,17.21-42.23V57.18c-10.38-4.15-26.2-9.16-40.67-13.46-22.71-6.76-46.89-6.76-69.61,0Z"/>
      <g class="cls-25">
        <path class="cls-19" d="m213.77,172.22s-15.91,21.87-41.76,33.8c0,0,25.85-1.99,41.76-33.8Z"/>
        <path class="cls-19" d="m86.51,70.81v39.77s5.97-19.88,0-39.77Z"/>
      </g>
      <path class="cls-19" d="m188.97,43.71c-22.71-6.76-46.89-6.76-69.61,0-14.47,4.31-30.29,9.31-40.67,13.46v3.2c10.35-3.99,25.1-8.64,38.68-12.68,22.71-6.76,46.89-6.76,69.61,0,14.47,4.31,30.29,9.31,40.67,13.46v92.86c0,8.7-1.86,17.24-5.38,25.03,4.81-8.81,7.37-18.8,7.37-29.01V57.18c-10.38-4.15-26.2-9.16-40.67-13.46Z"/>
    </g>
    <g class="cls-24">
      <g>
        <path class="cls-11" d="m233.57,132.35s-.69-10.62-13.02-15.07l-40.08-22.95-11.3-9.93-38.71-1.37s-18.5-1.71-24.66,14.73l-11.09,34.57c-.37,1.15-.94,2.22-1.68,3.17l-1.43,1.82c-.89,1.14-1.55,2.45-1.88,3.86-.68,2.87-1.41,7.97.26,12.85,2.21,8.22,10.07,14.3,19.42,14.3,1.19,0,1.09-.15,2.23-.34l-6.67,32.16c-.35,1.4-.58,2.82-.71,4.25-.3,3.3-.83,9.24-.83,9.49l99,11.65,2.28-8.61c.54-2.02.92-4.08,1.16-6.17l4.44-39.01,7.54,11.65s7.1,7.89,16.92,4.08c2.64-1.02,4.39-3.55,4.58-6.37l1.45-21.69-7.19-27.06Z"/>
        <path class="cls-14" d="m210.28,171.75l-3.94-24.41s-2.57,24.66,3.08,34.17l.86-9.76Z"/>
        <path class="cls-14" d="m112.31,175.6s27.23-9.51,34.17-18.75c6.94-9.25,5.14-24.92,5.14-24.92l-9.76-38.54s-3.08-7.96-6.17-9.76c0,0,7.19,2.06,10.53,7.45l24.66,69.37-22.09,15.16h-36.48Z"/>
        <polygon class="cls-14" points="166.26 92.87 166.01 101.1 172.43 102.64 184.25 112.4 193.75 101.61 181.68 105.72 166.26 92.87"/>
        <path class="cls-14" d="m192.72,115.74l-71.34,40.14c-.03,5.78-3.98,10.65-9.38,12.23l-.2,1.83,81.7-46.5-.77-7.71Z"/>
        <polygon class="cls-12" points="191.61 120.71 183.05 148.8 188.19 159.07 196.58 117.8 191.61 120.71"/>
        <path class="cls-14" d="m134.15,108.29l-7.19,29.29s7.19-18.75,7.19-29.29Z"/>
        <path class="cls-14" d="m105.89,202.06s40.59-3.08,57.81-.77c17.21,2.31,42.39,12.07,42.39,12.07l-.77-15.67-75.79-10.79-23.64,15.16Z"/>
        <path class="cls-18" d="m132.61,82.34s4.88.77,8.99,8.22c4.11,7.45,12.07,44.19,12.07,44.19,0,0,2.11,8.55-.4,17.42-1.89,6.72-7.14,11.98-13.75,14.22l-25.96,8.78c-1.53.52-3.19-.33-3.65-1.88h0s-6.94,22.61-5.65,28.26c0,0,69.71-4.37,75.62-4.88l22.45,12.09c1.2.65,2.22,1.59,2.89,2.78.43.77.78,1.73.87,2.86l5.76-27.82c.26-1.25.1-2.54-.44-3.69-1.61-3.4-4.87-11.31-4.29-18.34.77-9.25,5.14-53.7,5.14-53.7l-14.13-6.68s-11.3,33.4-13.36,47.02l-13.65-46.27c-1.14-3.86-3-7.46-5.5-10.61-2.58-3.25-6.14-7.19-9.82-9.62-1.32-.87-2.84-1.35-4.42-1.43l-18.78-.93Z"/>
        <polygon class="cls-7" points="153.42 132.95 154.96 145.8 179.11 133.21 176.28 119.34 153.42 132.95"/>
        <path class="cls-17" d="m110.97,131.88l74.99-26.24,5.14,16.79-76.05,42.13s-18.16,6.51-23.64-14.39l7.61-9.73c3.08-3.94,7.23-6.91,11.95-8.56Z"/>
        <path class="cls-17" d="m233.32,118.57l-13.47,54.72c-1.73,7.01,2.99,13.99,10.14,15h0c6.67.94,12.84-3.69,13.79-10.36l8.56-60.13-19.01.77Z"/>
        <path class="cls-15" d="m214.05,112.91l2.41.41c1.27.22,2.3,1.16,2.63,2.41h0c.39,1.46-.26,3-1.58,3.72-1.95,1.08-4.9,2.29-7.57,1.68l4.11-8.22Z"/>
        <path class="cls-17" d="m205.44,100.71l21.29-.12c1.04,0,1.91.78,2.01,1.81h0c.11,1.12-.71,2.11-1.83,2.2l-9.61.82c-.29.02-.57.07-.85.12l-7.03,1.45-3.98-6.29Z"/>
        <polygon class="cls-15" points="203.17 101.18 205.44 100.71 206.85 100.67 213.45 106.06 208.91 107.6 203.17 101.18"/>
        <path class="cls-22" d="m243.36,74.99l-20.78,34.9c-.71,1.19-.2,2.73,1.07,3.27l17.29,7.31c1.07.45,2.31.02,2.88-.99l18.71-33.73c.61-1.1.21-2.48-.88-3.1l-15.22-8.48c-1.08-.6-2.44-.23-3.07.83Z"/>
        <path class="cls-23" d="m243.87,75.64l-20.78,34.9c-.71,1.19-.2,2.73,1.07,3.27l17.29,7.31c1.07.45,2.31.02,2.88-.99l18.71-33.73c.61-1.1.21-2.48-.88-3.1l-15.22-8.48c-1.08-.6-2.44-.23-3.07.83Z"/>
        <g>
          <path class="cls-21" d="m245.55,76.56c-1.05,0-1.89.85-1.89,1.89s.85,1.89,1.89,1.89,1.89-.85,1.89-1.89-.85-1.89-1.89-1.89Z"/>
          <g>
            <circle class="cls-13" cx="245.94" cy="78.39" r="1.89"/>
            <circle class="cls-22" cx="245.94" cy="78.39" r=".84"/>
          </g>
        </g>
        <path class="cls-17" d="m246.12,80.2c.88-.7,2.2-.24,2.57.82l6.59,18.8s1.16,2.7.51,5.14l-5.14,25.56-19.4-1.93s-1.54-7.07.26-12.46l-.64-5.01-7.45-3.98s-.31-.23-.67-.6c-1.01-1.06-.16-2.8,1.29-2.65l6.86.69c1.57.16,3.07.75,4.33,1.71l2.96,2.26-2.06-5.4-7.34-3.22c-.81-.36-1.27-1.25-1.05-2.11s.82-1.74,2.35-1.61c0,0-1.02-.16-1.85-.86-1.13-.96-.63-2.81.82-3.12l4.8-1.02c1.24-.26,2.52-.22,3.73.11l3.64,1c1.28.35,2.46,1.03,3.41,1.96l3.94,3.85-3.6-14.39s-.13-2.57,1.11-3.55Z"/>
        <path class="cls-15" d="m231.26,96.21l9.25,2.18s-5.65-3.21-9.25-2.18Z"/>
        <path class="cls-6" d="m184.25,153.51l-2.53,8.97c-.53,1.89-.84,3.84-.9,5.81l-.93,28.38,2.23-29.74c.05-.73.14-1.45.26-2.18l1.87-11.25Z"/>
        <path class="cls-3" d="m108.88,180.82l31.17-3.68s20.04-2.06,27.23-1.28c7.19.77,22.61,3.08,22.61,3.08l14.9,6.94,5.65,4.11-2.57,14.13s-17.98-10.02-20.04-11.05-7.19-3.08-7.19-3.08c0,0-21.84-.51-24.92,0-3.08.51-49.84,6.17-49.84,6.17l3-15.33Z"/>
        <path class="cls-14" d="m215.08,128.59l-6.94,22.61s6.68-15.41,6.94-22.61Z"/>
        <path class="cls-14" d="m95.35,133.72s4.88-6.68,14.64-5.14c0,0-8.74,1.28-14.64,5.14Z"/>
        <path class="cls-14" d="m215.85,178.94c.09.81-3.85-8.99,1.54-15.67,0,0-2.57,6.94-1.54,15.67Z"/>
        <path class="cls-17" d="m173.71,33.27l-13.36,52.15,8.22,9.51,12.85,9.51s3.34-.26,5.65-4.62l11.05-29.29-24.41-37.25Z"/>
        <path class="cls-15" d="m177.71,94.43l6.35,8.9c.98-.68,2.08-1.76,3.01-3.52l11.05-29.29-19.62-29.94-5.81,31.13c-1.48,7.94.33,16.14,5.02,22.72Z"/>
        <path class="cls-11" d="m158.56,79.52l12.26,11.35c1.02.95,1.57,2.3,1.5,3.69l-.14,2.68,9.25,7.19s4.11-1.8,5.65-4.62l3.6-9.76,2.31,2.57,5.4,14.39-8.48-4.62-8.22,3.34-10.53-7.45-5.14,2.83-12.33-16.7,4.88-4.88Z"/>
        <path class="cls-17" d="m179.11,110.34l6.85-4.71,14.47-5.82s2.57-1.8,5.14,0l9.78,11.09c1.04,1.18,1.15,2.93.26,4.23l-4.33,6.33c-.75,1.1-2.07,1.73-3.39,1.49-.53-.1-1.04-.33-1.43-.79l-4.75,2.7s-2.18.77-2.7-1.16c0,0-3.47,3.08-5.52-.13,0,0-11.05,4.5-13.62,1.93l-.77-15.16Z"/>
        <path class="cls-17" d="m206.6,42.78c-21.58-27.75-41.11-4.37-41.11-4.37l-1.07,13.73c-2.18.45-3.81,2.24-3.81,4.38,0,1.96,1.37,3.63,3.27,4.24.06,1.05.25,2.1.59,3.1l2.71,8.13c.58,1.73,1.57,3.29,2.89,4.55l6.71,6.41c1.67,1.59,3.85,2.53,6.15,2.64l4.13.2c1.85.09,3.69-.36,5.29-1.29l2.77-1.62c2.61-1.52,4.63-3.87,5.74-6.68l9.07-22.9c1.54-6.42-3.34-10.53-3.34-10.53Z"/>
        <g>
          <ellipse class="cls-22" cx="190.01" cy="50.61" rx="1.58" ry=".93" transform="translate(82.3 215.12) rotate(-71.7)"/>
          <ellipse class="cls-22" cx="201.23" cy="55.79" rx="1.58" ry=".93" transform="translate(85.08 229.33) rotate(-71.7)"/>
          <path class="cls-22" d="m192.02,46.8c.31.26.52.62.63,1.01l.31,1.08s-2.3-2.41-4.99-1.58c0,0,2.14-2.1,4.04-.52Z"/>
          <path class="cls-22" d="m202.49,51.33c-.4-.05-.81.06-1.17.25l-1,.52s3.34-.01,4.6,2.5c0,0,.03-2.99-2.43-3.27Z"/>
        </g>
        <path class="cls-15" d="m181.93,38.54l-2.06,2.18s25.16.38,30.06,12.59l3.08-3.98s-9.51-19.27-31.09-10.79Z"/>
        <path class="cls-22" d="m161.12,50.48l.51,3.21s3.29-2.65,5.14-.25c.32.42.52.92.63,1.44l.65,3.05,2.57,1.28s.77-9.25,4.11-12.85c3.34-3.6,10.79-11.82,10.79-11.82,0,0-20.3-.26-24.41,15.93Z"/>
        <path class="cls-11" d="m161.64,47.66c-.43,1.52-.38,4.06-.25,5.99.81-.77,1.9-1.24,3.1-1.24.09,0,.17,0,.26.01.58-1.73,1.19-3.93,2.03-5.54,1.02-1.95,4.52-2.96,6.38-3.37.81-.18,1.55-.58,2.15-1.16l3.93-3.82c-9.76-1.28-16.83,6.42-17.6,9.12Z"/>
        <path class="cls-22" d="m170.63,46.37l-2.57,11.56-3.08,8.99s0,4.88,2.06,8.22,6.94,10.02,12.07,12.07,12.33,2.83,17.21-1.8c4.88-4.62,6.81-13.74,6.81-13.74,0,0-4.75-6.29-7.07-7.07s-10.02-3.34-13.1-2.57-6.68,2.06-6.68,2.06c0,0-4.88.51-5.65-4.88v-12.85Z"/>
        <path class="cls-18" d="m210.45,47.4s2.27-12.47-9.6-22.72c-1.61-1.39-3.63-2.22-5.75-2.46-4.66-.52-13.41-.87-20.88,2.02-2.04.79-3.72,2.3-4.75,4.23l-1.4,2.63c-.88,1.66-1.95,3.22-3.2,4.63-2.71,3.06-7.5,9.75-4.27,16.03,0,0,1.8-16.44,26.72-14.39,0,0,17.73,1.8,23.12,10.02Z"/>
        <path class="cls-6" d="m193.37,24.15s5.91.51,6.04,14.13c0,0,1.93-13.49-6.04-14.13Z"/>
        <path class="cls-6" d="m161.51,53.57s-.9-9.76,11.43-12.85c12.33-3.08,26.21,2.06,31.34,5.14,5.14,3.08,5.65,7.45,5.65,7.45l-1.28,2.83s1.54.32,3.34-.16c3.66-.98,5.03-5.5,2.67-8.46-3.17-3.97-10.26-10.14-24.47-11.94-5.45-.69-11-.28-16.25,1.32-7.62,2.33-16.61,6.55-12.43,16.67Z"/>
        <path class="cls-20" d="m103.58,205.66s34.17,1.03,76.3,5.91c0,0,21.07,2.57,25.95,5.14l-.51,9.25-1.8,3.34.26,9.51h-108.42s2.83-19.01,7.19-22.35l-.77-2.31,1.8-8.48Z"/>
        <path class="cls-8" d="m102.03,216.88s32.63,3.04,34.3,3.3c1.67.26,55.24,6.42,55.24,6.42l12.46,1.93-49.07-13.23-52.92,1.58Z"/>
        <polygon class="cls-8" points="155.47 221.07 154.44 239.06 156.33 239.06 155.47 221.07"/>
        <path class="cls-22" d="m102.03,216.88s86.58,4.97,101.99,11.65l.68-.38c1.02-.57,1.43-1.86,1.53-3.02v-6.23c.02-.74-.48-1.38-1.19-1.57-6.73-1.75-41.53-10.02-101.44-10.54-.47,0-.9.31-1.03.76l-1.69,5.86c-.09.92.13,1.85.62,2.63l.53.85Z"/>
        <path class="cls-20" d="m117.51,206.49s-3.85,6.42-2.57,14.13h3.6s0-12.33,3.85-13.87l-4.88-.26Z"/>
        <path class="cls-20" d="m143.59,208.23s-3.85,6.42-2.57,14.13h3.6s0-12.33,3.85-13.87l-4.88-.26Z"/>
        <path class="cls-20" d="m203.03,216.22s2.62,7.02-.06,14.36l-3.54-.66s2.25-12.12-1.25-14.34l4.85.64Z"/>
        <path class="cls-20" d="m185.13,212.82s2.62,7.02-.06,14.36l-3.54-.66s2.25-12.12-1.25-14.34l4.85.64Z"/>
        <path class="cls-10" d="m152.4,209.97c-.67,1.85-1.47,5.09-1.05,9.22.11,1.09.96,1.97,2.05,2.1l13.12,1.58,1.41-.64-12.48-1.83c-.93-.14-1.67-.86-1.81-1.79-.3-1.98-.59-5.42.43-7.82.37-.86,1.26-1.36,2.19-1.27l11.02,1.15-2.06-1.03-10.36-1.21c-1.08-.13-2.1.51-2.47,1.54Z"/>
        <path class="cls-10" d="m153.3,213.52c1.45.05,4.96.21,7.26.64.33.06.56.34.56.68h0c0,.43-.4.76-.82.67-1.55-.32-4.92-.93-6.97-.71-.37.04-.69-.26-.69-.64h0c0-.36.3-.65.66-.64Z"/>
        <path class="cls-15" d="m194.38,58.65c-.35,0-.68.08-.98.21,1.21.14,2.16,1.16,2.16,2.41,0,1-.6,1.85-1.46,2.23.09.01.19.03.28.03,1.35,0,2.44-1.09,2.44-2.44s-1.09-2.44-2.44-2.44Z"/>
        <path class="cls-11" d="m187.2,65.64s-1.67,4.11,5.78,4.62l-5.78-4.62Z"/>
        <path class="cls-15" d="m164.75,55.61c-.29-.69-1.14-.98-1.8-.54-.41.27-.61.78-.51,1.25.06.29.21.52.41.69.24.2.44.46.53.77.03.09.07.18.12.26.2.29.56.44.91.37.58-.12.88-.72.66-1.23-.01-.03-.03-.06-.04-.08-.16-.29-.21-.64-.2-.97,0-.17-.02-.34-.09-.5Z"/>
        <path class="cls-21" d="m185.27,72.96s4.88,1.67,4.88,6.04c0,0-2.7-3.73-4.88-6.04Z"/>
        <path class="cls-15" d="m193.24,123.58l3.32-3.39c1.35-1.38,1.52-3.54.39-5.11l-1.91-2.67,1.18,3.38c.39,1.12.27,2.35-.34,3.36l-2.64,4.44Z"/>
        <path class="cls-15" d="m198.63,123.58l6.68-5.52s-3.08,4.62-6.68,5.52Z"/>
        <path class="cls-15" d="m205.96,122.16l7.32-6.42s-3.34,4.88-7.32,6.42Z"/>
      </g>
    </g>
  </g>
</svg>