<svg width="44" height="38" viewBox="0 0 44 38" fill="none" xmlns="http://www.w3.org/2000/svg">
<path d="M40.0416 16.4267V9.05533C40.0416 7.88467 39.5765 6.76196 38.7488 5.93418C37.921 5.1064 36.7983 4.64136 35.6276 4.64136H5.41397C4.24331 4.64136 3.1206 5.1064 2.29282 5.93418C1.46504 6.76196 1 7.88467 1 9.05533V29.6244C1 30.7951 1.46504 31.9178 2.29282 32.7456C3.1206 33.5734 4.24331 34.0384 5.41397 34.0384H21.8119" stroke="#004A80" stroke-width="2" stroke-linecap="round" stroke-linejoin="round"/>
<path d="M1.13242 13.3262H39.8871" stroke="#004A80" stroke-width="2" stroke-linecap="round" stroke-linejoin="round"/>
<path d="M8.48168 1V6.41815" stroke="#004A80" stroke-width="2" stroke-linecap="round" stroke-linejoin="round"/>
<path d="M32.5268 1V6.41815" stroke="#004A80" stroke-width="2" stroke-linecap="round" stroke-linejoin="round"/>
<path d="M34.3365 37.0623C39.4802 37.0623 43.65 32.8925 43.65 27.7488C43.65 22.6051 39.4802 18.4353 34.3365 18.4353C29.1928 18.4353 25.023 22.6051 25.023 27.7488C25.023 32.8925 29.1928 37.0623 34.3365 37.0623Z" fill="#F58220"/>
<path d="M38.2318 28.8411H33.8951C33.7243 28.8411 33.5604 28.774 33.4386 28.6543C33.3168 28.5346 33.247 28.3718 33.2441 28.2011V22.1319C33.2441 21.9592 33.3126 21.7936 33.4347 21.6715C33.5568 21.5494 33.7224 21.4808 33.8951 21.4808C33.981 21.4793 34.0664 21.4951 34.146 21.5273C34.2257 21.5595 34.2981 21.6074 34.3588 21.6682C34.4196 21.7289 34.4675 21.8013 34.4997 21.881C34.5319 21.9606 34.5477 22.046 34.5462 22.1319V27.55H38.2318C38.3237 27.538 38.4171 27.5457 38.5057 27.5726C38.5943 27.5996 38.6762 27.6451 38.7458 27.7062C38.8155 27.7673 38.8713 27.8426 38.9095 27.927C38.9477 28.0113 38.9675 28.1029 38.9675 28.1956C38.9675 28.2882 38.9477 28.3798 38.9095 28.4642C38.8713 28.5486 38.8155 28.6238 38.7458 28.6849C38.6762 28.746 38.5943 28.7916 38.5057 28.8185C38.4171 28.8454 38.3237 28.8531 38.2318 28.8411Z" fill="white"/>
</svg>
