<svg width="27" height="41" viewBox="0 0 27 41" fill="none" xmlns="http://www.w3.org/2000/svg">
<path fill-rule="evenodd" clip-rule="evenodd" d="M22.3327 1.20044H4.16946C2.52946 1.20044 1.19986 2.53004 1.19986 4.17004V36.1044C1.19986 37.7444 2.52946 39.074 4.16946 39.074H22.3327C23.9711 39.074 25.3007 37.7444 25.3007 36.1044V4.17004C25.3007 2.53004 23.9711 1.20044 22.3327 1.20044Z" stroke="#004A80" stroke-width="2.4" stroke-linecap="round" stroke-linejoin="round"/>
<path d="M1.38257 6.07393H25.301" stroke="#004A80" stroke-width="1.6" stroke-linecap="round" stroke-linejoin="round"/>
<path d="M1.38257 35.3403H25.301" stroke="#004A80" stroke-width="1.6" stroke-linecap="round" stroke-linejoin="round"/>
<path fill-rule="evenodd" clip-rule="evenodd" d="M17.3748 19.0959L13.0708 23.3999C12.8884 23.5807 12.6452 23.6815 12.3908 23.6815C12.1348 23.6815 11.89 23.5807 11.7108 23.3999L9.12842 20.8175C8.75242 20.4415 8.75242 19.8335 9.12842 19.4575C9.50442 19.0815 10.1124 19.0831 10.4868 19.4575L12.3908 21.3599L16.0148 17.7359C16.3908 17.3599 16.9988 17.3599 17.3748 17.7359C17.7492 18.1119 17.7492 18.7199 17.3748 19.0959ZM13.2516 13.251C8.97162 13.251 5.50443 16.7198 5.50443 20.9982C5.50443 25.2766 8.97162 28.7454 13.2516 28.7454C17.53 28.7454 20.9988 25.2766 20.9988 20.9982C20.9988 16.7198 17.53 13.251 13.2516 13.251Z" fill="#F58220"/>
</svg>
