<?xml version="1.0" encoding="UTF-8"?>
<svg width="34px" height="32px" viewBox="0 0 34 32" version="1.1" xmlns="http://www.w3.org/2000/svg" xmlns:xlink="http://www.w3.org/1999/xlink">
  <title>B10698A6-08ED-4195-9B65-1372EFC0E828</title>
  <desc>Created with sketchtool.</desc>
  <g id="Page-1" stroke="none" stroke-width="1" fill="none" fill-rule="evenodd" stroke-linecap="round" stroke-linejoin="round">
    <g id="2" transform="translate(-212.000000, -446.000000)" stroke="#FFFFFF" stroke-width="1.6">
      <g id="Group-81" transform="translate(213.000000, 192.000000)">
        <g id="Group-80" transform="translate(0.000000, 155.000000)">
          <g id="Group-74" transform="translate(0.000000, 100.000000)">
            <g id="Assured-low-pre_2">
              <path d="M7.68,12.4 L13.04,12.4 L13.04,3.76 C13.04,3.76 19.52,4.32 17.36,12.4 L25.92,12.4 C25.92,12.4 27.6,16.16 24.88,17.2 C24.88,17.2 26.48,26.88 17.36,27.44 L7.68,27.44 L7.68,12.4 Z" id="Path"></path>
              <rect id="Rectangle" x="0.64" y="10.8" width="6.96" height="18.84"></rect>
              <line x1="24.88" y1="0" x2="24.88" y2="5.36" id="Path"></line>
              <line x1="27.6" y1="2.72" x2="22.16" y2="2.72" id="Path"></line>
              <line x1="29.76" y1="8.08" x2="29.76" y2="11.28" id="Path"></line>
              <line x1="31.36" y1="9.68" x2="28.08" y2="9.68" id="Path"></line>
              <line x1="3.92" y1="13.44" x2="3.92" y2="15.6" id="Path"></line>
            </g>
          </g>
        </g>
      </g>
    </g>
  </g>
</svg>