<svg width="37" height="37" viewBox="0 0 37 37" fill="none" xmlns="http://www.w3.org/2000/svg">
<path fill-rule="evenodd" clip-rule="evenodd" d="M2.23297 3.69516C1.92931 4.20796 1.96594 4.92528 2.09717 5.66702C3.42778 13.1454 7.04121 19.8455 12.1272 24.9323C17.2131 30.0192 24.0966 33.8164 31.3357 34.9107C32.0803 35.0236 32.7945 35.077 33.3072 34.7748C33.4903 34.6665 33.7192 34.4757 33.7818 34.1766L34.9735 28.8486C35.0681 28.3953 34.9049 27.9191 34.5249 27.5391C34.3418 27.3575 30.3072 25.9015 28.3998 24.969C27.6154 24.5889 26.6968 24.8041 26.3138 25.4467L25.5722 26.7226C25.3204 27.156 24.8977 27.4765 24.411 27.5971C22.5448 28.0717 16.7645 22.7499 15.5102 21.4953C14.2085 20.1935 8.71059 14.2733 9.18668 12.4052C9.30723 11.9184 9.62768 11.4956 10.0595 11.2438C11.1719 10.5982 10.8713 10.7737 11.3245 10.5097C11.9776 10.1174 12.1928 9.19866 11.8143 8.41877C10.9797 6.71247 10.5036 5.11148 9.95423 3.29377C9.71008 2.49403 8.941 1.86371 8.1704 2.02549C8.1704 2.02549 8.07885 2.04685 2.81588 3.22356C2.53206 3.28308 2.34132 3.51201 2.23297 3.69516Z" stroke="#004A80" stroke-width="2.31" stroke-linecap="round" stroke-linejoin="round"/>
<path fill-rule="evenodd" clip-rule="evenodd" d="M26.8306 17.4305C26.4638 17.4305 26.1656 17.1337 26.1656 16.7655C26.1656 11.8067 22.1308 7.77189 17.1706 7.77189C16.8038 7.77189 16.5056 7.47369 16.5056 7.10689C16.5056 6.74009 16.8038 6.44189 17.1706 6.44189C22.863 6.44189 27.4956 11.0731 27.4956 16.7655C27.4956 17.1337 27.1974 17.4305 26.8306 17.4305Z" fill="#F58220"/>
<path fill-rule="evenodd" clip-rule="evenodd" d="M30.9226 17.4305C30.5558 17.4305 30.2576 17.1337 30.2576 16.7655C30.2576 9.54987 24.3874 3.67967 17.1704 3.67967C16.805 3.67967 16.5068 3.38147 16.5068 3.01467C16.5068 2.64787 16.805 2.35107 17.1704 2.35107C25.1196 2.35107 31.5862 8.81767 31.5862 16.7655C31.5862 17.1337 31.2894 17.4305 30.9226 17.4305Z" fill="#F58220"/>
</svg>
