<svg width="30" height="30" viewBox="0 0 30 30" fill="none" xmlns="http://www.w3.org/2000/svg">
<path d="M18.965 20.5349L17.73 19.1699L16.98 19.8449L18.215 21.2099C18.015 21.6499 18.08 22.1899 18.425 22.5749L20.725 25.1249C21.19 25.6399 21.99 25.6849 22.505 25.2149C23.02 24.7499 23.065 23.9499 22.595 23.4349L20.295 20.8849C19.95 20.4999 19.42 20.3799 18.96 20.5349H18.965Z" fill="#EC6625"/>
<path d="M14.2099 20.8456C16.8554 20.8456 18.9999 18.7011 18.9999 16.0556C18.9999 13.4102 16.8554 11.2656 14.2099 11.2656C11.5645 11.2656 9.41992 13.4102 9.41992 16.0556C9.41992 18.7011 11.5645 20.8456 14.2099 20.8456Z" stroke="#F58220" stroke-miterlimit="10"/>
<path d="M12.1099 14.6543H15.9399" stroke="#004A80" stroke-width="0.5" stroke-linecap="round" stroke-linejoin="round"/>
<path d="M12.1099 16.0352H15.9399" stroke="#004A80" stroke-width="0.5" stroke-linecap="round" stroke-linejoin="round"/>
<path d="M12.1099 17.7598H13.5349" stroke="#004A80" stroke-width="0.5" stroke-linecap="round" stroke-linejoin="round"/>
<path d="M9.17521 6.04297V8.74797H6.47021" stroke="#004A80" stroke-linecap="round" stroke-linejoin="round"/>
<path d="M17.6552 24.9041H7.75021C7.04522 24.9041 6.47021 24.3341 6.47021 23.6241V8.74406L9.17521 6.03906H19.7002C20.4052 6.03906 20.9802 6.60906 20.9802 7.31906V17.9341" stroke="#004A80" stroke-linecap="round" stroke-linejoin="round"/>
</svg>
