<svg width="473" height="253" viewBox="0 0 473 253" fill="none" xmlns="http://www.w3.org/2000/svg">
<path opacity="0.22" d="M166.907 252.199C254.503 252.199 325.513 246.191 325.513 238.781C325.513 231.37 254.503 225.363 166.907 225.363C79.3116 225.363 8.30127 231.37 8.30127 238.781C8.30127 246.191 79.3116 252.199 166.907 252.199Z" fill="#FFDBCF"/>
<path opacity="0.22" d="M413.237 225.529C445.973 225.529 472.511 223.359 472.511 220.682C472.511 218.005 445.973 215.835 413.237 215.835C380.501 215.835 353.963 218.005 353.963 220.682C353.963 223.359 380.501 225.529 413.237 225.529Z" fill="#FFDBCF"/>
<path d="M205.118 95.1141L210.122 96.273L183.071 213.064C182.917 213.728 182.506 214.303 181.929 214.664C181.351 215.024 180.653 215.141 179.99 214.987C179.326 214.833 178.751 214.422 178.39 213.844C178.03 213.267 177.913 212.569 178.067 211.906L205.118 95.1141Z" fill="#FFF2EB"/>
<path d="M456.861 214.961C456.198 215.115 455.5 214.999 454.922 214.638C454.345 214.278 453.934 213.702 453.78 213.039L426.73 96.2535L431.734 95.0946L458.787 211.892C458.94 212.556 458.824 213.253 458.464 213.831C458.103 214.409 457.528 214.82 456.864 214.974L456.861 214.961Z" fill="#FFF2EB"/>
<path d="M449.783 92.4276H192.076V98.5588H449.783V92.4276Z" fill="#FFF2EB"/>
<path d="M315.259 88.8837V75.2794H291.947V88.8837H284.826V91.15H291.947H315.259H322.386V88.8837H315.259Z" fill="#FFF2EB"/>
<path d="M349.725 18.6154H257.481C255.056 18.6154 253.09 20.5814 253.09 23.0067V78.0143C253.09 80.4396 255.056 82.4057 257.481 82.4057H349.725C352.15 82.4057 354.117 80.4396 354.117 78.0143V23.0067C354.117 20.5814 352.15 18.6154 349.725 18.6154Z" fill="#FFF2EB"/>
<path d="M350.393 22.506H256.813V72.3711H350.393V22.506Z" fill="white"/>
<path d="M434.424 79.2599H380.203V90.9317H434.424V79.2599Z" fill="#FFF2EB"/>
<path d="M431.471 66.6122H377.25V78.284H431.471V66.6122Z" fill="#FFF2EB"/>
<path d="M224.229 87.0603H205V91.1435H224.229V87.0603Z" fill="#FFF2EB"/>
<path d="M205.842 68.795H222.908V80.2999C222.908 82.0299 222.22 83.689 220.997 84.9123C219.774 86.1355 218.114 86.8227 216.384 86.8227H212.365C210.635 86.8227 208.976 86.1355 207.752 84.9123C206.529 83.689 205.842 82.0299 205.842 80.2999V68.795Z" fill="#FFF2EB"/>
<path d="M206.021 69.8737C204.724 69.8724 203.456 70.2558 202.377 70.9752C201.298 71.6947 200.457 72.718 199.96 73.9157C199.463 75.1133 199.332 76.4315 199.584 77.7035C199.836 78.9754 200.46 80.144 201.377 81.0614C202.293 81.9787 203.461 82.6037 204.733 82.8571C206.005 83.1106 207.323 82.9811 208.521 82.4852C209.72 81.9893 210.744 81.1491 211.464 80.071C212.185 78.9929 212.57 77.7253 212.57 76.4286C212.57 74.6912 211.88 73.0249 210.652 71.7958C209.424 70.5667 207.758 69.8754 206.021 69.8737ZM206.021 80.5054C205.213 80.5054 204.423 80.2657 203.751 79.8168C203.08 79.3678 202.556 78.7298 202.248 77.9833C201.939 77.2368 201.858 76.4155 202.016 75.6232C202.174 74.831 202.564 74.1034 203.136 73.5327C203.707 72.9619 204.436 72.5735 205.228 72.4167C206.021 72.2598 206.842 72.3416 207.588 72.6516C208.334 72.9617 208.971 73.486 209.419 74.1584C209.867 74.8307 210.105 75.6208 210.104 76.4286C210.108 76.9672 210.006 77.5013 209.803 78.0001C209.599 78.4988 209.299 78.9523 208.919 79.3344C208.54 79.7164 208.088 80.0195 207.59 80.226C207.093 80.4325 206.559 80.5383 206.021 80.5375V80.5054Z" fill="#FFF2EB"/>
<path opacity="0.75" d="M209.527 65.6685C209.527 65.6685 212.352 63.9479 209.289 61.3157C206.227 58.6834 209.193 58.5871 209.431 51.9808C209.668 45.3745 215.941 49.1046 212.686 45.7084C209.431 42.3121 215.755 40.155 215.37 45.6634C214.985 51.1719 209.957 47.9105 210.965 52.3596C211.973 56.8088 215.704 58.1377 213.026 60.5966C210.349 63.0555 213.071 64.8532 209.527 65.6685Z" fill="#FFF2EB"/>
<path d="M342.489 84.5051C341.468 85.0014 340.606 85.7751 340.003 86.7379C339.4 87.7006 339.08 88.8135 339.08 89.9494V91.5737H342.489V84.5051Z" fill="#FFF2EB"/>
<path d="M348.158 83.8952H345.121C344.514 83.8955 343.91 83.9864 343.33 84.1649V91.5737H354.245V89.9494C354.245 89.1517 354.087 88.3618 353.781 87.6251C353.475 86.8885 353.026 86.2197 352.46 85.6571C351.895 85.0945 351.223 84.6492 350.485 84.3468C349.747 84.0445 348.956 83.891 348.158 83.8952Z" fill="#FFF2EB"/>
<path d="M19.762 72.5252C20.0959 71.8832 18.1056 59.929 18.1056 59.929C18.2938 63.6035 17.9126 67.2851 16.9756 70.8432C16.1218 72.8578 15.0265 74.7614 13.7139 76.5121C11.0751 80.1267 7.09437 88.7617 13.9194 93.8465C14.5478 94.5875 15.2914 95.2227 16.1216 95.7276C23.0815 100.035 30.2853 99.3742 34.5935 106C34.5935 105.987 27.5501 91.2463 19.762 72.5252ZM10.5486 86.1937C10.6963 82.9836 12.173 80.2872 13.7589 77.7962C11.7107 82.2902 10.6835 88.0683 12.8536 92.2093C12.0867 91.4116 11.4876 90.4682 11.0917 89.435C10.6958 88.4017 10.5111 87.2995 10.5486 86.1937Z" fill="#001E49"/>
<path d="M89.3539 29.78L84.5256 14.5194L74.561 18.2238L79.0811 40.7135L89.3539 29.78Z" fill="#FFBA97"/>
<path d="M76.1021 24.599L73.5339 18.1789C72.7564 16.0859 72.777 13.7798 73.5917 11.701L75.2289 7.53434C75.2832 7.39251 75.3736 7.2673 75.4911 7.17108C75.6086 7.07486 75.7492 7.01095 75.899 6.98566C76.0487 6.96038 76.2025 6.9746 76.3451 7.02691C76.4877 7.07922 76.6142 7.16782 76.712 7.28395C76.8364 7.4318 76.9362 7.59872 77.0074 7.7783L76.6799 10.5004C76.5511 11.5862 76.8277 12.6814 77.4568 13.5757L80.4038 9.08159L81.4825 5.01123L85.9768 19.219C85.9768 19.219 85.3091 31.8088 76.1021 24.599Z" fill="#FFBA97"/>
<path d="M85.9191 18.6346C85.9191 18.6346 86.9078 23.3599 82.8115 25.4721C82.8115 25.4721 85.2963 24.2266 85.9191 18.6346Z" fill="#F7A17F"/>
<path d="M77.6431 13.5178C77.6431 13.5178 81.1358 15.9767 80.0764 19.5463C80.0764 19.5463 83.306 15.2705 77.6431 13.5178Z" fill="#F7A17F"/>
<path d="M78.3222 1.22048C78.1258 0.546439 77.4216 0.158787 76.7492 0.354629C76.0768 0.550472 75.6909 1.25565 75.8873 1.92969L81.2794 20.44C81.4757 21.1141 82.1799 21.5017 82.8523 21.3059C83.5247 21.1101 83.9106 20.4049 83.7143 19.7308L78.3222 1.22048Z" fill="#EC6625"/>
<path d="M76.7503 0.337335C76.5298 0.406916 76.3382 0.546708 76.2046 0.735383C76.5889 0.704608 76.9707 0.81962 77.2741 1.05754C77.5774 1.29546 77.7801 1.63885 77.8418 2.01941L83.0103 19.7518C83.0943 20.0107 83.1194 20.2852 83.0839 20.555C83.0483 20.8249 82.953 21.0835 82.8049 21.3119H82.8498C83.4919 21.1129 83.8579 20.2397 83.601 19.3473L78.4325 1.57C78.1757 0.703282 77.4181 0.138312 76.7503 0.337335Z" fill="#001E35"/>
<path d="M77.8443 4.7483C77.8145 4.64618 77.709 4.5871 77.6086 4.61635C77.5082 4.6456 77.4509 4.7521 77.4806 4.85423L78.0193 6.70342C78.049 6.80554 78.1546 6.86462 78.255 6.83537C78.3554 6.80612 78.4127 6.69962 78.383 6.59749L77.8443 4.7483Z" fill="#FFF2EB"/>
<path d="M78.606 7.3932C78.5763 7.29107 78.4707 7.23199 78.3703 7.26125C78.2699 7.2905 78.2126 7.397 78.2423 7.49913L78.781 9.34831C78.8108 9.45044 78.9163 9.50952 79.0167 9.48027C79.1172 9.45102 79.1744 9.34451 79.1447 9.24239L78.606 7.3932Z" fill="#FFF2EB"/>
<path d="M78.8315 2.96228L78.9425 2.92996C78.9866 2.91711 79.0341 2.92231 79.0744 2.94443C79.1147 2.96655 79.1446 3.00377 79.1574 3.04791L80.3228 7.04831C80.3356 7.09245 80.3304 7.13989 80.3083 7.1802C80.2861 7.2205 80.2489 7.25036 80.2048 7.26322L80.0938 7.29554L78.8369 2.98077L78.8315 2.96228Z" fill="#001E35"/>
<path d="M79.9581 3.55381C79.2305 3.12627 78.294 3.36949 77.8665 4.09705C77.4389 4.82462 77.6821 5.76102 78.4097 6.18856L79.2899 6.70574C80.0175 7.13328 80.954 6.89006 81.3815 6.1625C81.8091 5.43493 81.5659 4.49853 80.8382 4.07099L79.9581 3.55381Z" fill="#FFBA97"/>
<path d="M80.4052 5.97346C79.6337 5.63156 78.731 5.97982 78.3891 6.75134C78.0472 7.52287 78.3955 8.42547 79.1671 8.76737L80.1004 9.18094C80.872 9.52283 81.7746 9.17454 82.1165 8.40301C82.4585 7.63149 82.1101 6.72892 81.3386 6.38703L80.4052 5.97346Z" fill="#FFBA97"/>
<path d="M80.9819 9.01505C80.2103 8.67316 79.3077 9.02144 78.9658 9.79297C78.6239 10.5645 78.9722 11.4671 79.7437 11.809L80.6771 12.2226C81.4486 12.5645 82.3513 12.2162 82.6932 11.4446C83.0351 10.6731 82.6868 9.77051 81.9152 9.42862L80.9819 9.01505Z" fill="#FFBA97"/>
<path d="M81.7782 11.7939C81.0682 11.4793 80.2382 11.7985 79.9243 12.5068C79.6104 13.2151 79.9315 14.0443 80.6415 14.3589L81.4985 14.7387C82.2085 15.0533 83.0385 14.7341 83.3524 14.0258C83.6663 13.3175 83.3452 12.4883 82.6352 12.1737L81.7782 11.7939Z" fill="#FFBA97"/>
<path d="M72.1211 84.4537C72.1211 84.4537 116.525 102.013 130.111 118.583L166.233 150.042C166.233 150.042 171.536 157.329 159.941 155.345C158.284 155.345 131.768 150.042 131.768 150.042L109.546 140.578L72.1211 84.4537Z" fill="#FFF2EB"/>
<path d="M89.3028 104.485C88.9746 100.211 88.9746 95.9181 89.3028 91.6443L90.1567 91.7149C89.8333 95.931 89.8333 100.166 90.1567 104.382L89.3028 104.485Z" fill="#FFDBCF"/>
<path d="M94.22 94.1289L91.353 112.798L92.2034 112.929L95.0704 94.2595L94.22 94.1289Z" fill="#FFDBCF"/>
<path d="M93.6555 114.295L92.8145 114.134C94.1499 107.001 96.1018 96.0871 96.0247 95.246C96.0354 95.3039 96.0588 95.3587 96.0933 95.4064C96.1277 95.4541 96.1722 95.4937 96.2237 95.5221L96.6411 94.7645C97.0135 94.97 97.1226 95.0342 95.357 104.825C94.5544 109.518 93.6684 114.243 93.6555 114.295Z" fill="#FFDBCF"/>
<path d="M101.432 97.9497L96.0469 115.584L96.8697 115.836L102.255 98.2009L101.432 97.9497Z" fill="#FFDBCF"/>
<path d="M107.666 103.344L100.378 118.866L101.157 119.232L108.445 103.709L107.666 103.344Z" fill="#FFDBCF"/>
<path d="M114.116 107.88L105.792 120.829L106.515 121.293L114.839 108.345L114.116 107.88Z" fill="#FFDBCF"/>
<path d="M119.054 109.577L112.022 121.284L112.76 121.727L119.792 110.02L119.054 109.577Z" fill="#FFDBCF"/>
<path d="M143.363 131.764C142.952 131.391 102.098 94.161 70.811 87.0603L71.7613 82.8744C85.3921 85.9689 102.085 94.6168 121.36 108.555C129.988 114.8 138.29 121.483 146.233 128.579L143.363 131.764Z" fill="#FFDBCF"/>
<path d="M39.3189 15.8611C39.3189 15.8611 39.5629 10.1857 35.961 10.083C32.359 9.9803 26.022 12.0668 26.022 12.0668L34.221 18.2623L39.3189 15.8611Z" fill="black"/>
<path d="M45.5273 53.3034C45.5273 53.3034 49.5081 52.0578 56.9623 53.5537C62.1565 54.5938 80.8659 56.2309 91.7358 57.1362C93.8748 57.3118 95.8624 58.3095 97.2812 59.9197C98.6999 61.5299 99.4394 63.6273 99.3441 65.7712C99.2949 66.8686 99.0284 67.9452 98.56 68.9388C98.0916 69.9324 97.4307 70.8232 96.6155 71.5595C95.8003 72.2958 94.8471 72.863 93.8111 73.2283C92.7751 73.5935 91.6769 73.7495 90.5801 73.6872L72.3715 72.6664L45.5273 53.3034Z" fill="#EC6625"/>
<path d="M44.2881 62.253L55.203 56.0383C55.203 56.0383 59.9221 56.5327 62.4132 58.7733L81.5464 69.206C81.5464 69.206 84.5319 71.4466 84.2815 73.7001L62.1628 74.2009L44.2881 62.253Z" fill="#D84C07"/>
<path d="M92.0054 103.753L118.599 114.442L135.248 118.416L178.053 127.738C179.755 128.109 181.365 128.818 182.787 129.823C184.209 130.829 185.415 132.11 186.332 133.59C187.249 135.071 187.859 136.721 188.125 138.442C188.392 140.163 188.309 141.92 187.883 143.609C187.083 146.766 185.127 149.508 182.402 151.291C179.676 153.075 176.381 153.77 173.167 153.239L150.413 149.477C150.413 149.477 123.691 149.971 104.827 137.548C85.9637 125.125 72.6411 115.803 72.6411 115.803L92.0054 103.753Z" fill="#001E49"/>
<path d="M95.4854 105.242C95.4854 105.242 94.8434 106.982 91.3827 108.227C87.9221 109.473 82.9333 110.962 81.5657 114.442C80.1981 117.922 78.7086 121.774 78.7086 121.774L70.0088 116.304C70.0088 116.304 86.5352 102.013 95.4854 105.242Z" fill="#01142B"/>
<path d="M23.9097 70.9458C23.9097 70.9458 55.8453 108.722 75.4793 117.421C75.4793 117.421 81.5659 108.972 87.0362 107.977C90.3267 107.383 93.51 106.301 96.4808 104.767L87.2802 98.8027L83.3059 86.3733C83.3059 86.3733 86.7858 81.6545 84.7954 76.6854C83.2481 72.8333 69.4889 64.7183 63.4793 61.3284C61.8722 60.4151 60.3471 59.3648 58.9208 58.189C56.5901 56.263 52.3076 53.4766 48.2627 54.3369L30.8631 51.3516L23.9097 70.9458Z" fill="#EC6625"/>
<path d="M42.2975 36.0718L53.5655 63.5756L29.7069 60.5966L19.4341 36.4056L42.2975 36.0718Z" fill="#FFBA97"/>
<path d="M26.7217 30.4606L35.2224 48.7836C36.5857 51.723 38.9058 54.1131 41.8035 55.5632L52.5707 60.9433L40.6414 31.1026L26.7217 30.4606Z" fill="#F7A17F"/>
<path d="M54.8501 34.9867L50.1759 29.2086C50.5779 28.6201 50.779 27.9176 50.7492 27.2056C50.7194 26.4936 50.4604 25.8103 50.0108 25.2575C49.5611 24.7046 48.9449 24.3118 48.2538 24.1376C47.5628 23.9634 46.834 24.0171 46.176 24.2907L39.3188 15.8611C33.0203 10.5581 25.7266 15.2191 25.7266 15.2191C2.53572 34.1071 26.7218 47.6921 26.7218 47.6921L36.282 51.5442C37.4276 52.0049 38.6671 52.1837 39.8962 52.0652C41.1254 51.9468 42.308 51.5347 43.3445 50.8636L53.3734 44.3215C54.1226 43.8377 54.7614 43.2013 55.248 42.4539C55.7347 41.7065 56.0582 40.8649 56.1976 39.984C56.3369 39.1031 56.289 38.2028 56.0568 37.3417C55.8246 36.4806 55.4134 35.6781 54.8501 34.9867Z" fill="#FFBA97"/>
<path d="M29.9256 10.0445C30.2612 9.99131 30.6043 10.0105 30.9319 10.1009C31.2595 10.1912 31.5639 10.3506 31.8248 10.5683C32.0857 10.786 32.2969 11.0569 32.4445 11.363C32.592 11.6691 32.6723 12.0032 32.68 12.3429C32.7313 14.5964 32.5131 17.7615 31.1134 19.7517C29.9076 21.4044 28.8342 23.1497 27.9031 24.9713C28.8981 26.1231 29.5066 27.5579 29.6431 29.0738C29.7522 31.141 28.0508 35.7764 28.6222 39.2304C28.8768 40.9105 28.9457 42.6135 28.8277 44.3087L28.1535 57.149H17.3221C17.3221 57.149 12.4746 54.048 6.88234 46.5943C1.29007 39.1405 0.667304 38.5178 0.0445137 33.1762C-0.578276 27.8347 5.41206 18.5127 13.1167 15.1549C18.4649 12.705 24.1187 10.9861 29.9256 10.0445Z" fill="black"/>
<path d="M43.5435 34.2484L51.1646 33.2533C51.1646 33.2533 50.0025 41.7921 43.5435 34.2484Z" fill="white"/>
<path d="M41.0906 26.7787C41.4341 26.5397 41.3594 25.8387 40.9239 25.213C40.4883 24.5873 39.8568 24.2739 39.5134 24.5129C39.17 24.7519 39.2447 25.4529 39.6802 26.0786C40.1158 26.7043 40.7472 27.0177 41.0906 26.7787Z" fill="#001E35"/>
<path d="M40.1857 21.3696C40.1857 21.3696 37.823 22.1143 35.961 26.6084C35.961 26.6084 35.7106 20.0021 40.1857 21.3696Z" fill="#001E35"/>
<path d="M33.2707 49.6566C32.0071 49.6579 30.7715 49.284 29.7206 48.5825C28.6697 47.8809 27.8508 46.8831 27.3675 45.7156C26.8842 44.5482 26.7584 43.2635 27.0061 42.0245C27.2537 40.7855 27.8635 39.6478 28.7584 38.7557C29.6532 37.8636 30.7928 37.2573 32.0326 37.0134C33.2725 36.7696 34.5568 36.8992 35.7229 37.386C36.889 37.8727 37.8843 38.6947 38.5827 39.7476C39.2812 40.8006 39.6513 42.0372 39.6463 43.3007C39.6395 44.9877 38.965 46.6033 37.7702 47.7943C36.5755 48.9854 34.9577 49.655 33.2707 49.6566ZM33.2707 37.4006C32.108 37.3994 30.9711 37.7427 30.0035 38.3873C29.036 39.0319 28.2811 39.9487 27.8345 41.0221C27.3878 42.0954 27.2693 43.2771 27.4939 44.4177C27.7186 45.5584 28.2763 46.6069 29.0966 47.4307C29.9169 48.2546 30.963 48.8168 32.1028 49.0465C33.2425 49.2761 34.4247 49.1627 35.5001 48.7207C36.5754 48.2788 37.4957 47.528 38.1445 46.5633C38.7933 45.5986 39.1416 44.4633 39.1454 43.3007C39.1471 42.5276 38.9965 41.7617 38.7022 41.0468C38.4079 40.3319 37.9756 39.6819 37.4301 39.134C36.8846 38.5862 36.2365 38.1511 35.5228 37.8537C34.8091 37.5563 34.0439 37.4023 33.2707 37.4006Z" fill="white"/>
<path d="M50.1823 29.2279L49.1357 30.6853L51.7425 31.186L50.1823 29.2279Z" fill="#F7A17F"/>
<path d="M1.55981 38.3894C1.55981 38.3894 0.815024 42.6202 2.55498 45.5992L7.25481 49.0789C7.25481 49.0789 8.74437 52.0578 12.4747 50.8187L18.189 51.0691L9.98995 37.1503L1.55981 38.3894Z" fill="#FFBA97"/>
<path d="M14.4648 24.2266H5.51465C5.51465 24.2266 0.275521 32.4251 0.795583 40.3796C1.22549 42.0683 2.17753 43.5783 3.51603 44.6942C4.85453 45.8101 6.51117 46.4751 8.24979 46.5943C8.24979 46.5943 14.9592 45.8495 16.2048 42.8642L14.4648 24.2266Z" fill="#EC6625"/>
<path d="M4.02539 30.6852C4.02539 30.6852 4.26933 40.3796 9.24523 46.0935C9.24523 46.0935 14.2147 45.8495 16.2051 41.869L4.02539 30.6852Z" fill="#D84C07"/>
<path d="M26.5999 72.0501L23.8841 70.9458L4.68026 34.8776C4.0395 33.6791 3.64292 32.3655 3.51349 31.0127C3.38406 29.6599 3.52436 28.2949 3.92625 26.9967C4.32815 25.6985 4.98369 24.493 5.85484 23.4499C6.72599 22.4069 7.79546 21.547 9.0013 20.9202C11.2983 19.7194 13.9643 19.4313 16.4649 20.1135C18.9654 20.7958 21.1156 22.398 22.4844 24.5989L49.5147 67.9669L37.1938 72.3004C33.7517 73.5219 29.9804 73.4328 26.5999 72.0501Z" fill="#EC6625"/>
<path d="M46.2725 62.9977L55.4923 77.6612C55.4923 77.6612 53.2323 68.4612 46.2725 62.9977Z" fill="#D84C07"/>
<path d="M67.4023 71.1962C67.4023 71.1962 74.8566 75.4206 76.1021 79.4011C77.3477 83.3816 73.8614 88.5947 73.8614 88.5947C75.1308 87.4912 76.1279 86.1093 76.775 84.5568C77.4221 83.0044 77.7016 81.3234 77.5917 79.645C77.322 73.6808 67.4023 71.1962 67.4023 71.1962Z" fill="#D84C07"/>
<path d="M66.9014 95.3037C66.9014 95.3037 82.0666 103.753 92.0056 103.753L66.9014 95.3037Z" fill="#D84C07"/>
<path d="M77.0903 31.9307C77.0903 31.9307 85.5461 30.6852 89.5204 26.9615L99.4594 64.7375L82.5606 66.9717L77.0903 31.9307Z" fill="#EC6625"/>
<path d="M309.816 188.216C307.793 185.108 303.992 181.494 296.853 179.228C286.034 175.786 267.742 174.535 259.016 174.092V173.899C259.016 173.899 258.118 173.899 256.557 173.982C255.004 173.918 254.098 173.899 254.098 173.899V174.092C245.373 174.509 227.081 175.761 216.262 179.228C209.29 181.443 205.501 184.948 203.421 188.004C201.782 190.471 200.955 193.39 201.058 196.35L201.989 229.272C201.989 229.272 202.631 239.545 213.919 242.196C213.919 242.196 219.383 243.243 227.087 244.488C245.843 247.513 264.955 247.595 283.735 244.732C292.628 243.371 299.145 242.164 299.145 242.164C310.413 239.513 311.074 229.24 311.074 229.24L312.005 196.318C312.116 193.457 311.352 190.631 309.816 188.216Z" fill="#FFDBCF"/>
<path d="M81.9123 64.7376L80.686 55.3771C80.686 55.3771 79.9861 60.7764 81.9123 64.7376Z" fill="#D84C07"/>
<path d="M206.83 130.345L223.979 163.896L238.888 183.028L245.103 185.019C245.103 185.019 248.422 183.651 249.347 186.803C249.396 186.972 249.404 187.15 249.373 187.323C249.341 187.496 249.269 187.659 249.163 187.799C249.057 187.939 248.92 188.053 248.762 188.131C248.605 188.209 248.431 188.249 248.255 188.248H222.49C222.49 188.248 218.509 183.028 214.034 182.284C210.907 181.764 208.75 181.122 206.971 179.074C206.251 178.217 205.728 177.211 205.441 176.129C205.154 175.047 205.108 173.915 205.308 172.814L207.087 162.157L193.411 141.034L206.83 130.345Z" fill="#FFBA97"/>
<path d="M167.062 103.258L191.421 143.763C191.421 143.763 205.835 144.508 212.294 137.054L191.421 93.0696L167.062 103.258Z" fill="#001E49"/>
<path d="M180.73 125.498L185.828 133.574L206.701 141.028L208.692 139.789L180.73 125.498Z" fill="#01142B"/>
<path d="M212.05 169.983C212.05 169.983 210.554 172.223 213.79 172.84C213.29 172.541 212.87 172.125 212.566 171.627C212.263 171.129 212.086 170.564 212.05 169.983Z" fill="#F7A17F"/>
<path d="M237.648 157.181L261.835 164.853C264.355 165.649 267.007 165.95 269.642 165.739L299.118 163.357L301.854 161.309L303.446 159.261C303.446 159.261 308.685 159.71 305.95 164.038C305.95 164.038 307.317 166.541 304.126 168.365C304.126 168.365 304.126 170.869 300.711 172.217C300.711 172.217 300.942 173.584 299.118 175.177C299.118 175.177 296.614 178.592 293.886 179.504C291.157 180.415 282.502 181.333 279.568 184.73L277.745 187.009H266.335C264.845 185.945 263.417 184.796 262.059 183.568C260.247 181.889 258.037 180.698 255.639 180.107C250.034 178.765 240.351 176.416 237.661 175.613L237.648 157.181Z" fill="#FFBA97"/>
<path d="M267.222 176.839C267.222 176.839 268.711 179.818 271.947 178.078C271.947 178.059 268.095 181.789 267.222 176.839Z" fill="#F7A17F"/>
<path d="M303.632 168.243C303.632 168.243 302.888 167.601 301.648 168.615C301.648 168.615 302.888 166.753 303.632 168.243Z" fill="#F7A17F"/>
<path d="M305.95 163.999C305.95 163.999 304.506 163.261 302.888 165.001C302.888 165.013 305.039 161.521 305.95 163.999Z" fill="#F7A17F"/>
<path d="M300.711 172.21C300.711 172.21 300.03 171.228 298.412 173.09C298.412 173.09 300.159 169.219 300.711 172.21Z" fill="#F7A17F"/>
<path d="M243.485 159.3L246.098 159.942C246.098 159.942 248.833 172.621 244.236 177.218L235.78 174.978L243.485 159.3Z" fill="#F7A17F"/>
<path d="M170.047 133.574L181.289 128.913L245.847 157.682C245.847 157.682 246.348 171.6 238.643 179.054L165.077 149.727L170.047 133.574Z" fill="#001E49"/>
<path d="M191.17 136.681C191.17 136.681 191.543 143.39 184.955 144.886C184.955 144.886 193.404 143.146 191.17 136.681Z" fill="#01142B"/>
<path d="M114.869 113.922L173.155 85.205C176.014 83.7964 179.287 83.469 182.368 84.2831C185.45 85.0972 188.134 86.9979 189.925 89.6349C191.854 92.4806 192.598 95.9661 191.998 99.3513C191.399 102.736 189.504 105.755 186.715 107.765L149.906 134.3L114.869 113.922Z" fill="#001E49"/>
<path d="M175.016 116.304L169.424 105.865C169.424 105.865 172.159 114.564 175.016 116.304Z" fill="#01142B"/>
<path d="M162.837 124.875L134.631 122.146L120.962 117.049L175.016 116.304L162.837 124.875Z" fill="#01142B"/>
<path d="M254.715 190.488C254.715 190.488 274.927 185.185 288.846 188.498C288.846 188.498 274.265 181.873 254.715 190.488Z" fill="#FFD1C5"/>
<path d="M217.431 188.665L253.225 188.498C253.225 188.498 226.548 186.842 217.431 188.665Z" fill="#FFD1C5"/>
<path d="M204.84 192.472C204.84 192.472 205.09 196.966 219.999 199.188C234.907 201.409 265.238 200.176 265.238 200.176C265.238 200.176 303.26 197.942 306.489 190.489C306.489 190.489 308.229 199.188 265.238 201.403C265.238 201.403 242.368 202.892 219.999 200.908C219.999 200.928 204.84 198.437 204.84 192.472Z" fill="#FFD1C5"/>
<path d="M87.3633 126.204C85.7775 125.125 66.4902 113.28 66.4902 113.28L15.7168 67.3378C15.7168 67.3378 49.2961 147.23 65.2575 161.515L66.1821 161.951C66.4966 162.204 66.8292 162.434 67.1772 162.638L82.4581 171.568C83.8985 172.416 85.5719 172.783 87.2349 172.615C97.3472 171.588 134.843 167.177 157.674 156.353L158.644 154.369C158.644 154.369 132.763 157.02 87.3633 126.204Z" fill="#FFF2EB"/>
<path d="M84.6156 172.859L65.2578 161.508C33.5597 119.302 16.5068 65.2063 16.3398 64.6734L16.7764 64.5386C16.9434 65.0779 33.9642 119.058 65.5724 161.194L84.6862 172.377C86.8307 172.031 129.367 165.065 149.328 155.082L149.533 155.492C138.85 160.834 121.778 165.27 109.341 168.05C95.8579 171.055 84.7825 172.827 84.6734 172.846L84.6156 172.859Z" fill="#FFDBCF"/>
<path d="M78.497 169.135L78.2466 168.75C85.4247 164.083 103.929 136.168 104.121 135.885L104.507 136.142C103.742 137.259 85.7522 164.384 78.497 169.135Z" fill="#FFDBCF"/>
<path d="M79.986 170.015L79.7612 169.61C86.4899 165.951 109.296 140.854 109.546 140.598L109.886 140.912C108.949 141.946 86.7789 166.317 79.986 170.015Z" fill="#FFDBCF"/>
<path d="M81.5273 170.901L81.2705 170.516C81.553 170.329 109.617 151.448 115.46 144.321L115.813 144.61C109.925 151.801 81.8162 170.708 81.5273 170.901Z" fill="#FFDBCF"/>
<path d="M82.3044 171.369L82.0732 170.971C82.3814 170.798 112.982 153.573 120.596 147.14L120.892 147.486C113.277 153.952 82.6126 171.196 82.3044 171.369Z" fill="#FFDBCF"/>
<path d="M83.3316 171.998L83.1519 171.575C94.9849 166.561 124.59 148.103 124.885 147.917L125.129 148.308C124.834 148.494 95.1967 166.972 83.3316 171.998Z" fill="#FFDBCF"/>
<path d="M84.744 172.833L84.5835 172.403C97.9382 167.267 129.257 149.438 129.572 149.291L129.803 149.689C129.489 149.836 98.1372 167.697 84.744 172.833Z" fill="#FFDBCF"/>
<path d="M83.9541 172.403L83.8706 171.954C101.636 168.506 134.785 152.398 135.113 152.237L135.318 152.655C134.984 152.815 101.777 168.943 83.9541 172.403Z" fill="#FFDBCF"/>
<path d="M77.6619 168.429L77.2061 168.346C78.0407 163.588 88.9556 130.968 89.405 129.581L89.8416 129.728C89.7453 130.069 78.4838 163.704 77.6619 168.429Z" fill="#FFDBCF"/>
<path d="M96.4294 133.429L77.8086 168.61L78.2172 168.827L96.838 133.645L96.4294 133.429Z" fill="#FFDBCF"/>
<path d="M76.4808 167.716L76.0249 167.678C77.0393 155.666 84.3716 126.897 84.4422 126.589L84.8852 126.705C84.8146 127.013 77.4952 155.743 76.4808 167.716Z" fill="#FFDBCF"/>
<path d="M75.7361 167.267H75.2803C75.4665 157.2 81.8998 126.435 81.964 126.127L82.4135 126.223C82.3493 126.518 75.9223 157.239 75.7361 167.267Z" fill="#FFDBCF"/>
<path d="M66.8438 162.413C62.3494 153.265 45.9642 96.5686 45.8037 95.9972L46.2403 95.8688C46.4073 96.4402 62.786 153.098 67.2547 162.208L66.8438 162.413Z" fill="#FFDBCF"/>
<path d="M66.6768 162.567C62.5548 158.176 57.1103 145.137 50.4907 123.809C45.5662 107.939 41.7909 93.1723 41.7588 92.9925L42.2018 92.877C42.3495 93.4676 57.29 151.859 67.0107 162.214L66.6768 162.567Z" fill="#FFDBCF"/>
<path d="M62.8691 159.396C56.2817 150.947 49.6685 132.431 45.2833 118.403C40.5385 103.207 37.3026 89.8338 37.2705 89.699L37.7135 89.5898C37.7456 89.7247 40.9816 103.072 45.7263 118.269C51.9992 138.319 58.0601 152.443 63.2351 159.113L62.8691 159.396Z" fill="#FFDBCF"/>
<path d="M55.4922 147.307C52.1535 142.87 47.4023 131.256 41.3671 112.766C36.8727 99.0146 33.3286 86.3991 33.29 86.2707L33.7331 86.1487C33.8743 86.6495 47.9609 136.534 55.8582 147.031L55.4922 147.307Z" fill="#FFDBCF"/>
<path d="M46.9851 133.035C38.5228 120.747 29.5855 83.1954 29.4956 82.8167L29.945 82.7075C30.0349 83.0863 38.9338 120.586 47.3639 132.784L46.9851 133.035Z" fill="#FFDBCF"/>
<path d="M68.1792 162.933C64.969 157.451 49.1809 100.787 48.5132 98.379L48.9562 98.2506C49.1167 98.8413 65.4248 157.264 68.5773 162.702L68.1792 162.933Z" fill="#FFDBCF"/>
<path d="M69.617 164.083C67.3762 161.868 53.1162 104.279 52.5127 101.807L52.9557 101.698C58.0921 122.416 68.2173 162.047 69.9444 163.742L69.617 164.083Z" fill="#FFDBCF"/>
<path d="M70.176 164.378C68.2498 161.354 59.2226 109.28 58.8438 107.065L59.2932 106.982C59.3895 107.528 68.6864 161.181 70.5612 164.121L70.176 164.378Z" fill="#FFDBCF"/>
<path d="M71.3956 165.039C67.5433 149.74 63.9799 111.515 63.9478 111.11L64.4036 111.065C64.4036 111.45 68.0119 149.644 71.845 164.911L71.3956 165.039Z" fill="#FFDBCF"/>
<path d="M72.4873 165.72C71.094 163.152 67.8068 115.566 67.6655 113.543H68.1278C69.3027 130.653 71.8132 163.543 72.8918 165.546L72.4873 165.72Z" fill="#FFDBCF"/>
<path d="M73.4309 166.233C72.1468 160.712 73.3732 120.008 73.4309 118.294H73.8932C73.8932 118.718 72.6091 160.667 73.8932 166.111L73.4309 166.233Z" fill="#FFDBCF"/>
<path d="M74.0474 166.599C72.821 162.304 76.5321 122.069 76.6926 120.374L77.1484 120.419C77.1099 120.837 73.2962 162.279 74.4904 166.49L74.0474 166.599Z" fill="#FFDBCF"/>
<path d="M74.5932 166.862C74.5418 157.547 79.5947 122.654 79.6461 122.3L80.102 122.371C80.0506 122.718 74.9656 157.573 75.049 166.856L74.5932 166.862Z" fill="#FFDBCF"/>
<path d="M65.2575 161.514C44.8274 135.192 22.1373 74.785 21.9126 74.2008L22.3428 74.0403C22.5675 74.6438 45.2319 135.031 65.6235 161.251L65.2575 161.514Z" fill="#FFDBCF"/>
<path d="M83.4985 171.626C99.2609 167.389 125.097 160.102 127.319 158.613C130.593 156.417 138.875 151.55 139.254 151.332L140.885 154.106C140.795 154.157 132.307 159.145 129.11 161.283C126.144 163.274 98.2914 170.952 87.4407 173.892C87.0331 174.003 86.6075 174.032 86.1886 173.978C85.7696 173.924 85.3654 173.788 84.9992 173.578C84.633 173.367 84.3119 173.086 84.0544 172.751C83.7969 172.417 83.608 172.034 83.4985 171.626Z" fill="#FFDBCF"/>
<path d="M127.216 190.039H127.171L37.7266 184.498C37.5544 184.484 37.3936 184.407 37.2751 184.281C37.1566 184.156 37.0887 183.991 37.0845 183.818C37.0825 183.642 37.1479 183.472 37.2674 183.343C37.3868 183.214 37.5512 183.136 37.7266 183.125C59.8003 180.955 159.601 181.089 160.602 181.089C160.775 181.083 160.944 181.143 161.075 181.256C161.206 181.369 161.29 181.527 161.309 181.699C161.329 181.871 161.282 182.043 161.18 182.183C161.078 182.322 160.926 182.418 160.757 182.45L127.37 190.02C127.319 190.032 127.268 190.039 127.216 190.039ZM48.8854 183.805L127.132 188.652L154.4 182.47C135.376 182.476 76.9623 182.617 48.9111 183.805H48.8854Z" fill="#FFDBCF"/>
<path d="M22.4583 238.755L18.9463 237.657L50.1885 138.075L53.1163 141.041L22.4583 238.755Z" fill="#FFDBCF"/>
<path d="M127.546 166.054L123.875 166.293L129.469 252.327L133.14 252.088L127.546 166.054Z" fill="#FFDBCF"/>
<path d="M155.656 157.294L152.161 158.471L178.642 237.082L182.137 235.905L155.656 157.294Z" fill="#FFDBCF"/>
<path d="M171.202 152.963L158.946 150.973C157.866 151.499 156.68 151.769 155.479 151.762C152.467 151.762 148.904 151.583 144.788 151.172C142.793 150.972 140.821 150.592 138.894 150.035C120.018 144.559 82.2077 128.432 33.7585 81.462L29.3732 76.8331C24.4968 71.3621 20.4239 65.2249 17.277 58.6063C9.36047 57.7974 14.2658 66.5544 16.4166 69.9186C16.9203 70.7 17.5033 71.4272 18.1566 72.0886L18.4006 72.3326C18.9826 73.082 19.6042 73.7999 20.2625 74.4833C34.337 89.0448 49.4313 102.585 65.4308 115.001C91.0038 134.698 115.286 147.974 137.61 154.452C139.807 155.087 142.057 155.517 144.333 155.736C148.583 156.164 152.356 156.378 155.652 156.378C157.545 156.386 159.437 156.299 161.321 156.115C163.363 155.9 165.362 155.385 167.254 154.587L171.202 152.963Z" fill="#FFDBCF"/>
<path d="M158.131 154.176C147.524 159.845 116.397 166.792 100.924 170.028C93.7596 171.532 86.3006 170.674 79.6655 167.581C71.4582 163.731 64.035 158.393 57.7715 151.839C61.2514 167.498 86.7216 174.393 86.7216 174.393C88.5458 174.796 90.3947 175.077 92.2561 175.234C93.1421 175.234 93.8741 175.189 94.3428 175.144C94.6702 175.112 94.9848 175.067 95.3251 175.003C100.051 174.053 139.627 165.97 156.647 158.458C157.037 158.287 157.387 158.038 157.676 157.725C157.964 157.412 158.185 157.043 158.325 156.641C158.464 156.239 158.518 155.813 158.485 155.389C158.452 154.964 158.331 154.552 158.131 154.176Z" fill="#FFDBCF"/>
<path d="M364.993 205.98C364.731 206.142 364.518 206.373 364.378 206.648C364.238 206.923 364.176 207.231 364.199 207.538C364.222 207.845 364.33 208.141 364.509 208.391C364.689 208.642 364.934 208.838 365.218 208.959C365.905 209.213 366.648 209.277 367.368 209.145C370.245 208.702 372.132 208.368 376.672 210.365C381.211 212.362 389.513 209.37 389.513 209.37L391.946 204.825C391.946 204.825 381.975 204.382 379.317 205.377C377.031 206.243 368.762 203.624 364.993 205.98Z" fill="#FFD1C5"/>
<path d="M440.12 171.138C440.12 171.138 441.282 169.09 442.688 168.865C442.688 168.865 444.017 171.748 443.799 173.077L440.12 171.138Z" fill="#E2A296"/>
<path d="M425.545 177.783C425.545 177.783 423.548 183.324 427.317 186.649C431.086 189.975 434.63 189.089 432.415 193.744C432.415 193.744 425.769 196.401 421.557 195.072C417.346 193.744 408.479 191.086 399.169 196.844C389.859 202.603 383.875 207.264 383.875 207.264C383.875 207.264 380.331 206.821 378.097 208.593C378.097 208.593 370.559 211.694 368.12 211.912C368.12 211.912 363.246 212.362 362.803 215.906C362.734 216.191 362.735 216.49 362.807 216.775C362.879 217.06 363.019 217.323 363.216 217.541C363.413 217.76 363.66 217.926 363.936 218.027C364.212 218.128 364.509 218.16 364.8 218.121C364.878 218.413 365.02 218.684 365.214 218.916C365.409 219.147 365.652 219.333 365.927 219.459C366.201 219.586 366.5 219.651 366.803 219.649C367.105 219.648 367.403 219.58 367.676 219.45C367.676 219.45 370.341 220.779 372.331 219.45L379.869 215.238C379.869 215.238 379.644 217.01 380.755 217.902C380.755 217.902 380.537 220.336 383.413 221.222C383.413 221.222 386.521 221.446 388.954 218.121C388.954 218.121 390.726 217.01 392.062 217.235C393.397 217.459 412.228 217.235 412.89 217.235C413.551 217.235 417.988 217.678 417.988 217.678C417.988 217.678 416.216 219.893 416.44 221.665C416.665 223.437 419.541 222.994 419.541 222.994C419.541 222.994 421.757 224.547 423.31 223.443C423.31 223.443 426.411 224.085 427.522 222.332L429.069 219.674L450.129 220.779L452.562 220.56C452.562 220.56 455.227 222.332 457.442 222.551C459.657 222.769 462.983 224.547 464.755 224.329C464.755 224.329 466.751 225.215 467.856 224.104C467.856 224.104 469.41 224.99 470.52 222.994C471.631 220.997 468.08 217.902 466.527 217.678L462.983 217.036L458.771 211.258C458.771 211.258 457.217 206.378 458.129 204.388C459.04 202.398 454.366 201.062 453.923 195.965C453.48 190.867 453.031 180.672 453.031 180.672L454.142 178.014C455.084 176.974 455.791 175.743 456.212 174.404C456.633 173.065 456.759 171.651 456.581 170.259C456.581 170.259 452.588 169.617 450.373 172.249L447.715 174.027C447.715 174.027 443.503 170.477 439.959 170.92C436.415 171.363 428.652 175.799 426.662 175.575C426.655 175.555 423.991 175.35 425.545 177.783Z" fill="#FFDBCF"/>
<path d="M427.099 181.109C427.099 181.109 431.593 182.958 433.449 178.675C433.449 178.675 432.415 183.324 427.099 181.109Z" fill="#FFD1C5"/>
<path d="M429.423 198.95C429.423 198.95 425.878 203.38 423.105 205.158C420.331 206.937 415.901 211.579 418.007 217.235C418.007 217.235 413.352 209.254 422.777 204.394C422.777 204.382 427.426 201.056 429.423 198.95Z" fill="#FFD1C5"/>
<path d="M427.65 212.792C427.65 212.792 430.751 215.225 429.089 219.662C429.089 219.674 431.862 215.572 427.65 212.792Z" fill="#FFD1C5"/>
<path d="M427.76 211.142C427.76 211.142 430.418 212.137 430.328 214.577C430.309 214.577 429.532 212.246 427.76 211.142Z" fill="#FFD1C5"/>
<path d="M419.535 215.681L417.981 217.678C418.051 217.241 418.23 216.828 418.501 216.479C418.773 216.13 419.129 215.856 419.535 215.681Z" fill="#FFD1C5"/>
<path d="M379.998 215.572C379.998 215.572 378.971 211.88 380.999 210.917C383.324 209.813 382.99 212.471 388.062 211.912C393.134 211.354 402.136 209.479 402.136 209.479L388.171 210.917C388.171 210.917 385.956 211.912 382.63 210.031C380.152 208.613 378.778 212.471 379.998 215.572Z" fill="#FFD1C5"/>
<path d="M452.582 220.56C452.582 220.56 456.576 220.894 457.905 218.345C457.905 218.345 458.348 221.446 452.582 220.56Z" fill="#FFD1C5"/>
<path d="M457.128 216.792C457.128 216.792 456.685 218.673 455.131 219.116L457.128 216.792Z" fill="#FFD1C5"/>
<path d="M460.896 218.23C461.645 217.753 462.486 217.437 463.363 217.304C464.241 217.17 465.137 217.221 465.994 217.453C465.994 217.453 462.007 215.681 460.896 218.23Z" fill="#FFD1C5"/>
<path d="M427.76 186.983C428.557 187.791 429.507 188.434 430.553 188.875C431.6 189.316 432.724 189.545 433.859 189.551C433.859 189.551 436.96 189.108 437.294 190.88C437.294 190.88 437.179 188.999 433.859 189.108C433.859 189.089 431.862 188.98 427.76 186.983Z" fill="#FFD1C5"/>
<path d="M454.135 178.008C453.806 178.453 453.392 178.83 452.917 179.115C452.443 179.4 451.916 179.589 451.368 179.671L454.135 178.008Z" fill="#FFD1C5"/>
<path d="M449.814 178.451C449.814 178.451 455.464 177.456 456.132 172.133C456.132 172.133 456.684 177.565 449.814 178.451Z" fill="#FFD1C5"/>
<path d="M425.66 175.465H425.545C425.314 175.611 425.13 175.822 425.016 176.07C424.902 176.318 424.863 176.595 424.903 176.865C424.987 177.141 425.165 177.379 425.407 177.536C425.649 177.693 425.939 177.76 426.225 177.725L427.041 177.635C427.118 177.627 427.192 177.602 427.259 177.562C427.325 177.522 427.382 177.468 427.425 177.404C427.469 177.34 427.497 177.267 427.51 177.191C427.522 177.114 427.518 177.036 427.497 176.961C427.382 176.553 427.145 176.19 426.816 175.922C426.487 175.654 426.083 175.495 425.66 175.465Z" fill="#FFD1C5"/>
<path d="M370.36 212.471C370.36 212.471 373.237 213.248 372.929 215.572C372.909 215.572 372.909 214.018 370.36 212.471Z" fill="#FFD1C5"/>
<path d="M438.399 196.035C438.399 196.035 438.476 197.364 437.442 197.66L438.399 196.035Z" fill="white"/>
<path d="M439.728 196.1C439.728 196.1 440.248 197.384 439.657 197.801L439.728 196.1Z" fill="white"/>
<path d="M441.43 195.888C441.43 195.888 442.168 197.217 441.353 197.66L441.43 195.888Z" fill="white"/>
<path d="M442.758 195.663C442.758 195.663 443.868 196.305 443.573 197.217L442.758 195.663Z" fill="white"/>
<path d="M444.679 195.593C444.679 195.593 445.789 196.106 445.565 196.921L444.679 195.593Z" fill="white"/>
<path d="M446.154 195.515C446.154 195.515 447.188 195.592 447.336 196.478L446.154 195.515Z" fill="white"/>
<path d="M437.513 200.016C437.513 200.016 437.615 201.826 436.229 202.224L437.513 200.016Z" fill="white"/>
<path d="M439.292 200.119C439.292 200.119 439.998 201.826 439.195 202.423L439.292 200.119Z" fill="white"/>
<path d="M441.603 199.817C441.603 199.817 442.604 201.621 441.5 202.224L441.603 199.817Z" fill="white"/>
<path d="M443.407 199.515C443.407 199.515 444.916 200.42 444.512 201.621L443.407 199.515Z" fill="white"/>
<path d="M446.02 199.419C446.02 199.419 447.522 200.119 447.22 201.223L446.02 199.419Z" fill="white"/>
<path d="M448.023 199.31C448.023 199.31 449.43 199.412 449.629 200.594L448.023 199.31Z" fill="white"/>
<path d="M441.205 188.717C441.205 188.717 442.541 189.089 442.611 189.904L441.205 188.717Z" fill="white"/>
<path d="M442.688 188.273C442.688 188.273 443.869 188.203 443.792 189.236L442.688 188.273Z" fill="white"/>
<path d="M443.869 187.388C443.869 187.388 445.05 187.612 445.05 188.421L443.869 187.388Z" fill="white"/>
<path d="M445.493 186.874C445.619 186.823 445.754 186.799 445.889 186.801C446.025 186.804 446.159 186.834 446.282 186.889C446.406 186.944 446.518 187.023 446.611 187.122C446.703 187.221 446.775 187.337 446.822 187.465L445.493 186.874Z" fill="white"/>
<path d="M419.535 222.994C419.391 222.633 419.357 222.238 419.436 221.858C419.515 221.478 419.703 221.13 419.978 220.856C420.081 221.003 419.708 221.665 419.535 222.994Z" fill="white"/>
<path d="M423.33 223.443C423.33 223.443 422.688 221.222 423.773 220.265C423.443 221.291 423.293 222.366 423.33 223.443Z" fill="white"/>
<path d="M380.774 217.928C380.774 217.928 381.885 219.032 383.657 217.999C383.657 217.973 381.956 219.45 380.774 217.928Z" fill="white"/>
<path d="M380.185 215.167C380.185 215.167 381.809 216.124 383.215 215.315C383.215 215.315 382.4 215.758 380.185 215.167Z" fill="white"/>
<path d="M367.696 219.45C367.681 219.032 367.825 218.625 368.1 218.31C368.374 217.996 368.758 217.797 369.173 217.755C368.603 218.247 368.106 218.818 367.696 219.45Z" fill="white"/>
<path d="M364.82 218.121C364.82 218.121 364.82 216.567 366.149 216.195C365.592 216.75 365.142 217.403 364.82 218.121Z" fill="white"/>
<path d="M467.876 224.104C467.876 224.104 467.953 222.332 466.694 221.889C467.227 222.545 467.628 223.297 467.876 224.104Z" fill="white"/>
<path d="M465.217 224.252C465.217 224.252 465.147 221.812 464.036 221.742C464.5 222.543 464.896 223.383 465.217 224.252Z" fill="white"/>
<path d="M448.428 175.183C448.815 174.216 449.547 173.426 450.482 172.968C451.978 172.326 454.193 170.747 455.619 170.971C455.619 170.971 454.79 176.621 449.693 177.732C449.756 177.136 449.699 176.533 449.526 175.96L449.301 176.73C449.125 176.157 448.827 175.63 448.428 175.183Z" fill="#FFD1C5"/>
<path d="M431.863 180.004C431.863 180.004 436.358 182.662 436.737 187.426C436.672 185.864 436.184 184.349 435.326 183.042C434.468 181.735 433.271 180.685 431.863 180.004Z" fill="white"/>
<path d="M431.767 178.765C431.767 178.765 436.813 180.088 438.495 184.543C437.999 183.063 437.111 181.745 435.927 180.728C434.742 179.711 433.305 179.033 431.767 178.765Z" fill="white"/>
<path d="M430.328 179.003C430.328 179.003 432.421 183.78 429.962 187.876C430.817 186.567 431.303 185.052 431.368 183.49C431.432 181.928 431.073 180.377 430.328 179.003Z" fill="white"/>
<path d="M429.686 180.203C429.686 180.203 430.078 185.404 426.386 188.447C427.63 187.5 428.594 186.233 429.175 184.781C429.756 183.329 429.932 181.748 429.686 180.203Z" fill="white"/>
<path d="M436.107 176.428C436.223 176.333 436.316 176.214 436.381 176.078C436.445 175.943 436.479 175.795 436.479 175.645C436.479 175.371 436.371 175.108 436.177 174.914C435.983 174.72 435.72 174.612 435.446 174.612C435.172 174.612 434.909 174.72 434.715 174.914C434.521 175.108 434.412 175.371 434.412 175.645C434.414 175.864 434.484 176.077 434.611 176.255C435.113 176.281 435.613 176.339 436.107 176.428Z" fill="white"/>
</svg>
