<svg width="44" height="51" viewBox="0 0 44 51" fill="none" xmlns="http://www.w3.org/2000/svg">
<path d="M26.95 26.6877V30.5577L37.13 35.0377C38.1488 35.488 39.0569 36.1553 39.791 36.993C40.5251 37.8308 41.0674 38.8187 41.38 39.8877L42.69 49.8877H1L2.32 39.8877C2.63137 38.8181 3.17321 37.8296 3.90744 36.9917C4.64167 36.1538 5.55048 35.4869 6.57 35.0377L16.74 30.5577V26.6877" stroke="#004A80" stroke-width="2" stroke-linecap="round" stroke-linejoin="round"/>
<path d="M14.43 15.2477V22.3577C14.4319 23.41 14.7506 24.4373 15.3445 25.3059C15.9384 26.1745 16.7801 26.8442 17.76 27.2277L20.76 28.3877C21.472 28.6573 22.258 28.6573 22.97 28.3877L25.97 27.2277C26.9405 26.8363 27.7716 26.1632 28.3562 25.2953C28.9408 24.4273 29.2521 23.4042 29.25 22.3577V14.8977" stroke="#004A80" stroke-width="2" stroke-linecap="round" stroke-linejoin="round"/>
<path d="M14.43 15.2477C14.43 15.2477 17.99 12.3577 18.57 9.8477C20.8135 11.7601 23.6258 12.8779 26.57 13.0277V9.8477C26.57 9.8477 28.74 9.9477 29.26 14.8477H31.41L31.67 9.1777C31.67 6.5777 31.01 4.1777 28.92 2.6577C27.1395 1.39551 24.961 0.823342 22.79 1.0477C22.79 1.0477 17.62 0.557698 16.08 3.2577C16.08 3.2577 12.71 4.1277 12.23 7.2577C11.966 9.88441 11.966 12.531 12.23 15.1577L14.43 15.2477Z" stroke="#004A80" stroke-width="2" stroke-linecap="round" stroke-linejoin="round"/>
<path d="M12.22 15.2478C12.22 15.2478 11.64 19.2478 14.43 18.9478" stroke="#004A80" stroke-width="2" stroke-linecap="round" stroke-linejoin="round"/>
<path d="M31.4 14.8977C31.4 14.8977 32.24 18.8077 29.4 18.5177" stroke="#004A80" stroke-width="2" stroke-linecap="round" stroke-linejoin="round"/>
<path d="M14.64 31.4277L21.37 36.2877L28.42 31.4277" stroke="#004A80" stroke-width="2" stroke-linecap="round" stroke-linejoin="round"/>
<path d="M14.17 37.9277C13.7571 37.9276 13.3485 38.0127 12.97 38.1777C12.4132 37.2232 12.056 36.1655 11.9202 35.0688C11.7844 33.9721 11.8728 32.8593 12.18 31.7977C12.2153 31.6325 12.1879 31.4601 12.103 31.314C12.0182 31.168 11.882 31.0587 11.721 31.0075C11.56 30.9564 11.3857 30.967 11.2321 31.0372C11.0785 31.1075 10.9565 31.2325 10.89 31.3877C10.5169 32.6558 10.4132 33.9879 10.5854 35.2985C10.7576 36.609 11.202 37.8691 11.89 38.9977C11.4507 39.5205 11.2029 40.1774 11.1875 40.86C11.1721 41.5426 11.39 42.2101 11.8052 42.7521C12.2204 43.2941 12.8081 43.6783 13.4712 43.8411C14.1343 44.004 14.8331 43.9358 15.4522 43.6478C16.0712 43.3598 16.5736 42.8692 16.8761 42.2571C17.1787 41.645 17.2634 40.948 17.1163 40.2813C16.9692 39.6146 16.599 39.0179 16.0669 38.59C15.5349 38.1621 14.8728 37.9285 14.19 37.9277H14.17Z" fill="#F58220"/>
<path d="M33.48 38.0577C33.5207 37.2694 33.2748 36.4929 32.7877 35.8717C32.3006 35.2504 31.6053 34.8264 30.83 34.6777H30.46C30.8003 33.4713 31.0016 32.2299 31.06 30.9777C31.064 30.8994 31.0524 30.8211 31.0258 30.7473C30.9992 30.6736 30.9582 30.6058 30.9051 30.5481C30.852 30.4904 30.788 30.4438 30.7167 30.4111C30.6454 30.3784 30.5684 30.3603 30.49 30.3577C30.4125 30.3537 30.3349 30.365 30.2618 30.391C30.1887 30.4169 30.1214 30.4571 30.0638 30.5091C30.0062 30.5611 29.9594 30.624 29.9262 30.6941C29.8929 30.7642 29.8738 30.8402 29.87 30.9177C29.8185 32.1378 29.617 33.3469 29.27 34.5177L28.54 34.4177C27.755 34.3538 26.9734 34.5771 26.3407 35.0461C25.7079 35.5152 25.267 36.198 25.1 36.9677L24.04 42.5577C23.9729 42.9158 23.9789 43.2837 24.0577 43.6393C24.1365 43.9949 24.2865 44.331 24.4986 44.6271C24.7106 44.9233 24.9805 45.1735 25.2918 45.3626C25.6031 45.5518 25.9494 45.676 26.31 45.7277H26.51C26.5875 45.7227 26.6633 45.7023 26.733 45.6679C26.8026 45.6334 26.8648 45.5856 26.9159 45.527C26.967 45.4685 27.006 45.4004 27.0308 45.3267C27.0555 45.2531 27.0654 45.1753 27.06 45.0977L26.95 43.7477C26.9441 43.6703 26.923 43.5947 26.8879 43.5254C26.8527 43.4561 26.8043 43.3943 26.7454 43.3437C26.6864 43.2931 26.618 43.2546 26.5442 43.2304C26.4704 43.2062 26.3925 43.1968 26.315 43.2027C26.2375 43.2086 26.162 43.2298 26.0926 43.2649C26.0233 43.3 25.9616 43.3484 25.911 43.4074C25.8604 43.4663 25.8219 43.5347 25.7977 43.6085C25.7735 43.6824 25.7641 43.7603 25.77 43.8377V44.2877C25.6344 44.1956 25.516 44.0805 25.42 43.9477C25.2977 43.7834 25.2114 43.5952 25.1666 43.3954C25.1218 43.1955 25.1195 42.9885 25.16 42.7877L26.22 37.1477C26.3296 36.6619 26.6123 36.2326 27.0153 35.94C27.4183 35.6474 27.9141 35.5115 28.41 35.5577L29.61 35.7177L30.61 35.8577C31.0941 35.9551 31.5274 36.2222 31.8318 36.611C32.1362 36.9997 32.2916 37.4845 32.27 37.9777L31.76 43.7077C31.711 44.1014 31.51 44.4602 31.2 44.7077C31.0623 44.8147 30.9065 44.896 30.74 44.9477L30.95 44.5577C30.9769 44.4849 30.9892 44.4074 30.9862 44.3297C30.9832 44.2521 30.9649 44.1758 30.9324 44.1052C30.8999 44.0347 30.8538 43.9712 30.7968 43.9184C30.7397 43.8657 30.6729 43.8247 30.6 43.7977C30.5271 43.7708 30.4496 43.7585 30.372 43.7615C30.2944 43.7646 30.2181 43.7828 30.1475 43.8153C30.0769 43.8478 30.0134 43.8939 29.9607 43.9509C29.9079 44.008 29.8669 44.0749 29.84 44.1477L29.37 45.4377C29.3428 45.5106 29.3304 45.5881 29.3333 45.6658C29.3362 45.7435 29.3544 45.8199 29.387 45.8905C29.4195 45.9611 29.4657 46.0246 29.5228 46.0774C29.58 46.1301 29.647 46.171 29.72 46.1977H29.84C29.84 46.1977 29.84 46.1977 29.9 46.1977C30.258 46.2466 30.6222 46.2231 30.971 46.1286C31.3198 46.0342 31.646 45.8706 31.9304 45.6478C32.2149 45.4249 32.4517 45.1472 32.6268 44.8311C32.8019 44.5151 32.9118 44.1671 32.95 43.8077L33.48 38.0577Z" fill="#F58220"/>
</svg>
