<svg width="47" height="45" viewBox="0 0 47 45" fill="none" xmlns="http://www.w3.org/2000/svg">
<path d="M40.4779 31.6033C40.2759 36.0583 36.2485 41.4757 30.2728 41.4757H26.186" stroke="#004A80" stroke-width="2" stroke-linecap="round" stroke-linejoin="round"/>
<path d="M24.1427 43.5192H22.0993C21.5574 43.5192 21.0376 43.3039 20.6544 42.9207C20.2712 42.5375 20.0559 42.0177 20.0559 41.4758C20.0559 40.9338 20.2712 40.4141 20.6544 40.0309C21.0376 39.6477 21.5574 39.4324 22.0993 39.4324H24.1427C24.6847 39.4324 25.2044 39.6477 25.5876 40.0309C25.9708 40.4141 26.1861 40.9338 26.1861 41.4758C26.1861 42.0177 25.9708 42.5375 25.5876 42.9207C25.2044 43.3039 24.6847 43.5192 24.1427 43.5192Z" stroke="#004A80" stroke-width="2" stroke-linecap="round" stroke-linejoin="round"/>
<path d="M7.79538 17.2996V15.2562C7.79538 11.4753 9.29737 7.84912 11.9709 5.17556C14.6445 2.50199 18.2706 1 22.0516 1H24.095C27.876 1 31.5021 2.50199 34.1757 5.17556C36.8493 7.84912 38.3513 11.4753 38.3513 15.2562V17.2996" stroke="#004A80" stroke-width="2" stroke-linecap="round" stroke-linejoin="round"/>
<path d="M5.08679 17.2988H9.20922V31.5551H5.08679C4.00291 31.5551 2.96342 31.1245 2.19699 30.3581C1.43057 29.5917 1 28.5522 1 27.4683V21.3856C1 20.3017 1.43057 19.2622 2.19699 18.4958C2.96342 17.7294 4.00291 17.2988 5.08679 17.2988V17.2988Z" stroke="#004A80" stroke-width="2" stroke-linecap="round" stroke-linejoin="round"/>
<path d="M41.1432 31.615H37.0564V17.3587H41.1432C42.2271 17.3587 43.2666 17.7893 44.033 18.5557C44.7994 19.3222 45.23 20.3617 45.23 21.4455V27.5282C45.23 28.6121 44.7994 29.6516 44.033 30.418C43.2666 31.1844 42.2271 31.615 41.1432 31.615Z" stroke="#004A80" stroke-width="2" stroke-linecap="round" stroke-linejoin="round"/>
<path d="M23.121 15.8499C21.4593 15.8499 19.8349 16.3428 18.4534 17.2662C17.0719 18.1897 15.9953 19.5022 15.3599 21.0376C14.7246 22.5731 14.5589 24.2625 14.884 25.8922C15.209 27.5218 16.0102 29.0184 17.186 30.1926C18.3619 31.3668 19.8596 32.1658 21.4897 32.4885C23.1198 32.8113 24.809 32.6432 26.3435 32.0057C27.8781 31.3681 29.1891 30.2897 30.1106 28.9069C31.0321 27.5241 31.5227 25.899 31.5203 24.2373C31.5172 22.0117 30.6309 19.8784 29.056 18.3058C27.4812 16.7331 25.3466 15.8499 23.121 15.8499ZM26.0554 25.6867H24.5704V27.1836C24.5704 27.568 24.4177 27.9366 24.1459 28.2084C23.8741 28.4802 23.5054 28.633 23.121 28.633C22.7366 28.633 22.368 28.4802 22.0961 28.2084C21.8243 27.9366 21.6716 27.568 21.6716 27.1836V25.6867H20.1866C19.8022 25.6867 19.4335 25.534 19.1617 25.2621C18.8899 24.9903 18.7372 24.6217 18.7372 24.2373C18.7372 23.8529 18.8899 23.4842 19.1617 23.2124C19.4335 22.9406 19.8022 22.7879 20.1866 22.7879H21.6716V21.3029C21.6716 20.9185 21.8243 20.5498 22.0961 20.278C22.368 20.0062 22.7366 19.8535 23.121 19.8535C23.5054 19.8535 23.8741 20.0062 24.1459 20.278C24.4177 20.5498 24.5704 20.9185 24.5704 21.3029V22.7879H26.0554C26.4398 22.7879 26.8085 22.9406 27.0803 23.2124C27.3521 23.4842 27.5048 23.8529 27.5048 24.2373C27.5048 24.6217 27.3521 24.9903 27.0803 25.2621C26.8085 25.534 26.4398 25.6867 26.0554 25.6867Z" fill="#F58220"/>
</svg>
