<svg width="19" height="19" viewBox="0 0 19 19" fill="none" xmlns="http://www.w3.org/2000/svg">
<g clip-path="url(#clip0_16122_38608)">
<path d="M12.9493 3.90682V2.96798C12.9493 2.19378 12.2775 1.56641 11.4485 1.56641H7.5512C6.72219 1.56641 6.0504 2.19378 6.0504 2.96798V3.90682H4.81642C4.11128 3.90682 3.53955 4.44075 3.53955 5.09927V18.5544H15.4601V5.09927C15.4601 4.44075 14.8884 3.90682 14.1833 3.90682H12.9493Z" stroke="#004A80" stroke-linecap="round" stroke-linejoin="round"/>
<path d="M0.976074 18.5547H18.0232" stroke="#004A80" stroke-linecap="round" stroke-linejoin="round"/>
<path d="M6.35986 11.5254V12.6956" stroke="#004A80" stroke-linecap="round" stroke-linejoin="round"/>
<path d="M9.49951 11.5254V12.6956" stroke="#004A80" stroke-linecap="round" stroke-linejoin="round"/>
<path d="M12.6348 11.5254V12.6956" stroke="#004A80" stroke-linecap="round" stroke-linejoin="round"/>
<path d="M12.0105 15.0391H6.98877V18.5541H12.0105V15.0391Z" stroke="#004A80" stroke-linecap="round" stroke-linejoin="round"/>
<path d="M9.5 4.24609V6.80008" stroke="#EC6625" stroke-linecap="round" stroke-linejoin="round"/>
<path d="M10.8676 5.52344H8.13281" stroke="#EC6625" stroke-linecap="round" stroke-linejoin="round"/>
</g>
<defs>
<clipPath id="clip0_16122_38608">
<rect width="18" height="19" fill="white" transform="translate(0.5)"/>
</clipPath>
</defs>
</svg>
