<svg width="45" height="46" viewBox="0 0 45 46" fill="none" xmlns="http://www.w3.org/2000/svg">
<path d="M40.1499 33.4801C42.3092 30.044 43.4369 26.0604 43.3991 22.0024C43.3613 17.9444 42.1595 13.9825 39.9366 10.5873C37.7136 7.19213 34.5629 4.50629 30.8586 2.84883C27.1543 1.19136 23.0522 0.631919 19.0393 1.23694C15.0265 1.84197 11.2716 3.58604 8.22073 6.262C5.16982 8.93797 2.95106 12.4334 1.82799 16.3331C0.704913 20.2327 0.72472 24.3728 1.88506 28.2616C3.04539 32.1504 5.2975 35.6244 8.37388 38.271L8.19422 44.5472L13.7637 41.6487C18.4119 43.6676 23.6298 43.9537 28.4709 42.455C33.3119 40.9563 37.4555 37.7721 40.1499 33.4801V33.4801Z" stroke="#004A80" stroke-width="2" stroke-linecap="round" stroke-linejoin="round"/>
<path d="M18.9619 12.4717C18.9516 12.0887 19.0269 11.7082 19.1823 11.3581C19.3377 11.0079 19.5693 10.6968 19.8602 10.4475C20.5228 9.92682 21.3411 9.6438 22.1838 9.6438C23.0265 9.6438 23.8448 9.92682 24.5074 10.4475C24.7812 10.7058 24.9989 11.0176 25.1469 11.3637C25.295 11.7097 25.3702 12.0825 25.368 12.4589C25.3657 12.8353 25.286 13.2072 25.1339 13.5514C24.9817 13.8957 24.7603 14.2049 24.4835 14.4599C23.8174 14.9727 23.0005 15.2508 22.1599 15.2508C21.3193 15.2508 20.5023 14.9727 19.8362 14.4599C19.5545 14.2122 19.3302 13.9059 19.1792 13.5625C19.0282 13.219 18.954 12.8467 18.9619 12.4717ZM22.2197 35.9354C21.4478 35.9354 20.7075 35.6287 20.1617 35.0829C19.6159 34.5371 19.3092 33.7968 19.3092 33.0249V20.1971C19.3092 19.4252 19.6159 18.6849 20.1617 18.139C20.7075 17.5932 21.4478 17.2866 22.2197 17.2866C22.9917 17.2866 23.732 17.5932 24.2778 18.139C24.8236 18.6849 25.1303 19.4252 25.1303 20.1971V33.0249C25.1303 33.7968 24.8236 34.5371 24.2778 35.0829C23.732 35.6287 22.9917 35.9354 22.2197 35.9354Z" fill="#F58220"/>
</svg>
