<svg width="47" height="39" viewBox="0 0 47 39" fill="none" xmlns="http://www.w3.org/2000/svg">
<path d="M7.24622 32.5607L19.8197 36.5745C24.2846 37.8932 27.2573 37.8932 32.4278 35.013L44.2957 28.2347C44.7107 27.9952 45.0287 27.6177 45.1941 27.168C45.3596 26.7182 45.362 26.2247 45.201 25.7733C45.04 25.322 44.7258 24.9414 44.313 24.6979C43.9003 24.4544 43.4152 24.3633 42.9423 24.4406C42.6416 24.4985 42.3177 24.5679 41.9822 24.6604L29.2584 27.1936" stroke="#004A80" stroke-width="2" stroke-linecap="round" stroke-linejoin="round"/>
<path d="M19.1257 27.1946H29.2931C29.7073 27.1946 30.1045 27.0301 30.3973 26.7372C30.6902 26.4444 30.8547 26.0472 30.8547 25.6331C30.8625 25.4232 30.8278 25.2139 30.7529 25.0177C30.6779 24.8215 30.5641 24.6425 30.4183 24.4913C30.2725 24.3401 30.0977 24.2199 29.9044 24.1378C29.7111 24.0557 29.5032 24.0135 29.2931 24.0137H21.4738L19.9007 22.3943C19.1596 21.6034 18.2637 20.9734 17.2687 20.5436C16.2737 20.1137 15.201 19.8932 14.1171 19.8958H6.86453" stroke="#004A80" stroke-width="2" stroke-linecap="round" stroke-linejoin="round"/>
<path d="M6.86452 18.23H1V35.5459H6.86452V18.23Z" stroke="#004A80" stroke-width="2" stroke-linecap="round" stroke-linejoin="round"/>
<path d="M27.2921 0C25.3429 0 23.4375 0.577996 21.8169 1.6609C20.1962 2.7438 18.933 4.28296 18.1871 6.08376C17.4412 7.88456 17.246 9.86611 17.6263 11.7778C18.0066 13.6895 18.9452 15.4456 20.3234 16.8238C21.7017 18.2021 23.4577 19.1407 25.3695 19.521C27.2812 19.9012 29.2627 19.7061 31.0635 18.9602C32.8643 18.2143 34.4035 16.9511 35.4864 15.3304C36.5693 13.7097 37.1473 11.8043 37.1473 9.85517C37.1473 7.24142 36.109 4.73472 34.2608 2.88651C32.4126 1.03831 29.9059 0 27.2921 0ZM30.7622 11.5671H28.9925V13.3137C29.0118 13.548 28.9824 13.7838 28.906 14.0062C28.8297 14.2285 28.708 14.4326 28.5488 14.6056C28.3895 14.7786 28.1962 14.9166 27.9808 15.011C27.7655 15.1055 27.533 15.1542 27.2979 15.1542C27.0628 15.1542 26.8302 15.1055 26.6149 15.011C26.3996 14.9166 26.2062 14.7786 26.047 14.6056C25.8877 14.4326 25.7661 14.2285 25.6897 14.0062C25.6134 13.7838 25.5839 13.548 25.6033 13.3137V11.5555H23.8451C23.3941 11.5555 22.9616 11.3764 22.6428 11.0575C22.3239 10.7386 22.1447 10.3061 22.1447 9.85517C22.1447 9.40421 22.3239 8.97171 22.6428 8.65283C22.9616 8.33395 23.3941 8.15481 23.8451 8.15481H25.6033V6.40818C25.5839 6.17387 25.6134 5.93809 25.6897 5.71574C25.7661 5.49338 25.8877 5.28928 26.047 5.11632C26.2062 4.94336 26.3996 4.80531 26.6149 4.71087C26.8302 4.61644 27.0628 4.56769 27.2979 4.56769C27.533 4.56769 27.7655 4.61644 27.9808 4.71087C28.1962 4.80531 28.3895 4.94336 28.5488 5.11632C28.708 5.28928 28.8297 5.49338 28.906 5.71574C28.9824 5.93809 29.0118 6.17387 28.9925 6.40818V8.15481H30.7391C31.1901 8.15481 31.6226 8.33395 31.9414 8.65283C32.2603 8.97171 32.4395 9.40421 32.4395 9.85517C32.4395 10.3061 32.2603 10.7386 31.9414 11.0575C31.6226 11.3764 31.1901 11.5555 30.7391 11.5555L30.7622 11.5671Z" fill="#F58220"/>
</svg>
