<?xml version="1.0" encoding="UTF-8"?>
<svg width="34px" height="32px" viewBox="0 0 34 32" version="1.1" xmlns="http://www.w3.org/2000/svg" xmlns:xlink="http://www.w3.org/1999/xlink">
  <title>161D1CC7-116F-421E-85DF-300BDDA5DFDD</title>
  <desc>Created with sketchtool.</desc>
  <g id="Page-1" stroke="none" stroke-width="1" fill="none" fill-rule="evenodd" stroke-linecap="round" stroke-linejoin="round">
    <g id="2" transform="translate(-212.000000, -347.000000)" stroke="#FFFFFF" stroke-width="1.5999999">
      <g id="Group-81" transform="translate(213.000000, 192.000000)">
        <g id="Group-80" transform="translate(0.000000, 155.000000)">
          <g id="Group-73">
            <g id="Quick-Renwl">
              <polyline id="Path" points="8.07999952 29.1999983 8.71999948 25.1199985 12.7999992 25.7599985"></polyline>
              <path d="M9.27999945,9.59999943 C9.96846067,8.84650881 10.7176458,8.15083692 11.5199993,7.51999955 C17.1504316,3.39699575 25.0568734,4.6171001 29.1824705,10.2456324 C33.3080676,15.8741648 32.0916056,23.7811678 26.4649743,27.9093573 C20.8383431,32.0375468 12.9307805,30.8247274 8.79999948,25.1999985" id="Path"></path>
              <line x1="9.19999945" y1="12.8799992" x2="2.47999985" y2="12.8799992" id="Path"></line>
              <line x1="9.19999945" y1="20.8799988" x2="2.47999985" y2="20.8799988" id="Path"></line>
              <line x1="7.03999958" y1="16.559999" x2="0.319999981" y2="16.559999" id="Path"></line>
              <line x1="18.9599989" y1="5.0399997" x2="18.9599989" y2="0.799999952" id="Path"></line>
              <line x1="16.399999" y1="0.799999952" x2="21.5199987" y2="0.799999952" id="Path"></line>
            </g>
          </g>
        </g>
      </g>
    </g>
  </g>
</svg>