<?xml version="1.0" encoding="UTF-8"?>
<svg width="34px" height="31px" viewBox="0 0 34 31" version="1.1" xmlns="http://www.w3.org/2000/svg" xmlns:xlink="http://www.w3.org/1999/xlink">
  <title>25982197-8A48-403A-B8C6-5E24DE7447C2</title>
  <desc>Created with sketchtool.</desc>
  <g id="Page-1" stroke="none" stroke-width="1" fill="none" fill-rule="evenodd">
    <g id="2" transform="translate(-212.000000, -397.000000)">
      <g id="Group-81" transform="translate(213.000000, 192.000000)">
        <g id="Group-80" transform="translate(0.000000, 155.000000)">
          <g id="Group-72" transform="translate(0.000000, 51.000000)">
            <g id="Ren_benefits">
              <polyline id="Path" stroke="#FFFFFF" stroke-width="1.5999999" stroke-linecap="round" stroke-linejoin="round" points="31.5999981 11.7599993 28.3999983 14.9599991 25.1199985 11.7599993"></polyline>
              <path d="M26.4799984,21.8399987 C22.9313646,27.8978286 15.4446829,30.3905104 8.9729602,27.6689462 C2.50123754,24.947382 -0.953912429,17.8533138 0.893353642,11.0800049 C2.74061971,4.30669597 9.31896817,-0.0509635901 16.2763233,0.889948012 C23.2336785,1.83085961 28.4182274,7.77933153 28.4000462,14.7999991" id="Path" stroke="#FFFFFF" stroke-width="1.5999999" stroke-linecap="round" stroke-linejoin="round"></path>
              <path d="M14.8799991,10.2399994 L14.8799991,10.2399994 C14.0894604,10.2505285 13.3266754,10.5330414 12.7199992,11.0399993 C10.8799994,12.4799993 7.35999956,15.9199991 8.87999947,19.4399988 C9.94256673,21.549979 12.2149711,22.7661953 14.5599991,22.4799987 L15.1199991,22.4799987 C17.4650272,22.7661953 19.7374315,21.549979 20.7999988,19.4399988 C22.3199987,15.9199991 18.7999989,12.4799993 16.959999,11.0399993 C16.3778641,10.5444735 15.6441526,10.2622768 14.8799991,10.2399994 Z" id="Path" stroke="#FFFFFF" stroke-width="1.5999999" stroke-linecap="round" stroke-linejoin="round"></path>
              <path d="M16.719999,14.7199991 L15.3599991,14.7199991 C15.5570556,14.9186117 15.6954711,15.1677595 15.7599991,15.4399991 L16.719999,15.4399991 L16.719999,15.9199991 L15.7599991,15.9199991 C15.6799991,16.639999 14.9599992,17.119999 13.9199992,17.199999 C14.6521847,17.8815484 15.3465545,18.6026248 15.999999,19.3599988 L15.0399991,19.3599988 C14.3872343,18.6272505 13.6927476,17.9327638 12.9599992,17.279999 L12.9599992,16.639999 L13.4399992,16.639999 C14.3199991,16.639999 14.7999991,16.319999 14.8799991,15.9199991 L12.9599992,15.9199991 L12.9599992,15.4399991 L14.8799991,15.4399991 C14.7199991,15.0399991 14.3199991,14.8799991 13.5999992,14.8799991 L12.9599992,14.8799991 L12.9599992,14.2399992 L16.719999,14.2399992 L16.719999,14.7199991 Z" id="Path" fill="#FFFFFF" fill-rule="nonzero"></path>
              <path d="M13.5199992,10.4799994 L11.3599993,6.39999962 C12.0099773,6.31113406 12.6718951,6.39387379 13.2799992,6.6399996 C13.509612,6.80962785 13.8028072,6.8682669 14.0799992,6.79999959 C14.4595263,6.69829819 14.8641295,6.75609865 15.1999991,6.95999959 C15.5407343,7.09327162 15.9236552,7.06381616 16.239999,6.87999959 L16.879999,6.55999961 C16.959999,6.47999961 17.119999,6.55999961 17.039999,6.7199996 L15.9199991,10.3999994" id="Path" stroke="#FFFFFF" stroke-width="1.5999999" stroke-linecap="round" stroke-linejoin="round"></path>
            </g>
          </g>
        </g>
      </g>
    </g>
  </g>
</svg>