<svg width="49" height="40" viewBox="0 0 49 40" fill="none" xmlns="http://www.w3.org/2000/svg">
<path d="M42.71 12.3501H18.08C16.8343 12.3527 15.6404 12.8488 14.7595 13.7296C13.8787 14.6105 13.3826 15.8044 13.38 17.0501V28.4601C13.3826 29.7058 13.8787 30.8997 14.7595 31.7806C15.6404 32.6614 16.8343 33.1575 18.08 33.1601H25.56L36.71 38.7401V33.1401H42.71C43.9565 33.1401 45.152 32.6449 46.0334 31.7635C46.9148 30.8821 47.41 29.6866 47.41 28.4401V17.0501C47.41 15.8036 46.9148 14.6081 46.0334 13.7267C45.152 12.8453 43.9565 12.3501 42.71 12.3501V12.3501Z" stroke="#0B4B7F" stroke-width="2" stroke-linecap="round" stroke-linejoin="round"/>
<path d="M30.38 25.04C31.6447 25.04 32.67 24.0147 32.67 22.75C32.67 21.4852 31.6447 20.46 30.38 20.46C29.1153 20.46 28.09 21.4852 28.09 22.75C28.09 24.0147 29.1153 25.04 30.38 25.04Z" fill="#F48120"/>
<path d="M23.29 25.04C24.5547 25.04 25.58 24.0147 25.58 22.75C25.58 21.4852 24.5547 20.46 23.29 20.46C22.0253 20.46 21 21.4852 21 22.75C21 24.0147 22.0253 25.04 23.29 25.04Z" fill="#F48120"/>
<path d="M37.47 25.04C38.7347 25.04 39.76 24.0147 39.76 22.75C39.76 21.4852 38.7347 20.46 37.47 20.46C36.2053 20.46 35.18 21.4852 35.18 22.75C35.18 24.0147 36.2053 25.04 37.47 25.04Z" fill="#F48120"/>
<path d="M34.34 8.9C33.927 8.19271 33.3356 7.6062 32.6249 7.19908C31.9142 6.79196 31.1091 6.57849 30.29 6.58H18.48L7.31 1V6.58H5.71C5.09195 6.57868 4.4797 6.69928 3.90832 6.93489C3.33693 7.1705 2.81763 7.51649 2.38013 7.95306C1.94264 8.38962 1.59554 8.90819 1.35872 9.47907C1.1219 10.05 0.999999 10.6619 1 11.28V22.68C0.999999 23.2981 1.1219 23.91 1.35872 24.4809C1.59554 25.0518 1.94264 25.5704 2.38013 26.0069C2.81763 26.4435 3.33693 26.7895 3.90832 27.0251C4.4797 27.2607 5.09195 27.3813 5.71 27.38H9" stroke="#0B4B7F" stroke-width="2" stroke-linecap="round" stroke-linejoin="round"/>
</svg>
